<svg xmlns="http://www.w3.org/2000/svg" viewBox="0 0 328.72 328.59">
  <path fill="#fff" d="M328.72 98.43l0 131.73c0,51.74 -36.68,92.53 -87.58,98.01 -3.37,0.42 -6.64,0.42 -10.01,0.42l-34.15 0 0 -132.26 40.05 0c1.69,-16.65 3.37,-33.41 5.38,-50.06l-44.16 0c-0.42,0 -1.26,-0.42 -1.26,-1.69 0,-10.43 0,-21.29 0.84,-31.72 0,-5.8 3.79,-10.01 8.75,-10.86 2.53,-0.84 5.37,-1.26 7.9,-1.26l24.56 0c0,0 0,0 0.42,0 2.11,0 2.53,-0.85 2.53,-2.95l0 -43.63c0,-1.26 0.42,-2.53 0.42,-3.79l-49.22 0c-0.84,0.42 -1.69,0.42 -2.11,0.84 -6.22,1.26 -12.12,1.69 -17.92,3.37 -10.43,3.79 -18.34,10.43 -22.97,19.6 -4.95,9.17 -6.64,19.18 -7.06,28.77 -0.84,13.8 -0.42,27.08 -0.84,40.47 0,2.11 -0.42,2.95 -2.53,2.95 -10.43,-0.42 -20.87,0 -31.3,-0.42 -2.11,0 -2.53,0.84 -2.53,2.53l0 47.95 36.25 0 0 132.15 -44.58 0c-50.9,0 -92.11,-37.1 -97.17,-87.58 -0.42,-3.37 -0.42,-7.06 -0.42,-10.43l0 -66.29c0,-21.71 0.42,-43.31 0,-65.02 -0.85,-45.84 30.46,-86.73 75.46,-96.74 7.06,-1.69 14.54,-2.11 21.71,-2.11 44.79,-0.42 89.37,-0.42 134.05,-0.42 49.64,0 89.69,35.41 96.74,84.2 0.32,4.64 0.74,9.59 0.74,14.23z"/>
</svg>
