<svg width="588" height="252" viewBox="0 0 588 252" fill="none" xmlns="http://www.w3.org/2000/svg">
<g clip-path="url(#clip0_154_118)">
<path d="M512.955 225.34C514.941 228.516 515.979 232.044 516.442 235.704C516.84 238.88 516.972 242.099 517.325 245.296C517.502 246.906 516.729 248.141 516.023 249.42C514.941 251.405 512.778 251.625 511.013 251.824C507.9 252.198 504.7 251.824 501.654 250.92C497.681 249.729 493.686 248.56 489.735 247.281C485.917 246.046 482.12 244.723 478.302 243.422C473.689 241.857 469.12 240.247 464.485 238.769C461.086 237.689 457.576 236.939 454.221 235.748C446.562 233.036 438.969 230.147 431.31 227.369C429.743 226.796 428.375 225.473 426.477 225.936C425.859 226.09 425.218 226.244 424.578 226.244C421.091 226.244 417.626 226.156 414.138 226.09C409.945 226.002 405.707 226.156 401.557 225.759C395.487 225.164 389.462 224.26 383.436 223.334C377.145 222.363 370.855 221.437 364.763 219.453C360.26 217.997 355.647 216.895 351.167 215.351C346.863 213.874 342.669 212.021 338.453 210.301C337.46 209.904 336.511 209.397 335.54 208.912C331.809 207.082 328.035 205.296 324.349 203.399C322.561 202.473 320.928 201.305 319.206 200.312C316.359 198.68 313.445 197.203 310.642 195.483C308.259 194.05 306.029 192.374 303.712 190.83C303.182 190.477 302.52 190.301 302.056 189.882C299.408 187.589 296.759 185.295 294.154 182.936C292.433 181.348 290.711 179.739 289.21 177.974C287.665 176.166 286.407 174.116 284.973 172.219C283.692 170.521 282.059 169.044 281.044 167.214C278.704 162.958 276.077 158.812 274.731 154.049C274.047 151.69 273.076 149.705 270.228 148.999C267.182 148.25 264.335 146.64 261.289 145.846C255.308 144.28 249.282 142.979 243.234 141.678C239.681 140.929 236.083 140.355 232.507 139.782C229.263 139.253 225.996 138.856 222.751 138.349C219.198 137.775 215.644 137.136 212.113 136.496C208.184 135.813 204.277 135.107 200.348 134.401C200.127 134.357 199.929 134.291 199.708 134.269C196.574 133.938 193.44 133.674 190.327 133.233C186.73 132.726 183.154 132.086 179.556 131.513C176.643 131.05 173.729 130.697 170.838 130.168C167.615 129.572 164.415 128.778 161.192 128.161C159.007 127.764 156.778 127.61 154.593 127.213C148.258 126.088 142.056 124.302 135.633 123.42C132.631 123.001 129.607 122.362 126.583 121.832C121.396 120.928 116.209 120.002 111.045 119.032C106.829 118.238 102.635 117.356 98.4193 116.54C96.1239 116.099 93.7842 115.768 91.4887 115.239C85.3306 113.828 79.327 111.755 72.9923 111.005C69.5712 110.586 66.2383 109.396 62.9054 108.447C58.0495 107.08 53.2378 105.581 48.382 104.214C43.1509 102.736 37.8977 101.325 32.6666 99.8915C29.2234 98.9433 25.7581 97.951 22.3148 96.9808C21.2333 96.672 20.1518 96.3854 19.0703 96.0767C16.8851 95.4372 14.7 94.8197 12.559 94.092C10.3959 93.3423 8.25494 92.5485 6.15809 91.6223C3.81845 90.5859 1.76575 89.0864 0.0441284 86.9254C0.48557 86.6829 0.706291 86.5285 0.971155 86.4403C3.81845 85.3378 6.64368 86.4403 9.35854 86.8813C13.3536 87.5429 17.2383 88.7777 21.1671 89.8582C25.1401 90.9387 29.091 92.1516 33.0419 93.2762C36.1761 94.1803 39.3324 95.0623 42.4887 95.9443C45.4905 96.7823 48.4923 97.5982 51.5162 98.4361C54.0103 99.1197 56.4603 99.8915 58.9766 100.421C59.9698 100.641 61.1175 100.112 62.0887 100.31C64.0531 100.729 65.9293 101.501 67.8716 102.008C70.8513 102.802 73.809 103.596 76.8329 104.236C80.254 104.963 83.7414 105.492 87.1626 106.22C90.2085 106.86 93.2103 107.72 96.2563 108.403C98.927 108.999 101.62 109.462 104.291 110.057C109.279 111.16 114.245 112.417 119.277 113.431C124.597 114.489 129.96 115.305 135.28 116.32C139.01 117.025 142.718 117.885 146.448 118.635C151.701 119.671 156.954 120.686 162.208 121.7C164.304 122.097 166.379 122.582 168.476 122.935C171.677 123.464 174.899 123.905 178.122 124.412C181.587 124.964 185.03 125.581 188.495 126.066C191.277 126.463 194.058 126.684 196.839 127.103C201.871 127.874 206.882 128.778 211.914 129.594C216.946 130.41 221.979 131.16 226.989 131.998C231.337 132.726 235.641 133.586 239.99 134.379C243.168 134.953 246.368 135.46 249.525 136.121C253.586 137.003 257.625 137.93 261.62 139.01C263.827 139.606 265.946 140.576 268.087 141.392C269.368 141.877 270.67 142.362 272.171 142.935C272.082 136.496 272.987 130.763 275.349 125.118C277.711 119.473 281 114.445 284.465 109.55C287.202 105.691 290.491 102.229 293.647 98.6787C295.037 97.1351 296.737 95.8561 298.194 94.3787C299.562 92.9895 300.555 91.2475 302.652 90.3654C302.056 89.8803 301.725 89.4613 301.306 89.2629C298.922 88.1603 296.538 87.0357 294.11 86.0434C289.718 84.2573 285.304 82.5593 280.867 80.8614C277.865 79.7147 274.841 78.6563 271.84 77.5978C270.228 77.0245 268.573 76.5614 266.984 75.944C264.092 74.7973 261.245 73.5184 258.332 72.4158C255.727 71.4456 253.034 70.6738 250.408 69.7917C248.796 69.2405 247.207 68.5569 245.596 68.0277C242.307 66.9251 238.996 65.8666 235.708 64.7641C233.169 63.9261 230.675 62.978 228.137 62.1621C225.532 61.3241 222.862 60.5964 220.257 59.7585C216.284 58.5016 212.311 57.2226 208.338 55.9437C204.52 54.7308 200.723 53.496 196.905 52.3052C194.521 51.5555 192.137 50.8719 189.732 50.1663C187.966 49.637 186.156 49.2181 184.39 48.6447C182.139 47.917 179.932 47.035 177.68 46.2853C172.714 44.6535 167.748 43.0438 162.782 41.4561C159.758 40.5079 156.712 39.6479 153.688 38.6776C150.951 37.7956 148.324 36.693 145.477 36.1197C143.204 35.6566 141.041 34.5761 138.789 33.9146C135.478 32.9223 132.123 32.1064 128.813 31.1362C126.959 30.6069 125.171 29.8572 123.317 29.3059C120.712 28.5341 118.086 27.9167 115.481 27.1449C111.994 26.1306 108.55 25.006 105.063 23.9916C101.708 23.0214 98.3311 22.1614 94.9761 21.1911C91.9081 20.3091 88.8621 19.3609 85.8162 18.3906C80.563 16.7147 75.332 15.0389 70.0788 13.3189C68.6662 12.8558 67.2757 12.2604 65.863 11.7973C62.8612 10.8271 59.5946 10.364 56.8797 8.88659C53.1054 6.85789 48.8896 5.0938 46.8369 0.815891C46.7486 0.661533 46.4617 0.595379 46.2851 0.485124C46.3072 0.308715 46.3513 0.132306 46.3734 -0.0661536C47.1901 -0.0661536 48.0288 -0.220511 48.8013 -0.0441025C50.9423 0.463073 53.0612 1.05845 55.1802 1.69793C58.8883 2.84459 62.5743 4.03535 66.2603 5.22611C69.3284 6.21841 72.3743 7.27686 75.4423 8.24711C78.5103 9.21736 81.5784 10.1215 84.6464 11.0697C88.4648 12.2384 92.2833 13.4512 96.1239 14.5758C99.3243 15.524 102.547 16.3178 105.747 17.266C108.573 18.0819 111.376 19.0522 114.223 19.868C118.218 21.0368 122.235 22.0952 126.23 23.286C130.137 24.4326 134.022 25.6675 137.906 26.8362C142.895 28.3577 147.861 29.8351 152.849 31.3787C154.836 31.9961 156.778 32.7459 158.764 33.3633C162.583 34.532 166.468 35.5684 170.264 36.7812C174.215 38.0382 178.1 39.4494 182.05 40.7063C186.818 42.2279 191.63 43.6391 196.419 45.1166C199.995 46.2191 203.527 47.4319 207.08 48.5345C211.186 49.8134 215.313 51.0483 219.418 52.3052C222.067 53.1211 224.716 53.937 227.364 54.797C229.792 55.5908 232.22 56.3847 234.626 57.2226C237.407 58.1929 240.188 59.1631 242.969 60.1775C246.81 61.5667 250.628 63.0221 254.469 64.3892C259.038 65.999 263.651 67.4984 268.198 69.1523C272.082 70.5856 275.901 72.1733 279.741 73.6948C284.575 75.6132 289.409 77.5096 294.221 79.5163C299.187 81.5891 304.109 83.7501 309.053 85.889C309.428 85.6906 309.759 85.5362 310.068 85.3598C313.181 83.5957 316.249 81.7214 319.449 80.1117C321.899 78.8768 324.482 77.9286 327.02 76.8701C328.079 76.4291 329.139 75.9219 330.242 75.5912C335.186 74.0696 340.131 72.4599 345.141 71.1589C348.827 70.2107 352.601 69.6153 356.354 68.9759C358.804 68.5569 361.298 68.2923 363.77 68.0497C367.345 67.6969 370.921 67.2559 374.519 67.1677C380.567 67.0354 386.636 67.1015 392.684 67.1677C397.165 67.2118 401.645 67.3441 406.126 67.5425C410.121 67.7189 414.138 68.0056 418.133 68.2702C422.305 68.5569 426.477 68.7774 430.648 69.2405C434.003 69.6153 437.314 70.4753 440.669 70.8722C444.2 71.3133 447.71 71.8425 451.153 72.7686C456.936 74.3343 462.785 75.7235 468.568 77.3112C472.629 78.4358 476.668 79.6927 480.663 81.0158C484.614 82.3168 488.521 83.728 492.406 85.1834C494.878 86.1096 497.262 87.2562 499.668 88.3147C502.868 89.7039 506.113 90.9608 509.225 92.5044C512.69 94.2244 516.067 96.1208 519.356 98.1495C522.159 99.8915 524.786 101.898 527.5 103.795C531.01 106.242 533.968 109.263 536.594 112.637C537.345 113.607 538.514 114.467 539.662 114.864C542.885 115.989 546.24 116.739 549.484 117.863C554.097 119.451 558.6 121.369 563.235 122.935C568.554 124.721 572.329 128.337 575.64 132.593C576.964 134.291 578.112 136.121 579.237 137.93C580.297 139.65 581.445 141.348 582.195 143.2C583.74 147.081 585.064 151.05 586.477 154.975C587.095 156.695 586.963 158.305 586.058 159.959C585.528 160.929 585.153 162.12 585.153 163.2C585.153 164.303 585.705 165.383 586.08 166.464C587.581 170.72 587.757 175.196 588.132 179.628C588.199 180.4 587.801 181.216 587.934 181.944C588.773 186.574 586.411 189.794 583.056 192.308C581.996 193.102 581.555 193.609 581.842 194.822C581.93 195.218 581.754 195.681 581.687 196.1C581.18 200.136 579.613 203.818 577.494 207.214C576.258 209.199 574.713 211.382 572.77 212.484C569.217 214.491 565.354 216.145 561.425 217.27C556.393 218.725 551.184 219.585 546.019 220.555C540.854 221.525 535.667 222.474 530.458 223.113C527.169 223.532 523.836 223.907 520.482 223.598C517.855 223.356 515.206 223.289 512.204 223.135C512.602 223.995 512.8 224.635 513.154 225.164L512.955 225.34ZM516.332 171.668C517.436 168.492 519.201 165.714 522.071 163.399C521.386 162.803 520.857 162.186 520.195 161.833C516.972 160.069 515.714 157.114 515.228 153.718C514.897 151.381 514.699 149.021 515.913 146.816C516.751 145.273 517.811 143.972 519.312 143.001C520.57 142.186 521.762 141.237 523.196 140.179C521.276 135.548 519.621 130.697 520.018 125.228C517.281 121.921 514.301 118.613 510.196 116.43C507.304 114.886 504.612 112.99 501.786 111.336C500.904 110.829 499.91 110.41 498.895 110.233C493.907 109.351 489.603 106.661 484.945 104.919C480.928 103.42 476.977 101.744 472.74 100.884C469.782 100.288 466.913 99.2079 463.977 98.5464C458.26 97.2895 452.544 96.1428 446.805 95.0402C443.803 94.4669 440.779 94.1362 437.777 93.5628C433.275 92.7028 428.794 91.7326 424.291 90.8285C421.51 90.2552 418.729 89.6157 415.926 89.1526C413.344 88.7336 410.761 88.4249 408.157 88.2706C403.61 87.9839 399.063 87.7634 394.494 87.6972C389.771 87.609 385.025 87.3885 380.346 87.8736C375.534 88.3588 370.789 89.5716 366.021 90.5198C363.372 91.049 360.702 91.5562 358.097 92.2618C354.477 93.2321 350.902 94.3787 347.304 95.4151C346.156 95.7459 344.986 96.0987 343.795 96.3192C337.901 97.3997 332.45 99.8033 326.865 101.766C324.636 102.538 322.385 103.331 320.155 104.081C316.536 105.272 313.821 107.698 311.128 110.278C308.7 112.615 306.956 115.349 306.228 118.525C305.367 122.207 305.124 126 304.97 129.815C304.771 134.666 305.191 139.473 306.051 144.214C306.515 146.772 307.442 149.286 308.325 151.756C309.075 153.895 310.068 155.945 310.885 158.062C311.305 159.165 311.878 160.025 312.85 160.819C314.35 162.076 315.586 163.685 316.889 165.207C318.39 166.949 319.736 168.845 321.325 170.455C323.599 172.748 326.093 174.843 328.432 177.07C333.354 181.789 339.557 184.656 345.009 188.625C349.864 192.153 355.427 194.667 361.121 196.85C365.138 198.394 369.222 199.629 373.305 200.841C378.139 202.275 383.083 203.399 388.204 203.576C391.095 203.664 393.986 204.326 396.878 204.392C400.63 204.48 404.404 204.149 408.157 204.127C411.291 204.127 414.425 204.348 417.537 204.37C422.768 204.414 428.044 204.722 433.231 204.303C438.727 203.885 444.2 202.892 449.63 201.9C454.861 200.93 460.026 199.607 465.235 198.482C467.818 197.931 470.444 197.534 473.027 197.005C476.691 196.233 480.332 195.461 483.952 194.579C486.667 193.917 489.382 193.212 492.031 192.308C494.922 191.337 497.725 190.014 500.617 189.022C504.126 187.809 507.238 185.913 510.284 183.884C512.359 182.495 514.279 180.907 516.332 179.364C514.787 176.563 515.515 174.116 516.332 171.712V171.668ZM517.745 182.098C516.376 183.333 514.897 184.788 513.286 186.089C511.542 187.478 509.732 188.846 507.834 190.014C503.729 192.506 499.491 194.755 494.944 196.387C492.384 197.313 489.801 198.195 487.197 198.989C484.107 199.937 481.017 200.863 477.882 201.657C475.521 202.253 473.115 202.583 470.731 203.091C468.016 203.664 465.301 204.281 462.586 204.855C458.812 205.649 455.038 206.487 451.241 207.214C447.864 207.854 444.443 208.361 441.044 208.978C436.674 209.772 432.259 209.882 427.823 209.882C425.086 209.882 422.349 210.147 419.612 210.191C417.493 210.213 415.352 210.037 413.233 210.037C409.547 210.037 405.861 210.103 402.175 210.103C400.122 210.103 398.048 210.015 395.995 209.882C391.404 209.574 386.791 209.353 382.244 208.802C379.264 208.427 376.351 207.545 373.415 206.861C371.12 206.332 368.802 205.759 366.529 205.141C365.712 204.921 364.984 204.392 364.189 204.149C360.128 203.002 356.177 201.547 352.425 199.629C347.966 197.335 343.508 195.042 339.181 192.55C336.665 191.095 334.392 189.221 331.964 187.589C329.911 186.2 327.726 184.965 325.762 183.443C323.047 181.348 320.376 179.209 318.125 176.519C316.403 174.446 314.086 172.837 312.364 170.764C311.172 169.308 310.532 167.39 309.649 165.67C309.141 164.722 308.634 163.774 308.126 162.847C307.199 161.172 306.206 159.54 305.345 157.842C304.55 156.32 303.844 154.733 303.182 153.145C301.703 149.551 300.909 145.758 300.555 141.921C300.246 138.437 300.092 134.909 300.07 131.403C300.07 129.197 300.313 126.97 300.555 124.787C300.842 122.317 300.997 119.782 301.725 117.444C302.498 114.974 303.138 112.35 305.389 110.564C306.316 109.837 306.956 108.712 307.751 107.786C309.715 105.492 311.812 103.331 314.483 101.81C316.337 100.751 318.103 99.4505 320.067 98.6125C322.561 97.5541 325.232 96.8705 327.814 96.0105C330.882 94.9741 333.906 93.8274 336.974 92.8351C339.292 92.0854 341.632 91.468 343.971 90.8285C346.752 90.0788 349.533 89.3731 352.314 88.6454C355.228 87.8957 358.163 87.1239 361.077 86.3742C363.593 85.7347 366.087 85.0511 368.626 84.566C372.554 83.8162 376.505 83.1327 380.456 82.5373C385.4 81.7875 390.367 81.986 395.355 82.3388C399.24 82.6034 403.146 82.405 407.031 82.6034C410.254 82.7798 413.454 83.1327 416.654 83.5737C421.025 84.2132 425.395 84.9408 429.721 85.7567C432.613 86.308 435.46 87.1239 438.351 87.7413C440.845 88.2706 443.362 88.6895 445.878 89.1747C449.718 89.9464 453.559 90.7182 457.4 91.5121C459.651 91.9752 461.902 92.3941 464.154 92.8792C467.222 93.5408 470.312 94.1141 473.336 94.9741C476.337 95.8341 479.295 96.9146 482.231 97.9951C485.21 99.0756 488.19 100.2 491.104 101.457C495.077 103.155 499.05 104.853 502.89 106.771C505.583 108.117 508.055 109.859 510.637 111.38C514.125 113.453 517.458 115.702 520.172 118.789C520.967 119.715 521.784 120.62 522.578 121.524C524.675 120.421 526.882 119.252 529.443 117.907C528.185 116.628 527.081 115.217 525.713 114.159C521.673 111.027 517.7 107.764 513.374 105.074C509.49 102.67 505.097 101.06 501.036 98.9212C499.16 97.951 497.151 97.4218 495.341 96.0546C493.223 94.4669 490.243 94.048 487.616 93.188C485.475 92.4823 483.312 91.8428 481.149 91.1593C476.183 89.5936 471.217 88.006 466.25 86.4403C463.403 85.5362 460.556 84.566 457.664 83.7721C453.095 82.5152 448.549 81.126 443.891 80.266C438.903 79.3399 433.827 78.8768 428.794 78.3035C425.086 77.8845 421.29 77.8845 417.626 77.2009C411.997 76.1645 406.347 76.4071 400.696 76.1866C398.29 76.0984 395.885 75.8337 393.479 75.7896C390.212 75.7235 386.945 75.8337 383.679 75.8337C381.052 75.8337 378.426 75.7676 375.799 75.8117C373.724 75.8558 371.65 75.9881 369.597 76.1645C367.169 76.385 364.741 76.6496 362.313 76.9584C358.274 77.4876 354.213 77.664 350.284 78.9429C347.834 79.7368 345.251 80.0676 342.779 80.8173C339.822 81.7214 336.996 83.0665 334.017 83.8162C329.713 84.8967 325.916 87.146 321.833 88.7557C320.067 89.4393 318.478 90.63 316.822 91.6444C314.748 92.9454 312.629 94.1803 310.664 95.6577C308.303 97.4218 306.007 99.2741 303.866 101.281C301.394 103.596 299.01 106 296.759 108.536C295.192 110.3 293.956 112.328 292.565 114.225C292.345 114.511 292.146 114.842 291.859 115.041C289.784 116.496 289.232 118.944 287.974 120.95C287.113 122.295 286.253 123.663 285.502 125.074C284.796 126.397 284.068 127.72 283.582 129.131C281.573 134.953 280.713 140.929 282.214 146.971C282.898 149.727 284.244 152.307 285.105 155.041C286.253 158.702 288.813 161.524 290.513 164.854C291.197 166.177 292.278 167.28 293.183 168.492C296.075 172.285 299.231 175.835 302.917 178.834C306.029 181.37 309.318 183.752 312.717 185.891C318.147 189.309 323.709 192.506 329.271 195.681C332.648 197.6 336.069 199.452 339.623 200.996C345.295 203.466 351.034 205.803 356.861 207.898C361.298 209.485 365.867 210.632 370.414 211.867C373.504 212.705 376.616 213.521 379.75 214.072C383.789 214.756 387.872 215.131 391.934 215.704C394.053 215.991 396.15 216.454 398.268 216.674C401.601 217.049 404.912 217.424 408.267 217.556C412.35 217.711 416.434 217.556 420.517 217.666C426.432 217.843 432.281 217.534 438.153 216.895C441.552 216.52 445.017 216.63 448.394 216.167C452.102 215.638 455.877 215.439 459.518 214.271C462.851 213.19 466.339 212.617 469.76 211.779C472.431 211.139 475.057 210.323 477.728 209.772C480.84 209.111 483.776 208.096 486.623 206.663C489.647 205.163 492.693 203.686 495.783 202.363C498.564 201.172 501.433 200.18 504.259 199.077C505.583 198.548 506.929 198.019 508.209 197.401C511.057 196.034 513.86 194.601 516.685 193.19C518.495 192.308 520.349 191.514 522.093 190.544C524.145 189.419 526.11 188.162 528.207 186.905C524.521 185.229 521.276 183.752 517.7 182.12L517.745 182.098ZM543.216 176.277C541.914 177.092 540.104 177.578 538.559 177.467C534.012 177.181 529.509 176.519 524.984 176.012C524.94 176.012 524.874 176.056 524.388 176.343C528.648 177.71 532.599 178.967 536.55 180.224C536.881 180.334 537.345 180.488 537.609 180.334C540.104 179.033 542.576 180.753 545.092 180.334C546.858 180.047 548.712 180.18 550.522 180.091C551.714 180.025 552.927 179.694 554.075 179.849C554.892 179.959 556.04 180.532 556.304 181.194C557.143 183.289 557.496 185.494 556.194 187.831C552.133 188.03 548.005 188.206 543.79 188.405C542.885 191.911 541.98 195.417 541.031 199.077C541.936 200.665 542.421 202.672 544.496 203.708C545.732 204.326 545.732 207.92 544.739 209.53C540.037 208.427 536.859 205.582 535.204 201.04C535.115 200.775 535.005 200.378 534.806 200.29C532.202 199.099 533.173 197.005 533.46 195.086C533.504 194.822 533.548 194.557 533.659 193.962C532.643 194.38 531.782 194.579 531.098 195.02C529.288 196.211 527.589 197.534 525.779 198.725C524.521 199.54 523.174 200.268 521.806 200.93C518.473 202.539 515.162 204.215 511.741 205.671C507.327 207.545 502.824 209.221 498.409 211.051C497.019 211.624 495.739 212.44 493.951 213.389C497.24 214.645 500.197 215.77 503.221 216.917C503.751 216.52 504.259 216.255 504.656 215.836C506.267 214.138 508.232 213.984 510.395 214.293C515.493 215.02 520.592 215.461 525.779 215.197C529.2 215.02 532.643 214.998 536.02 214.403C539.728 213.741 543.436 213.058 547.122 212.374C549.771 211.889 552.486 211.624 555.068 210.897C558.71 209.882 562.33 208.714 565.84 207.302C568.51 206.244 569.857 203.818 571.159 201.327C572.704 198.372 573.168 195.24 573.3 191.999C573.322 191.293 572.726 190.566 572.439 189.838C571.645 187.787 570.762 185.758 570.077 183.686C569.15 180.863 567.164 178.768 565.442 176.475C565.177 176.122 564.692 175.88 564.559 175.527C563.478 172.065 560.189 171.888 557.541 170.896C555.444 170.102 553.192 169.705 551.007 169.176C549.418 168.801 547.829 168.537 545.975 168.162C546.725 171.734 545.975 174.49 543.194 176.232L543.216 176.277ZM548.999 152.131C548.645 153.365 548.447 154.622 548.027 155.835C547.145 158.371 544.982 159.121 542.62 159.496C542.09 159.584 541.538 159.562 540.655 159.606C541.869 160.73 543.039 160.444 544.121 160.62C547.012 161.105 549.904 161.723 552.773 162.296C555.002 162.737 557.32 162.936 559.461 163.641C562.948 164.788 566.855 165.163 569.57 168.029C571.093 169.639 572.395 171.469 573.786 173.211C575.242 175.086 576.324 177.181 577.052 179.43C577.45 180.643 578.332 181.018 579.613 180.863C580.849 180.709 581.136 180.025 581.114 178.967C581.069 177.092 581.334 175.218 580.694 173.388C580.385 172.55 580.231 171.58 580.319 170.698C580.606 167.831 578.134 166.508 576.92 164.523C575.684 162.473 573.852 160.753 572.285 158.9C571.909 158.459 571.534 157.996 571.203 157.533C569.106 154.666 566.237 152.969 562.904 151.888C559.439 150.763 555.995 149.551 552.53 148.426C551.868 148.205 551.14 148.228 550.257 148.117C549.815 149.551 549.374 150.83 548.999 152.131ZM482.054 235.175C482.142 234.006 482.164 233.19 482.253 232.352C482.297 232.022 482.363 231.647 482.54 231.382C483.908 229.376 485.497 227.942 488.102 227.347C492.56 226.355 496.997 226.509 501.455 226.641C502.14 226.641 502.802 227.038 503.751 227.347C502.824 225.428 501.08 224.899 499.645 224.348C495.143 222.672 490.53 221.305 485.961 219.805C485.828 219.761 485.63 219.805 485.541 219.717C482.981 217.115 480.266 218.99 477.662 219.541C474.174 220.313 470.753 221.393 467.266 222.165C466.14 222.407 464.86 222.275 463.668 222.077C461.792 221.768 460.092 222.01 458.26 222.606C455.832 223.4 453.228 223.664 450.712 224.149C450.072 224.282 449.432 224.458 448.791 224.59C448.791 224.701 448.791 224.811 448.813 224.899C459.783 228.273 470.775 231.647 482.054 235.109V235.175ZM573.41 145.692C571.38 141.546 568.621 137.841 565.773 134.247C564.383 132.505 562.109 131.645 560.013 130.763C557.783 129.815 555.488 128.955 553.148 128.029C551.78 132.681 548.646 135.548 543.878 137.643C554.495 140.157 564.736 142.119 573.94 147.764C573.763 147.081 573.697 146.331 573.388 145.714L573.41 145.692ZM537.609 122.891C535.932 123.53 534.078 124.236 532.224 124.964C531.032 125.427 529.862 125.934 528.714 126.485C528.096 126.794 527.633 129.44 527.942 130.543C528.317 131.91 529.045 132.77 530.635 132.792C532.996 132.836 535.336 133.189 537.698 133.233C540.876 133.277 543.547 131.755 545.953 129.925C546.836 129.264 547.122 127.852 547.807 126.551C544.606 124.478 541.097 123.971 537.632 122.869L537.609 122.891ZM489.007 237.468C495.584 240.203 502.118 242.43 509.225 243.069V237.027C502.978 234.513 496.6 234.205 489.934 234.866C489.669 235.638 489.36 236.498 489.029 237.468H489.007ZM524.101 169.838C528.052 171.117 532.003 172.351 536.197 172.44C540.059 172.506 540.766 171.999 542.024 167.897C538.89 167.302 535.777 166.684 532.665 166.111C530.37 165.692 528.096 165.56 525.757 166.045C524.101 166.398 523.152 167.125 522.733 168.845C523.174 169.176 523.572 169.683 524.079 169.838H524.101ZM529.818 144.589C528.427 145.515 527.191 146.331 525.955 147.147C527.236 150.587 528.273 151.182 532.4 151.226C534.917 151.249 537.433 151.403 539.949 151.513C541.075 151.557 541.914 151.425 542.046 149.992C542.156 148.845 542.598 147.742 542.951 146.331C538.272 145.714 533.968 145.14 529.818 144.589Z" fill="black"/>
<path d="M407.561 98.8992C412.13 100.2 416.699 101.589 421.157 103.265C425.042 104.721 428.772 106.529 432.524 108.293C438.263 111.005 443.318 114.533 446.739 120.068C447.489 121.303 448.129 122.604 448.902 123.817C450.866 126.904 451.793 130.256 451.572 133.872C451.44 135.923 450.734 137.974 449.211 139.341C447.004 141.303 444.245 142.627 441.397 143.068C436.188 143.861 430.935 144.038 425.726 142.582C424.247 142.163 422.481 141.414 421.378 143.531C421.201 143.861 420.451 143.883 420.009 144.126C419.48 144.413 418.906 144.699 418.509 145.14C416.081 147.875 413.719 150.697 411.269 153.432C409.636 155.24 407.936 157.048 406.104 158.68C404.294 160.289 402.263 161.679 400.321 163.156C397.297 165.427 394.406 167.897 391.205 169.926C386.747 172.748 382.001 175.108 376.991 176.784C373.768 177.864 370.436 178.746 367.059 179.209C363.395 179.716 359.841 180.753 356.045 180.797C351.785 180.841 347.613 181.062 343.419 180.113C337.526 178.768 335.981 174.799 334.59 170.102C334.215 168.867 335.253 167.39 336.467 166.883C339.91 165.449 343.375 164.038 346.796 162.517C347.878 162.031 348.783 161.194 349.732 160.444C350.747 159.672 351.829 158.922 352.668 157.974C353.904 156.629 355.095 155.196 356.022 153.63C356.994 151.976 358.009 150.168 358.34 148.316C359.046 144.347 358.826 140.333 357.016 136.607C356.398 135.328 355.736 134.049 354.919 132.88C354.124 131.733 353.308 130.322 352.16 129.705C349.6 128.359 346.863 127.345 344.126 126.397C340.749 125.206 337.349 124.324 334.59 121.656C331.611 118.811 331.213 116.43 333.928 113.299C335.584 111.402 337.283 109.66 339.358 108.139C343.154 105.382 347.348 103.596 351.696 102.119C354.146 101.303 356.729 100.818 359.245 100.178C364.675 98.7889 370.104 97.4218 375.534 96.0105C380.567 94.7095 385.687 94.1802 390.874 94.7315C394.604 95.1284 398.335 95.5915 400.454 99.7371C399.747 100.134 398.953 100.575 398.202 101.016C395.796 102.449 393.037 101.81 390.455 102.295C387.453 102.868 384.363 102.89 381.361 103.42C378.095 103.993 374.894 104.831 371.672 105.603C369.332 106.176 367.014 106.97 364.653 107.411C358.892 108.491 353.065 109.418 347.944 112.505C345.56 113.938 342.647 114.886 341.565 117.995C342.139 118.216 342.669 118.481 343.221 118.613C348.275 119.87 352.888 122.229 357.656 124.28C360.613 125.559 363.571 126.97 366.661 127.83C370.811 128.999 375.049 129.837 379.286 130.565C382.663 131.138 386.04 131.711 389.528 131.402C392.441 131.16 395.399 131.535 398.335 131.667C400.983 131.799 403.61 131.888 406.236 132.174C410.276 132.615 414.337 133.078 418.332 133.806C422.989 134.644 427.492 136.232 432.281 136.298C435.372 136.342 438.462 136.474 441.419 135.063C443.715 133.96 444.929 132.02 443.958 129.771C442.876 127.301 441.596 124.897 440.25 122.56C438.528 119.539 435.901 117.202 433.032 115.526C429.324 113.387 425.196 111.998 421.223 110.322C418.553 109.197 415.904 108.028 413.211 106.992C410.474 105.933 407.605 105.184 404.934 103.971C403.257 103.199 401.314 102.273 401.381 99.6489C403.455 98.7448 405.552 98.3479 407.561 98.9212V98.8992ZM364.675 171.536C366.507 171.271 368.317 170.808 370.127 170.367C371.274 170.102 372.488 169.882 373.548 169.352C377.521 167.39 381.935 166.464 385.555 163.707C387.541 162.208 389.925 161.238 391.978 159.826C394.913 157.798 397.959 155.835 400.431 153.321C401.932 151.8 403.853 150.675 405.067 148.977C406.325 147.191 407.759 145.625 409.282 144.104C410.386 143.001 411.225 141.59 412.372 140.047C409.702 139.826 407.186 139.583 404.669 139.451C404.228 139.429 403.676 139.694 403.345 140.002C400.321 142.869 397.253 145.692 394.362 148.669C392.309 150.785 390.631 153.255 388.535 155.284C386.482 157.29 384.164 159.01 381.869 160.753C380.037 162.142 378.117 163.399 376.196 164.656C374.055 166.067 372.025 167.522 369.486 168.404C367.588 169.066 365.8 169.904 363.792 169.926C362.6 169.926 361.408 169.661 360.172 169.507C358.804 170.477 357.303 171.536 355.78 172.616C354.632 172.307 353.484 172.021 352.226 171.69C352.116 170.72 352.05 169.904 351.961 169.198C349.555 170.257 347.127 171.337 344.677 172.418C344.677 172.528 344.677 172.638 344.677 172.748C345.913 172.881 347.149 173.145 348.386 173.145C350.858 173.145 353.352 173.432 355.736 172.572C358.781 172.947 361.695 171.954 364.653 171.513L364.675 171.536ZM377.697 137.709C373.614 146.508 369.641 155.438 364.52 163.994C367.147 162.384 369.795 160.797 372.378 159.121C374.254 157.908 376.042 156.585 377.896 155.35C381.251 153.101 384.253 150.433 387.012 147.5C388.91 145.493 390.94 143.597 392.905 141.634C393.744 140.796 394.538 139.892 395.509 138.834C389.462 138.613 383.613 139.076 377.697 137.687V137.709ZM366.22 145.383C367.677 142.693 369.288 139.672 371.009 136.496C368.515 135.747 366.131 135.041 363.704 134.313C364.631 138.371 365.447 141.965 366.22 145.383Z" fill="black"/>
<path d="M453.537 177.511C456.186 177.181 458.724 177.048 461.152 176.497C463.447 175.99 465.632 175.108 467.862 174.292C469.848 173.564 471.835 172.77 473.777 171.932C478.015 170.102 482.164 168.073 486.005 165.494C488.013 164.126 488.676 161.304 487.749 158.812C487.44 157.996 487.109 157.202 486.667 156.1C487.329 155.482 488.058 154.843 488.742 154.137C492.075 150.675 495.474 147.257 498.696 143.707C500.595 141.612 501.786 139.032 502.316 136.232C502.493 135.306 502.118 134.291 501.963 133.189C500.396 133.255 499.292 133.74 498.034 134.269C495.121 135.482 493.907 138.238 491.7 140.047C491.104 140.532 490.53 141.061 489.603 141.855C490 139.539 490.287 137.665 490.662 135.791C491.346 132.24 491.655 128.734 491.126 125.096C490.618 121.722 490.463 118.282 490.177 114.864C490 112.659 489.272 112.086 487.241 112.946C485.961 113.497 484.857 114.511 483.754 115.415C483.511 115.614 483.533 116.209 483.533 116.606C483.511 117.422 483.533 118.238 483.533 119.054C483.356 119.098 483.18 119.142 483.003 119.208C482.164 117.753 481.326 116.32 480.487 114.864C479.979 113.982 479.56 113.056 478.942 112.262C478.258 111.358 477.353 110.763 476.117 111.446C474.814 112.152 474.395 112.902 474.969 114.269C475.741 116.121 476.713 117.863 477.595 119.671C478.368 121.281 479.317 122.825 479.803 124.523C480.575 127.235 481.922 129.815 481.789 132.77C481.679 135.173 481.855 137.599 481.635 140.002C481.326 143.376 480.487 146.64 478.302 149.727C478.103 148.029 478.081 146.508 477.706 145.052C477.309 143.531 476.779 141.987 475.94 140.686C474.991 139.187 473.093 139.451 472.21 140.995C470.819 143.442 470.312 146.199 469.804 148.911C469.296 151.623 469.363 154.402 466.648 156.232C465.434 157.048 464.794 158.658 463.646 159.606C461.858 161.083 459.805 162.23 457.929 163.619C456.561 164.634 455.303 165.692 454.243 167.191C452.72 169.352 450.138 168.845 447.291 168.625C448.107 168.007 448.504 167.655 448.968 167.368C452.853 164.986 455.214 161.37 456.605 157.224C457.135 155.659 456.539 153.696 456.45 151.91C454.861 151.888 453.934 152.329 452.941 153.277C450.094 156.034 447.114 158.702 444.002 161.127C442.324 162.45 440.227 163.244 438.329 164.259C436.188 165.383 434.047 166.486 431.906 167.61C431.575 167.787 431.134 167.919 431.001 168.206C430.008 170.389 427.955 170.477 426.057 170.543C421.996 170.676 418.266 172.263 414.425 173.278C412.704 173.741 411.269 175.262 409.547 175.747C407.649 176.276 406.259 177.511 404.603 178.305C402.882 179.121 401.756 180.532 400.961 182.186C400.741 182.671 400.763 183.575 401.072 183.972C402.661 186.023 406.038 187.655 409.172 186.023C412.549 184.281 416.014 182.693 419.59 181.436C422.526 180.4 425.55 179.209 428.794 179.672C431.112 180.003 433.363 180.599 435.659 181.04C440.161 181.877 444.642 182.892 449.189 183.399C450.822 183.575 452.676 182.649 454.265 181.855C456.009 180.995 455.987 180.047 454.618 178.658C454.265 178.305 453.934 177.93 453.537 177.489V177.511Z" fill="black"/>
</g>
<defs>
<clipPath id="clip0_154_118">
<rect width="588" height="252" fill="white"/>
</clipPath>
</defs>
</svg>
