<svg xmlns="http://www.w3.org/2000/svg" viewBox="0 0 589.28 363.15">
  <path fill="#fff"
    d="M11.26 92.07l45.5 0c2.28,0 4.11,-1.83 4.11,-4.11 0,-2.27 -1.83,-4.1 -4.11,-4.1l-45.5 0c-1.42,0 -2.62,-1.2 -2.62,-2.63l0 -76.27c0,-2.27 -1.87,-4.11 -4.12,-4.11 -2.24,0 -4.11,1.84 -4.11,4.11l0 76.27c0,5.97 4.87,10.84 10.85,10.84zm142.28 164.77c0,-3.16 -2.56,-5.72 -5.75,-5.72 -3.2,0 -5.73,2.56 -5.73,5.72 0,3.16 2.59,5.72 5.73,5.72 3.13,0 5.75,-2.59 5.75,-5.72zm226.19 50.79c-2.28,0 -4.11,1.86 -4.11,4.1 0,2.25 1.87,4.11 4.11,4.11l27.53 0c2.28,0 4.11,-1.86 4.11,-4.11 0,-2.24 -1.83,-4.1 -4.11,-4.1l-27.53 0zm38.76 45.99l-45.53 0c-1.39,0 -2.59,-1.2 -2.59,-2.63l0 -69.54c0,-1.43 1.2,-2.63 2.59,-2.63l43.82 0c2.28,0 4.11,-1.83 4.11,-4.1 0,-2.28 -1.83,-4.11 -4.11,-4.11l-43.82 0c-5.98,0 -10.85,4.87 -10.85,10.84l0 69.54c0,5.97 4.87,10.87 10.85,10.87l45.53 0c2.28,0 4.11,-1.86 4.11,-4.11 0,-2.24 -1.83,-4.1 -4.11,-4.1l0 -0.03zm160 -119.33c-0.76,-0.66 -1.74,-1.04 -2.75,-1.04 -1.17,0 -2.28,0.5 -3.07,1.36l-12.94 14.4c-0.73,0.82 -1.11,1.89 -1.05,2.97 0.07,1.1 0.57,2.08 1.36,2.84 0.76,0.7 1.74,1.04 2.76,1.04 1.17,0 2.27,-0.47 3.06,-1.36l12.94 -14.4c0.73,-0.82 1.11,-1.86 1.05,-2.97 -0.06,-1.1 -0.54,-2.08 -1.36,-2.84zm-32.08 -59.03c-2.28,0 -4.12,1.86 -4.12,4.11 0,2.24 1.87,4.1 4.12,4.1l27.52 0c2.28,0 4.12,-1.86 4.12,-4.1 0,-2.25 -1.84,-4.11 -4.12,-4.11l-27.52 0zm38.75 45.99l-45.49 0c-1.42,0 -2.63,-1.2 -2.63,-2.62l0 -69.55c0,-1.42 1.21,-2.63 2.63,-2.63l43.82 0c2.28,0 4.11,-1.86 4.11,-4.1 0,-2.24 -1.83,-4.11 -4.11,-4.11l-43.82 0c-5.98,0 -10.85,4.87 -10.85,10.84l0 69.55c0,5.96 4.87,10.83 10.85,10.83l45.49 0c2.28,0 4.12,-1.83 4.12,-4.11 0,-2.27 -1.84,-4.1 -4.12,-4.1zm-433.96 -94.82c0.41,0 0.86,-0.06 1.3,-0.22l26.96 -8.84c1.04,-0.35 1.9,-1.08 2.4,-2.06 0.51,-0.98 0.57,-2.08 0.25,-3.12 -0.56,-1.71 -2.15,-2.85 -3.92,-2.85 -0.47,0 -0.88,0.07 -1.29,0.19l-26.96 8.85c-1.05,0.35 -1.9,1.07 -2.41,2.05 -0.47,0.98 -0.57,2.08 -0.22,3.16 0.57,1.7 2.12,2.84 3.89,2.84zm182.94 144.59c-2.28,0 -4.11,1.87 -4.11,4.14l0 83.86c0,2.27 1.83,4.1 4.11,4.1 2.28,0 4.15,-1.83 4.15,-4.1l0 -83.86c0,-2.27 -1.87,-4.14 -4.15,-4.14zm-25.94 0.7c-2.28,0 -4.12,1.83 -4.12,4.1l0 71.35 -1.17 -1.54 -51.66 -68.01c-1.74,-2.27 -3.77,-3.47 -5.83,-3.47 -0.75,0 -1.35,0.16 -1.64,0.25 -0.54,0.19 -1.55,0.64 -2.44,1.71 -1.04,1.29 -1.58,3.09 -1.58,5.37l0 76.84c0,2.28 1.84,4.11 4.11,4.11 2.28,0 4.12,-1.83 4.12,-4.11l0 -71.31 1.17 1.54 51.66 68c1.71,2.28 3.74,3.51 5.83,3.51 0.57,0 1.1,-0.1 1.64,-0.25 0.51,-0.19 1.55,-0.64 2.44,-1.71 1.04,-1.29 1.58,-3.09 1.58,-5.37l0 -76.84c0,-2.28 -1.83,-4.11 -4.11,-4.11l0 -0.06zm-213.79 -0.7c-2.28,0 -4.11,1.87 -4.11,4.14l0 83.86c0,2.27 1.83,4.1 4.11,4.1 2.28,0 4.11,-1.83 4.11,-4.1l0 -83.86c0,-2.27 -1.83,-4.14 -4.11,-4.14zm0.76 -46.39l0 -83.86c0,-2.27 -1.83,-4.11 -4.11,-4.11 -2.28,0 -4.12,1.84 -4.12,4.11l0 83.86c0,2.27 1.87,4.1 4.12,4.1 2.24,0 4.11,-1.83 4.11,-4.1zm-37.93 -84.27c-3.93,-1.36 -10.29,-2.46 -14.46,-2.46l-31.49 0c-5.97,0 -10.85,4.86 -10.85,10.83l0 77.95c0,2.27 1.84,4.11 4.12,4.11 2.27,0 4.11,-1.84 4.11,-4.11l0 -77.95c0,-1.42 1.2,-2.62 2.62,-2.62l31.45 0c3.29,0 8.67,0.92 11.74,1.99l0.1 0.03c0.63,0.28 2.91,1.42 5.06,4.36 2.82,3.82 4.24,8.97 4.24,15.29 0,5.9 -1.52,10.51 -4.49,13.67 -2.28,2.4 -4.62,3.16 -5.32,3.32 -3.29,0.72 -9.02,1.32 -12.5,1.32l-24.71 0c-2.27,0 -4.11,1.87 -4.11,4.14 0,2.28 1.84,4.11 4.11,4.11l24.71 0c4.09,0 10.32,-0.66 14.21,-1.49 1.36,-0.28 6.01,-1.61 10.25,-6.53 1.84,-2.19 3.29,-4.71 4.3,-7.52 1.17,-3.29 1.78,-6.95 1.78,-10.99 0,-5.06 -0.76,-9.64 -2.28,-13.62 -1.2,-3.15 -2.88,-5.97 -5,-8.33 -3.64,-4.08 -7.31,-5.41 -7.66,-5.5l0.07 0zm115.89 214.52l-46.29 0 0.67 -1.01 46.54 -70.4c1.83,-2.78 2.15,-5.75 0.82,-8.18 -1.3,-2.44 -3.99,-3.82 -7.31,-3.82l-44.96 0c-2.28,0 -4.11,1.86 -4.11,4.13 0,2.28 1.87,4.11 4.11,4.11l44.04 0 -0.66 1.01 -46.54 70.43c-1.84,2.78 -2.12,5.75 -0.82,8.18 1.29,2.43 3.98,3.82 7.3,3.82l47.21 0c2.28,0 4.11,-1.83 4.11,-4.1 0,-2.28 -1.83,-4.11 -4.11,-4.11l0 -0.06zm-104.66 -83.16c-2.28,0 -4.12,1.83 -4.12,4.1l0 71.35 -1.17 -1.54 -51.69 -68.04c-1.75,-2.27 -3.74,-3.47 -5.83,-3.47 -0.72,0 -1.29,0.13 -1.64,0.25 -0.54,0.19 -1.58,0.63 -2.44,1.71 -1.04,1.29 -1.58,3.09 -1.58,5.37l0 76.84c0,2.27 1.83,4.11 4.14,4.11 2.31,0 4.12,-1.84 4.12,-4.11l0 -71.32 1.17 1.55 51.66 68c1.75,2.28 3.74,3.51 5.83,3.51 0.53,0 1.04,-0.07 1.55,-0.25l0.06 0c0.54,-0.19 1.58,-0.67 2.44,-1.71 1.04,-1.3 1.58,-3.1 1.58,-5.37l0 -76.84c0,-2.28 -1.84,-4.11 -4.11,-4.11l0.03 -0.03zm445.7 -133.16c-0.48,-0.19 -0.95,-0.25 -1.46,-0.25 -1.71,0 -3.26,1.07 -3.86,2.65l-27.81 72.93 -0.57 1.51 -0.63 -1.51 -9.15 -21.48c-0.63,-1.52 -2.12,-2.49 -3.79,-2.49 -0.54,0 -1.08,0.09 -1.58,0.31 -1.02,0.44 -1.81,1.23 -2.22,2.28 -0.41,1.01 -0.41,2.11 0.03,3.12l11.14 26.19c0.82,1.99 1.99,3.41 3.42,4.23 1.14,0.66 2.21,0.82 2.94,0.82l0.1 0c0.56,0 1.7,-0.13 2.87,-0.85 1.43,-0.89 2.57,-2.37 3.33,-4.43l29.64 -77.72c0.79,-2.12 -0.25,-4.52 -2.4,-5.31zm-39.49 2.02c-0.47,-0.98 -1.33,-1.74 -2.37,-2.08 -0.44,-0.16 -0.89,-0.23 -1.33,-0.23 -1.77,0 -3.32,1.14 -3.89,2.78l-24.3 71.35 -0.6 1.77 -0.63 -1.74 -26.23 -71.44c-0.6,-1.61 -2.16,-2.68 -3.86,-2.68 -0.51,0 -0.98,0.09 -1.43,0.25 -1.04,0.38 -1.86,1.14 -2.34,2.15 -0.44,0.98 -0.51,2.08 -0.13,3.12l28.61 77.83c0.76,2.08 1.86,3.6 3.26,4.45 1.1,0.69 2.15,0.85 2.81,0.85l0.1 0c0.57,0 1.67,-0.12 2.84,-0.85 1.4,-0.92 2.5,-2.43 3.2,-4.55l26.48 -77.76c0.35,-1.04 0.29,-2.15 -0.19,-3.12l0 -0.1zm-86.79 48.1c0,-2.27 -1.83,-4.1 -4.14,-4.1l-22.75 0c-2.28,0 -4.11,1.83 -4.11,4.1 0,2.28 1.83,4.11 4.11,4.11l22.75 0c2.28,0 4.14,-1.83 4.14,-4.11zm-54.64 37.71l38.26 -77.85 0 -0.03 0 -0.06 0.6 -1.24 0.57 1.24 0 0.06 36.19 77.76c0.67,1.45 2.15,2.37 3.74,2.37 0.6,0 1.17,-0.13 1.7,-0.38 2.06,-0.95 2.98,-3.41 2,-5.47l-36.2 -77.76c-1.8,-3.88 -4.71,-6.15 -8,-6.19l-0.1 0c-3.23,0 -6.17,2.21 -8.07,6.04l-38.25 77.85c-1.01,2.02 -0.15,4.52 1.9,5.5 0.57,0.28 1.17,0.41 1.81,0.41 1.58,0 3,-0.89 3.7,-2.31l0.15 0.06zm-16.61 -5.93l-41.54 -33.04c-1.14,-0.89 -1.74,-2.02 -1.74,-3.19 0,-1.17 0.57,-2.31 1.65,-3.22l39.45 -33.26c0.85,-0.69 1.36,-1.7 1.46,-2.81 0.09,-1.11 -0.22,-2.15 -0.95,-3 -0.79,-0.95 -1.93,-1.49 -3.17,-1.49 -0.98,0 -1.93,0.35 -2.66,0.98l-39.45 33.26c-2.97,2.5 -4.65,6.03 -4.59,9.63 0.07,3.64 1.84,7.11 4.88,9.51l41.54 33.04c0.76,0.57 1.64,0.91 2.56,0.91 1.27,0 2.44,-0.56 3.23,-1.54 0.7,-0.89 0.98,-1.96 0.88,-3.04 -0.12,-1.1 -0.66,-2.08 -1.51,-2.74l-0.04 0zm-61.38 9.03c2.28,0 4.15,-1.83 4.15,-4.11l0 -83c0,-2.27 -1.84,-4.11 -4.15,-4.11 -2.3,0 -4.11,1.84 -4.11,4.11l0 83c0,2.28 1.84,4.11 4.11,4.11zm-64.7 -31.52c-0.47,-0.16 -0.98,-0.28 -1.48,-0.28 -1.68,0 -3.23,1.07 -3.83,2.62 -6.24,16.26 -16.99,23.21 -35.91,23.21l-0.41 0c-10.64,-0.03 -18.77,-3.03 -24.24,-8.91 -7.31,-7.89 -10.31,-21.32 -8.95,-39.86 1.42,-19.33 15.78,-31.04 38.41,-31.33l0.34 0c7.6,0 14.49,3.19 19.97,9.19 4.11,4.49 6.07,9.1 6.33,9.73l0 0.06c0.63,1.58 2.12,2.59 3.82,2.59 0.51,0 1.05,-0.09 1.52,-0.28 2.12,-0.82 3.17,-3.22 2.34,-5.34 -0.25,-0.66 -2.72,-6.63 -8.06,-12.47 -3.14,-3.41 -6.65,-6.13 -10.44,-8.06 -4.69,-2.4 -9.88,-3.63 -15.41,-3.63 -0.16,0 -0.35,0 -0.51,0 -13.26,0.16 -24.55,3.89 -32.75,10.74 -4.01,3.38 -7.24,7.49 -9.55,12.19 -2.37,4.8 -3.77,10.2 -4.21,16.05 -1.55,21.22 2.06,36.29 11.14,46.05 7.09,7.61 17.27,11.52 30.25,11.56l0.25 0c11.32,0 20.31,-2.28 27.49,-6.95 7.18,-4.68 12.5,-11.72 16.26,-21.54 0.42,-1.01 0.39,-2.12 -0.06,-3.13 -0.44,-1.01 -1.26,-1.8 -2.28,-2.18l-0.03 -0.03zm153.45 -118.73c1.11,2.97 2.6,5.69 4.43,8.03 2.12,2.71 4.65,4.86 7.5,6.38 3.29,1.73 7.05,2.62 11.17,2.62 4.84,0 9.3,-0.92 13.19,-2.75 3.35,-1.58 6.33,-3.82 8.86,-6.7 2.15,-2.43 3.89,-5.24 5.19,-8.33 1.07,-2.5 1.8,-5.21 2.12,-7.61l0 -0.07 0.03 -65.85c0,-2.27 -1.83,-4.11 -4.11,-4.11 -2.28,0 -4.12,1.87 -4.12,4.11l0 65.13c-0.18,1.26 -1.07,5.68 -4.08,9.85 -3.86,5.34 -9.74,8.15 -17.08,8.15 -5.92,0 -10.66,-2.75 -13.64,-7.96 -2.34,-4.04 -2.94,-8.31 -3.04,-9.13 -0.12,-1.01 -0.6,-1.96 -1.36,-2.62 -0.76,-0.69 -1.7,-1.04 -2.72,-1.04 -0.16,0 -0.28,0 -0.44,0 -2.28,0.25 -3.92,2.27 -3.67,4.55 0.25,2.3 0.89,4.95 1.8,7.39l-0.03 -0.04zm-100.14 13.68c2.28,0 4.12,-1.83 4.12,-4.1l0 -83.86c0,-2.27 -1.84,-4.11 -4.12,-4.11 -2.27,0 -4.11,1.87 -4.11,4.11l0 83.86c0,2.27 1.84,4.1 4.11,4.1zm-30.65 -84.96c-3.74,-4.14 -7.63,-5.53 -7.66,-5.53 -3.92,-1.36 -10.28,-2.43 -14.46,-2.43l-31.45 0c-5.98,0 -10.85,4.86 -10.85,10.83l0 77.95c0,2.28 1.87,4.11 4.11,4.11 2.25,0 4.12,-1.83 4.12,-4.11l0 -77.95c0,-1.42 1.2,-2.62 2.62,-2.62l31.45 0c3.29,0 8.64,0.92 11.74,1.99 0.41,0.16 2.62,1.14 4.84,3.95 2.09,2.65 4.59,7.55 4.59,15.76 0,14.18 -8.8,16.74 -9.78,16.99 -3.32,0.73 -9.05,1.33 -12.47,1.33l-24.7 0c-2.28,0 -4.12,1.83 -4.12,4.1 0,2.28 1.84,4.11 4.12,4.11l24.7 0c4.02,0 10.25,-0.66 14.21,-1.51 1.33,-0.29 6.01,-1.58 10.25,-6.54 1.84,-2.15 3.29,-4.68 4.3,-7.52 1.18,-3.29 1.78,-6.98 1.78,-10.99 0,-5.06 -0.76,-9.63 -2.28,-13.61 -1.2,-3.19 -2.91,-6.01 -5,-8.34l-0.06 0.03zm73.05 29.91c-2.28,0 -4.11,1.83 -4.11,4.11 0,2.27 1.86,4.1 4.11,4.1l27.53 0c2.27,0 4.11,-1.83 4.11,-4.1 0,-2.28 -1.87,-4.11 -4.11,-4.11l-27.53 0zm42.9 50.09c0,-2.27 -1.83,-4.1 -4.11,-4.1l-45.5 0c-1.39,0 -2.59,-1.2 -2.59,-2.63l0 -69.54c0,-1.43 1.2,-2.62 2.59,-2.62l43.82 0c2.28,0 4.12,-1.84 4.12,-4.11 0,-2.27 -1.87,-4.11 -4.12,-4.11l-43.82 0c-5.98,0 -10.85,4.87 -10.85,10.87l0 69.55c0,5.97 4.87,10.83 10.85,10.83l45.5 0c2.28,0 4.11,-1.83 4.11,-4.11l0 -0.03zm-238.11 -50.09c-2.28,0 -4.12,1.83 -4.12,4.11 0,2.27 1.87,4.1 4.12,4.1l27.52 0c2.28,0 4.12,-1.83 4.12,-4.1 0,-2.28 -1.84,-4.11 -4.12,-4.11l-27.52 0zm42.87 50.09c0,-2.27 -1.87,-4.1 -4.11,-4.1l-45.5 0c-1.43,0 -2.63,-1.2 -2.63,-2.63l0 -69.54c0,-1.43 1.2,-2.62 2.63,-2.62l43.82 0c2.28,0 4.14,-1.84 4.14,-4.11 0,-2.27 -1.83,-4.11 -4.14,-4.11l-43.82 0c-6.01,0 -10.89,4.87 -10.89,10.87l0 69.55c0,5.97 4.88,10.83 10.89,10.83l45.5 0c2.27,0 4.11,-1.83 4.11,-4.11l0 -0.03z" />
</svg>