<svg width="730" height="451" viewBox="0 0 730 451" fill="none" xmlns="http://www.w3.org/2000/svg">
<path d="M513.177 216.878C516.687 209.663 523.934 204.688 530.695 199.826C535.762 196.015 541.517 193.841 547.882 194.516C548.096 194.522 548.284 194.582 548.492 194.612C548.745 194.672 549.374 194.737 549.835 194.899C550.782 195.036 552.06 195.926 553.17 196.428L554.033 196.87C554.363 197.073 554.376 196.631 554.487 196.637C554.915 196.141 560.378 192.085 556.751 188.4C556.719 188.245 556.589 187.522 556.563 187.552C556.433 187.283 556.368 187.045 556.401 186.626C556.388 186.125 556.92 185.265 557.328 185.462C557.64 185.575 557.77 185.766 557.776 185.653C558.178 186.053 558.535 186.459 559.08 187.433C559.937 189.105 561.221 191.16 561.416 188.376C561.494 186.244 561.234 183.461 560.066 180.905C559.554 179.955 557.4 178.068 557.225 178.008C539.064 171.641 517.466 177.232 505.19 190.992C504.755 191.47 497.456 199.969 497.19 200.119C497.151 198.9 493.142 193.883 493.142 193.883C493.544 193.961 495.445 192.922 495.945 192.181C498.228 189.272 498.702 185.199 497.58 182.35L497.482 182.099V182.087C497.923 181.741 498.592 180.946 498.923 180.487C502.575 175.703 501.661 169.085 496.704 165.436C497.495 163.285 497.366 161.285 497.164 159.684C496.509 155.276 495.614 150.181 492.571 146.228C494.232 145.135 495.198 143.462 495.646 141.921C496.34 139.335 496.009 136.928 494.751 134.599C493.46 132.467 491.364 130.257 487.536 129.928C486.907 129.904 486.284 129.952 485.667 130.072C480.451 131.403 478.933 135.967 479.796 139.813C477.999 139.813 476.24 140.022 474.677 140.404C469.532 141.557 465.139 144.298 461.214 147.273C461.597 143.134 460.915 138.212 459.585 134.282C459.06 132.586 458.281 130.866 457.289 129.653C456.322 128.429 455.316 127.814 455.316 127.814C453.538 126.799 452.5 126.637 451.164 126.273C449.892 125.986 448.607 125.801 447.251 125.741C445.409 125.723 443.365 125.67 440.9 126.99C437.753 128.811 435.028 131.027 432.381 133.327C432.841 128.967 432.017 122.91 427.768 120.36L425.01 118.7C424.089 119.237 423.083 120.426 422.123 121.214C419.911 123.149 419.43 123.406 418.379 124.141C414.662 126.607 409.789 128.746 405.501 129.152L404.307 129.206C404.209 129.206 403.976 129.206 403.879 129.206C402.412 129.17 400.991 128.967 399.408 128.674C397.663 128.429 393.225 127.856 390.766 127.211C386.283 126.315 383.156 123.328 383.305 123.585C381.423 122.779 380.379 124.165 380.223 125.819C382.001 128.501 385.64 131.057 388.826 132.264C391.733 133.464 395.12 134.324 397.06 134.862C399.084 135.268 401.42 135.656 403.716 135.704C405.974 135.775 411.418 134.497 411.32 134.76C411.255 134.915 416.29 138.583 422.006 138.523C416.913 140.207 405.682 141.82 401.828 146.054C400.654 147.559 400.141 149.644 400.985 151.412C401.296 152.403 401.867 153.054 402.445 153.628C402.497 153.681 403.372 154.667 403.385 154.679C403.359 154.792 416.375 167.699 416.375 167.699L416.42 167.783C416.42 167.783 416.667 168.141 416.693 168.255C416.809 168.458 416.855 168.685 416.913 168.912C417.108 170.052 416.654 171.342 415.998 172.441L415.687 172.931C410.736 171.934 403.593 166.385 401.783 169.616C401.556 170.017 404.696 180.606 404.754 181.562L404.858 182.613C404.508 183.467 402.84 184.906 401.796 185.486C401.478 185.635 401.919 185.557 401.108 185.527C395.879 184.417 394.244 180.851 389.391 178.516C388.703 177.978 386.095 178.766 386.309 179.226C386.867 180.325 389.624 185.754 390.241 186.967C391.214 188.627 391.129 189.463 391.032 190.443C390.98 191.948 390.928 194.134 390.299 195.436C389.949 195.998 390.13 195.806 389.91 195.926C388.885 196.386 387.97 196.828 387.334 197.043C386.614 197.258 386.828 197.15 386.789 197.186C386.821 197.198 386.724 197.15 386.555 197.013L385.517 196.075C378.296 189.236 373.501 181.006 367.506 172.806C350.676 150.486 335.909 125.718 332.295 98.6854C333.288 96.6427 334.326 92.5634 335.293 91.0703C335.981 90.1624 336.214 90.025 338.414 89.4576C352.188 86.0652 367.227 81.2393 381.04 78.8383C422.026 71.8622 465.691 58.8658 505.586 70.4467C499.429 79.8477 492.597 90.2162 487.023 99.8918C486.933 99.5633 479.303 116.663 479.893 116.394C477.687 123.657 477.499 128.381 483.41 117.995C487.225 112.01 492.817 103.678 492.817 103.678C498.481 93.8117 505.177 83.6463 511.464 74.0662C511.918 73.4151 514.059 71.7667 514.429 71.9877C514.656 72.1489 514.715 72.1489 514.89 72.1489L526.627 72.2027C528.885 72.1609 530.98 72.4237 534.004 71.5935C539.298 70.7155 546.649 57.6354 546.39 55.6764C544.164 54.464 543.107 54.1414 542.393 53.6039C541.478 52.9708 538.507 60.3291 536.093 62.5629C533.614 65.0236 532.271 65.2625 532.271 65.2625C531.363 65.7045 529.618 65.7522 527.36 65.7164L526.666 65.6925L514.929 65.6328C514.767 65.6567 511.581 65.4118 511.581 65.4118C504.055 62.8734 490.546 61.1055 481.048 59.7259C446.479 57.1457 413.156 66.9766 379.743 72.4476C367.26 74.5738 354.692 78.5397 342.598 81.6156C340.094 82.398 335.267 83.1983 332.691 84.5481C328.999 86.2623 327.585 91.1121 326.677 93.8535C326.339 94.8031 326.119 95.4004 325.613 96.5173C324.425 97.8193 325.327 100.364 325.34 100.913C329.778 128.471 344.525 154.01 361.628 176.443C365.106 181.227 368.402 186.304 372.171 191.243C366.922 195.305 360.149 203.583 366.948 209.627C368.849 210.828 368.538 211.15 371.483 213.085C373.923 214.578 376.421 213.939 377.731 213.043C379.263 212.112 379.535 211.801 379.535 211.801C380.106 211.592 385.277 204.461 384.927 204.652C385.147 204.288 385.342 203.929 385.517 203.589C387.139 203.834 388.833 203.529 389.793 203.153C392.174 202.131 393.673 201.827 395.386 200.125C396.034 199.414 396.443 198.721 396.768 198.058C397.63 196.135 397.864 194.54 398 192.653L398.046 191.566L400.161 191.99C400.926 192.079 401.673 192.133 402.789 192.008C403.768 191.876 404.969 191.387 405.572 190.998C406.746 190.306 407.713 189.565 408.654 188.705C410.172 187.301 411.995 185.056 411.911 182.679C411.904 181.729 411.826 181.424 411.762 180.809L411.424 178.707L413.358 179.131L415.726 179.585C416.757 179.704 417.776 179.83 418.581 179.328C419.43 178.987 420.196 178.354 420.799 177.548C421.306 176.957 421.805 176.228 422.194 175.571C422.824 174.496 423.356 173.337 423.693 172.047C423.998 171.02 424.037 169.831 423.914 168.643C428.105 162.999 432.978 157.504 438.259 152.66C438.259 152.66 439.05 151.884 440.251 150.707C441.399 149.644 443.196 148.127 444.669 147.392C446.998 145.75 449.691 149.059 449.418 148.712C452.507 152.744 449.036 156.053 449.756 156.883C441.321 164.253 436.228 169.569 428.442 177.435C417.212 189.744 395.911 213.091 384.901 225.168C384.823 225.311 384.505 225.461 384.628 225.604C386.166 227.139 388.353 229.337 389.903 230.89C411.496 251.238 441.795 262.742 472.399 264.755C473.398 264.772 477.914 264.975 478.829 264.934C481.23 264.874 484.383 264.802 486.783 264.725C487.017 264.665 487.452 264.82 487.523 264.581L487.705 263.823C487.77 263.512 488.198 261.392 488.367 260.52C488.444 260.03 488.535 259.475 488.639 258.871C489.314 256.226 489.924 242.411 489.833 241.861C501.875 237.155 508.246 227.39 513.158 216.938L513.177 216.878ZM381.151 201.2C378.387 205.315 375.045 206.921 375.175 206.659C375.175 206.659 374.981 206.814 374.63 207.089H374.604C375.065 207.561 373.43 205.918 371.652 204.724C371.49 204.7 371.042 203.869 371.217 203.057C371.496 201.116 374.513 198.064 376.466 196.422C377.731 197.867 379.075 199.282 380.521 200.638C380.651 200.746 381.177 201.176 381.138 201.2H381.151ZM487.581 139.944C489.56 139.443 489.807 137.239 489.904 137.31C489.904 137.31 492.266 139.574 489.431 140.882C489.405 140.978 487.666 140.488 487.419 140.434C487.419 140.404 487.426 140.356 487.419 140.333C487.478 140.201 487.497 140.112 487.588 139.938L487.581 139.944ZM418.853 131.571C420.397 130.86 424.316 128.232 424.965 127.635C424.965 127.635 425.763 126.805 425.776 126.846C426.172 128.214 426.918 130.645 426.73 132.21C426.126 133.715 422.447 136.426 418.762 134.491C418.665 134.438 417.497 133.04 416.738 132.574C417.452 132.246 418.159 131.923 418.86 131.571H418.853ZM410.996 152.69C410.73 152.415 407.596 149.315 407.83 149.501C407.7 149.572 408.336 149.142 409.037 148.748C412.235 147.129 415.628 146.323 419.301 145.212C416.615 147.774 413.812 150.325 410.996 152.69ZM447.355 142.256C444.157 141.485 441.347 142.823 439.673 143.665C429.863 149.489 426.976 154.422 420.313 162.037C419.229 160.944 416.861 158.555 415.784 157.486C425.679 149.363 433.789 139.407 444.643 132.49C444.754 132.365 445.837 132.15 446.927 132.222C448.315 132.275 449.963 132.616 451.138 133.07C451.177 133.13 451.417 132.974 452.202 133.715C454.168 134.957 457.658 146.377 457.379 145.971C457.71 147.303 457.963 148.509 458.19 149.59C456.601 150.797 454.265 150.295 452.954 147.076C452.111 145.164 450.366 143.056 447.349 142.25L447.355 142.256ZM508.59 210.899C502.465 223.077 493.55 237.866 477.492 237.274C477.363 237.286 477.077 237.466 477.019 237.489C475.345 238.559 475.338 243.378 476.532 243.737C479.497 244.077 482.371 243.779 485.084 243.128C485.071 243.247 485.058 243.337 485.045 243.462C484.37 248.264 483.195 254.069 481.839 258.322H481.801L481.768 258.304L481.742 258.316L477.428 258.37C448.173 257.641 418.457 247.07 397.215 228.387C396.06 227.461 394.808 226.1 393.991 225.311V225.293C401.939 216.579 424.173 192.199 432.426 183.156C441.269 173.959 450.599 164.826 460.293 156.566C465.223 152.576 470.206 148.354 475.604 146.932C478.375 146.144 481.087 146.013 483.079 146.849C488.113 149.035 489.314 155.007 490.079 160.054C490.482 163.07 490.183 163.93 488.503 164.904C481.398 167.807 464.854 162.342 462.258 154.971C460.682 153.89 460.26 155.814 459.183 156.297C458.087 156.71 457.217 158.191 457.276 158.382C461.817 169.796 480.516 175.655 492.214 170.411C492.869 171.002 493.499 171.743 493.842 172.555C494.089 173.182 494.173 173.481 494.141 173.809C494.108 174.729 493.57 176.121 492.993 176.927C492.85 177.106 492.72 177.273 492.61 177.375C492.545 177.381 493.271 179.011 492.811 180.236C492.454 182.069 490.157 182.129 489.781 182.649C490.469 183.389 490.968 184.566 490.929 184.59C490.929 184.59 491.442 185.516 491.416 187.039C492.149 191.19 489.028 192.432 488.788 192.641C488.36 192.653 488.581 193.865 488.042 195.185C488.762 195.842 489.171 196.463 489.632 196.983C489.911 197.312 490.644 198.351 490.709 198.297C492.422 200.495 493.447 202.424 494.057 203.457C493.68 203.846 493.31 204.252 492.928 204.64C492.928 204.64 489.943 208.086 486.537 210.786C483.176 213.605 479.225 214.99 479.588 214.907C476.364 216.293 476.266 215.522 475.462 216.101C476.681 218.084 475.286 219.954 478.771 219.398C484.117 219.189 494.971 212.148 497.417 209.717C500.616 206.742 507.623 198.518 510.582 195.167C520.165 184.53 536.599 179.268 551.132 183.18C550.782 184.076 550.522 185.038 550.406 186.053C550.25 188.926 550.25 188.138 550.159 188.365C550.042 188.406 549.939 188.287 549.939 188.287C549.958 188.311 549.919 188.287 549.919 188.287H549.9C550.114 188.329 549.225 188.12 548.66 188.084L546.831 187.928C539.765 187.606 532.57 190.144 527.211 194.104C520.372 198.966 513.3 203.863 508.577 210.923L508.59 210.899Z" fill="#fff"/>
<path d="M728.29 236.044C725.454 218.777 718.064 202.531 710.175 186.895C701.799 171.378 693.76 155.742 682.016 142.029C664.174 122.874 640.622 109.281 616.74 97.4907C620.496 90.2758 623.092 82.6069 624.85 74.7887L626.083 67.526C626.083 67.526 626.31 62.8076 626.245 58.2326C626.037 53.6456 625.68 49.2139 625.531 49.6081C624.24 42.1722 622.404 37.7703 621.606 49.4946C621.21 52.9408 620.672 57.0739 620.172 60.3111C619.582 63.6199 619.166 65.9194 619.166 65.9194C618.894 68.0755 618.543 69.7239 618.135 72.2683C617.35 75.8817 616.558 79.5191 615.286 83.0131C610.654 97.1801 601.902 109.98 590.45 120.336C589.062 121.674 587.524 122.88 586.058 124.147C585.032 124.923 582.658 126.936 581.749 127.443C576.546 130.054 567.897 126.524 563.103 123.37C562.966 123.316 562.616 123.31 562.532 123.316C558.003 123.561 557.718 126.422 558.645 128.25C561.915 131.027 566.301 132.58 570.545 133.876C574.859 134.921 580.043 135.739 585.221 133.135C585.798 132.783 586.473 132.377 586.946 132.03C587.706 131.439 589.749 129.827 590.528 129.211C592.059 127.885 593.662 126.637 595.121 125.246C602.258 118.765 608.617 111.407 613.476 103.278C620.548 106.683 630.222 114.375 630.222 114.375C625.784 125.114 617.739 144.591 613.029 155.085C612.899 155.139 607.702 174.627 607.358 174.365L601.052 171.026C576.046 158.441 549.997 148.342 524.271 137.579C519.464 137.991 519.684 141.676 520.995 143.193C521.131 143.42 521.19 143.444 521.345 143.516C548.66 154.977 576.695 165.644 602.576 179.328C604.296 180.289 607.76 182.219 609.48 183.18C609.83 183.538 609.901 183.025 610.051 182.756C616.428 169.264 624.285 149.883 630.06 135.966C630.06 135.966 636.152 118.622 635.763 119.297C636.178 118.007 636.535 116.782 636.801 115.713C656.356 127.378 675.262 140.697 686.636 159.815C701.429 183.974 716.176 209.406 721.282 236.928C721.776 239.628 721.86 242.291 721.99 244.943C721.049 252.301 712.686 256.751 706.36 261.32C702.947 263.566 698.438 265.674 694.642 267.568C685.144 272.28 680.356 282.427 669.404 282.636C657.446 283.019 644.768 283.944 632.915 283.288C631.52 283.216 629.826 282.899 630.3 282.989C629.833 281.352 628.873 279.178 628.723 277.369C628.684 276.837 629.262 274.34 629.366 274.263C629.242 273.857 631.617 272.238 634.005 271.796C635.27 271.521 636.321 271.354 637.547 271.438C643.815 271.653 650.27 271.366 656.512 270.894L658.912 270.655C661.345 270.655 663.791 269.258 665.044 267.866C666.984 265.937 668.43 264.032 669.572 261.493C671.824 255.121 668.755 247.84 664.94 242.417C663.032 239.831 660.56 237.095 656.745 235.578C642.582 230.448 630.988 244.483 617.856 243.348C621.664 242.052 626.602 238.809 628.924 235.871C630.209 234.366 630.858 233.183 630.858 233.183C630.858 233.183 631.448 231.648 631.656 230.071C631.896 228.489 631.682 226.948 631.591 227.073C631.448 224.415 642.562 220.509 648.356 222.337C648.674 222.462 649.803 222.832 651.146 223.615C652.969 224.624 655.435 226.661 657.31 228.023C657.92 228.387 659.036 229.617 658.776 228.554C659.016 224.105 659.535 219.464 658.809 214.889L658.478 212.834C656.83 202.967 651.555 193.196 653.125 183.425C653.638 180.815 655.188 180.188 657.219 178.617L657.803 180.039L658.478 181.812C660.599 187.743 662.624 194.17 663.843 200.154C664.83 205.781 663.753 212.924 662.954 218.998L669.825 220.473C669.864 220.366 669.923 220.115 670.059 219.834C673.725 210.702 677.656 197.305 682.51 188.609C682.84 187.94 685.455 186.614 687.681 186.047L688.316 185.874C686.565 195.627 683.152 209.024 682.626 218.849C682.36 221.566 681.926 225.98 681.66 228.668C681.614 229.528 681.465 231.917 681.387 233.147C681.614 234.055 681.848 235.005 682.075 235.948C682.179 236.02 682.393 236.002 682.555 236.032L683.593 236.145C685.033 236.253 686.331 236.522 687.836 236.187C688.939 236.086 690.023 235.578 691.067 235.094C691.599 234.897 692.073 234.509 692.527 234.18C692.845 233.93 693.176 233.691 693.423 233.428C694.837 232.311 697.607 228.524 697.562 228.16C699.327 224.672 701.851 223.681 701.98 223.024C702.071 222.617 700.04 220.497 698.86 221.166C697.711 221.829 696.277 223.418 694.331 225.699C692.884 227.27 691.022 229.325 689.134 230.197C688.913 230.245 688.725 230.233 688.595 230.179C688.271 230.071 688.284 229.82 688.466 229.659C688.595 229.492 688.667 229.438 688.667 229.438C688.907 227.019 689.257 223.472 689.497 221.047C690.01 210.726 693.358 197.431 695.226 187.247C695.259 187.05 695.414 186.286 695.473 185.671L695.7 183.771C695.654 181.466 694.908 179.585 692.774 179.059C690.762 178.516 687.188 179.435 685.598 179.847C684.067 180.289 682.561 180.821 681.043 181.568C679.551 182.35 677.929 183.21 676.515 185.181C675.697 186.501 675.762 186.626 675.399 187.271C673.601 190.234 671.752 194.934 670.597 198.279C668.755 190.144 666.757 183.467 663.499 175.607C663.006 174.341 662.215 173.439 661.495 172.465C661.222 172.316 659.97 171.623 659.723 171.486C659.71 171.092 659.483 171.313 659.367 171.193C657.245 170.781 655.013 172.095 653.209 173.266L652.171 173.988C650.919 174.932 649.842 175.744 648.544 177.106C647 179.023 646.63 180.445 646.202 182.081C644.126 193.232 649.641 203.463 651.497 213.921L651.788 215.731L651.905 216.633V216.657H651.892L650.796 216.245C647.779 215.056 643.464 215.008 640.441 215.815C630.183 218.251 621.126 222.832 611.264 225.574C610.602 225.759 609.921 226.111 609.486 226.38L608.454 227.061L607.235 227.915C606.171 228.727 605.717 229.892 605.243 231.033L605.152 232.855L605.217 233.995C605.483 236.934 606.203 239.687 607.54 242.417C605.12 242.936 603.134 243.904 601.447 244.86L600.565 245.385C600.078 245.738 599.566 246.144 599.157 246.532C598.417 247.362 598.054 247.965 597.678 248.586C596.173 251.214 595.07 253.896 593.928 256.005C593.182 254.792 592.727 254.028 592.773 254.201C590.995 251.423 590.236 248.933 588.776 246.681C586.609 246.245 582.333 248.115 580.16 247.679L581.295 245.17L582.697 241.897C586.771 232.884 592.104 224.344 598.56 216.597C598.761 216.125 598.619 215.671 598.56 215.241C599.696 213.939 600.455 212.118 600.267 210.385C600.182 208.098 598.145 205.954 596.62 205.183C593.344 203.427 590.982 203.302 588.491 202.591C580.964 200.919 573.231 200.017 565.49 199.963L560.514 200.029L557.004 200.202C557.004 200.202 551.891 200.805 547.025 201.91C542.146 202.962 537.546 204.479 537.981 204.431C530.357 207.363 526.328 210.188 538.772 207.967C543.249 207.369 553.416 206.659 556.628 206.754C557.731 206.641 558.847 206.623 559.956 206.557L561.617 206.491C569.63 206.306 577.694 206.969 585.506 208.636C587.569 209.083 590.372 209.669 592.15 210.338C592.993 210.666 593.318 211.06 593.201 210.941C593.149 211.031 593.324 210.762 593.078 211.15C581.042 221.148 562.162 222.659 546.324 222.014C541.238 221.793 536.171 220.891 532.998 219.804C523.739 216.639 533.744 208.695 538.779 207.967C538.221 206.987 534.133 206.258 532.777 206.724C532.369 206.82 527.807 209.03 527.593 209.209C525.29 211.359 524.414 214.136 524.823 216.985C525.134 218.735 526.458 222.988 526.717 224.451C527.334 229.325 531.421 238.529 533.322 241.742C533.796 242.512 534.283 243.277 534.802 244.023C536.482 246.538 538.377 249.005 540.381 251.328L540.368 251.34L538.403 251.907C535.775 252.761 519.457 258.615 519.457 258.615L519.652 260.096C519.626 259.911 519.561 259.415 519.795 261.213L519.97 262.545C520.028 262.843 519.996 263.16 520.139 263.446C520.735 263.518 522.416 263.626 522.708 263.966C523.473 264.438 524.531 264.844 525.05 265.37C525.491 265.764 525.731 266.039 526.03 266.403C531.856 274.251 525.29 282.899 521.702 290.771L514.948 304.156C508.694 314.626 504.145 328.853 522.059 332.239C528.086 333.237 533.459 332.896 538.96 332.681C567.411 330.656 595.102 323.925 621.671 314.626L628.23 312.171C629.242 312.105 628.36 311.239 628.321 310.732C627.919 309.645 626.894 306.873 626.485 305.751C626.057 304.508 625.44 303.356 624.921 302.155C623.689 299.527 621.885 294.182 621.885 294.182C621.885 294.182 624.986 291.852 626.92 288.633C629.385 289.648 630.825 289.63 632.292 289.786C644.703 290.491 657.394 289.541 669.767 289.153C679.849 289.69 688.291 280.253 694.779 275.374C698.749 272.352 705.16 270.261 710.408 266.654C717.961 261.332 728.432 255.336 729.036 244.991C728.912 241.969 728.783 238.959 728.264 236.044H728.29ZM612.237 231.606C612.393 231.517 621.69 228.274 625.596 226.936C627.341 227.748 626.822 229.94 626.822 229.94C625.148 233.326 617.35 237.053 613.269 237.997C613.132 237.609 612.996 237.215 612.886 236.814C612.568 235.745 612.406 234.605 612.289 233.518L612.237 232.604V231.612V231.606ZM539.908 239.227C539.908 239.227 538.383 237.209 536.748 234.551C534.6 231.266 532.576 226.87 531.733 225.096C536.041 227.193 540.991 227.216 545.429 227.449C558.821 228.035 572.472 227.784 585.266 223.047C581.782 228.274 578.739 233.744 576.189 239.407L574.866 242.488C574.483 243.468 572.459 248.634 572.141 249.494C565.12 250.701 558.068 251.74 551.002 252.672C549.977 251.603 547.603 249.124 546.616 248.073C544.534 245.72 542.542 243.187 540.829 240.607L539.914 239.221L539.908 239.227ZM619.964 308.253L618.29 308.88C593.285 317.558 566.846 323.943 540.219 326.087C522.734 326.947 508.934 327.389 521.021 307.608L527.898 293.984C532.628 284.882 539.882 272.089 531.694 262.473L531.149 261.858H531.142H531.155L573.717 255.843C578.252 255.061 582.781 254.219 587.297 253.329C587.297 253.633 587.297 253.783 587.297 253.329C587.511 253.293 588.238 253.144 588.452 253.102C588.627 253.801 588.834 254.553 589.1 255.413C591.04 262.437 596.419 271.33 596.419 271.33C603.348 281.478 611.634 291.494 617.097 301.982C617.7 303.057 618.213 304.156 618.693 305.255C619.147 306.216 619.822 307.751 619.977 308.277C619.958 308.229 619.964 308.259 619.964 308.259V308.253ZM622.534 272.614C622.157 274.108 622.274 274.866 622.268 275.637L622.391 277.918C622.462 278.796 622.592 280.606 622.592 280.606C622.592 280.606 622.222 283.144 620.86 285.318C619.562 287.522 617.492 289.111 617.492 289.111C617.492 289.111 617.473 289.141 617.466 289.153C612.853 282.206 607.605 275.398 602.875 268.583C602.875 268.583 598.359 261.917 598.502 261.744C601.512 257.545 602.265 254.004 604.51 250.82C604.549 250.802 604.523 250.802 604.523 250.802C606.073 249.835 608.124 248.784 609.48 248.622C609.726 248.575 610.213 248.557 610.213 248.557L610.278 248.598C610.673 248.766 611.452 249.285 612.068 249.769L612.198 249.865C613.405 250.832 614.605 251.937 615.663 253.15C615.663 253.15 618.861 256.148 620.873 259.815C623.033 263.417 623.805 267.43 623.812 267.066C624.045 267.938 624.214 268.774 624.357 269.562C623.598 270.369 622.929 271.36 622.534 272.614ZM625.083 255.3C623.682 252.367 622.235 250.396 621.891 249.936C625.207 249.464 627.64 248.598 630.41 247.703C636.425 245.6 641.965 242.686 647.143 241.407C652.333 240.028 656.019 241.64 659.107 246.102C660.762 248.174 661.663 250.289 662.468 252.839C663.156 255.222 663.714 258.089 663 259.146C662.39 260.556 661.157 262.222 659.944 263.393C659.71 263.638 659.256 263.99 659.12 264.091L655.857 264.438C649.959 264.886 643.737 265.161 637.852 264.963C634.238 264.808 630.897 265.608 627.711 267.197C627.711 267.09 627.724 267.012 627.724 266.905C627.899 263.172 626.712 258.626 625.083 255.312V255.3Z" fill="#fff"/>
<path d="M591.508 90.4191C589.775 91.6435 586.473 92.1213 584.358 92.0496C582.029 92.0138 579.998 89.4814 578.09 88.1495C577.409 87.7254 576.365 86.8534 574.619 86.3039C574.165 89.9293 575.06 91.6495 575.099 91.6734C584.747 100.573 596.4 97.5564 599.929 85.1094C601.376 81.4243 599.177 75.6667 596.056 74.9918C593.337 73.9227 591.131 74.4901 589.711 74.8962C588.257 75.3621 592.085 76.9209 593.999 78.0737C600.383 81.711 591.508 90.4251 591.508 90.4251V90.4191Z" fill="#fff"/>
<path d="M442.872 90.9565C443.313 91.0401 448.179 86.035 449.905 83.6639C449.671 82.5291 449.671 82.105 449.522 80.9045C446.499 79.274 441.172 77.309 441.042 77.1597C439.816 78.4199 439.796 80.2953 439.829 80.8687C439.829 80.9702 439.861 80.9881 439.861 80.9881C439.894 81.0001 440.478 81.2151 441.334 81.5376C441.834 81.7586 442.593 82.0035 443.287 82.2722C443.079 82.2364 442.93 82.2125 442.93 82.2125C442.93 82.2125 434.165 83.3473 433.97 83.3772C433.036 80.7851 430.856 77.8764 426.567 78.0257C424.776 78.2407 421.227 79.5547 420.079 81.6989C419.975 81.8124 418.989 84.7389 418.879 86.3396C417.114 86.6741 412.696 87.5162 409.607 88.1075C406.24 85.9096 405.189 84.9241 402.723 83.9744C402.697 83.9625 402.633 84.0939 402.613 84.1238C402.321 85.599 401.854 85.9215 401.997 86.5068C402.016 86.6084 405.384 89.0452 405.416 89.093C404.527 89.4275 401.614 88.6869 401.264 88.43C399.194 86.6621 396.378 85.8439 396.378 85.8439C396.346 85.8499 396.255 85.9454 396.235 85.9693C395.106 87.5282 395.029 88.9497 395.042 89.6246C394.983 89.5589 397.468 90.4488 398.623 91.5896C398.337 92.1032 396.436 93.9069 396.436 93.9069C396.436 93.9069 397.449 97.7354 399.09 96.6305C400.161 96.0272 404.261 92.4795 404.787 92.5213C404.702 93.25 404.287 94.9701 404.358 94.9283C405.241 95.848 405.435 96.0989 406.701 97.0545C407.719 96.284 408.92 92.7423 408.92 92.7423C408.92 92.7423 408.997 92.5452 409.121 92.2466C411.833 91.7329 416.53 90.843 418.957 90.3831C419.365 97.6518 429.636 102.233 433.931 94.6057C435.261 92.0136 435.144 89.5469 434.814 87.2893C435.592 87.1877 440.186 86.5666 442.502 86.262C442.457 86.3934 440.744 87.9463 440.77 87.9343C440.51 88.878 442.463 90.9445 442.885 90.9744L442.872 90.9565ZM425.62 94.0144C423.025 92.6169 422.869 88.4718 423.232 85.5871C423.998 86.3874 424.887 86.9608 425.516 87.4565C427.489 88.6451 427.222 90.9624 427.294 90.7534C427.352 92.4377 426.431 93.674 426.197 94.2414C426.003 94.1638 425.821 94.1339 425.62 94.0144ZM430.071 92.802C429.279 94.1877 429.201 94.7789 427.923 94.5221C428.008 94.4923 429.818 89.3319 428.358 86.919C427.742 85.2586 424.647 83.1861 425.185 82.4574C425.12 82.3439 426.58 81.2569 427.028 81.2569C427.501 81.1852 428.397 82.2424 428.994 82.971C430.694 85.372 431.252 90.5981 430.071 92.802Z" fill="#fff"/>
<path d="M559.71 96.338C549.153 92.3721 553.137 80.6239 547.194 82.3381C547.019 82.3918 547.025 82.4277 547.025 82.4755C547.025 82.5412 547.09 83.7894 547.188 85.6171C547.019 90.7177 551.145 99.0376 556.251 101.164C556.18 101.313 563.758 103.75 561.935 103.165C563.998 103.828 566.178 98.7628 559.71 96.338Z" fill="#fff"/>
<path d="M582.067 18.2218C588.984 19.4462 596.426 18.5981 603.303 17.1826C606.151 21.017 611.102 23.4837 616.104 23.4359C618.758 23.4717 621.333 22.9999 623.682 22.2473C623.682 22.2473 623.695 22.2473 623.695 22.2414C624.058 22.8386 624.48 23.412 624.954 23.9555C633.816 33.3923 648.648 29.0741 657.122 21.9607C657.122 21.9607 661.015 18.6817 664.09 14.9368C667.237 11.2338 669.559 7.20228 669.254 7.50091C671.142 4.10845 671.999 1.05643 671.687 0.238181C671.298 -0.633824 670.007 0.84739 666.095 5.3627C663.318 8.62376 655.986 14.8592 653.294 16.4419C652.035 17.4394 650.744 18.3592 649.433 19.1953C644.373 22.6953 636.055 24.732 631.098 20.5033C630.709 20.1987 630.436 19.7926 630.151 19.4044C632.402 18.0904 633.959 17.2483 636.133 15.4804C639.831 12.7688 639.377 6.4557 633.713 5.38062C629.956 4.4907 626.128 6.51542 624.448 8.77905C622.748 10.965 621.963 13.4437 621.943 15.9044C618.375 17.1407 614.657 17.3976 611.958 15.9044C611.433 15.6416 610.978 15.2773 610.518 14.9249C613.411 13.5452 615.838 11.2398 615.844 7.50688C615.851 4.99837 614.268 2.66307 611.848 1.73731C609.46 0.751828 606.489 1.31923 604.322 2.91392C602.57 4.09053 601.279 6.18693 600.896 7.93691C600.636 8.95823 600.623 9.98552 600.701 11.0009C595.024 12.2611 589.12 12.5538 583.326 11.9565C583.17 11.9684 582.846 12.1237 582.775 12.1655C578.849 14.5008 580.478 17.1109 582.087 18.2278L582.067 18.2218ZM608.636 8.05636H608.649C608.649 8.00858 608.727 8.12206 608.143 8.62376C608.124 8.64168 608.085 8.65363 608.065 8.67155C608.208 8.45056 608.377 8.27138 608.63 8.05636H608.636Z" fill="#fff"/>
<path d="M527.178 30.8838C531.597 32.4606 536.067 33.4281 541.063 33.4699C547.622 33.464 553.066 33.022 552.735 33.0937L553.435 33.0339L547.058 27.8975C545.909 27.0314 545.507 26.3267 544.69 25.5323C544.132 24.9948 543.723 24.3796 543.353 23.7345C541.997 21.447 541.29 18.7892 541.342 16.1791C541.342 15.8148 541.374 15.2056 541.407 15.0503H541.426L542.497 15.6117C543.119 15.9582 543.788 16.2329 544.436 16.5375C549.698 18.837 555.557 19.912 561.39 19.5656C561.572 19.5298 561.915 19.3208 561.987 19.267C565.659 16.0537 562.655 14.0111 561.357 13.1988C556.699 13.0913 551.775 12.7031 547.473 10.6604C546.96 10.4156 546.428 10.2005 545.929 9.9258L545.17 9.5316L543.638 8.55806C542.062 7.60244 540.271 6.15706 538.727 5.02823C538.201 4.64599 537.553 3.95913 537.507 4.78933C536.287 7.8951 534.795 10.7142 534.419 14.0768C533.893 18.5443 534.854 22.9043 537.15 26.8343L537.514 27.4196C537.319 27.3778 538.753 27.7362 537.073 27.9632C532.479 28.0527 527.983 27.2763 528.353 27.4435C524.563 27.0016 521.404 26.3744 520.515 26.7268C519.671 26.9896 520.963 28.6261 527.178 30.8897V30.8838Z" fill="#fff"/>
<path d="M519.678 28.4051C519.71 28.2618 519.723 28.208 519.905 28.0467C521.053 26.7507 523.357 26.0041 525.199 28.9844C525.232 29.0382 525.349 29.2711 525.342 29.3727C524.849 31.8095 525.076 34.2583 526.043 36.5757C526.348 37.37 526.731 38.1405 527.224 38.8871C527.976 40.1294 528.936 41.312 530.001 42.4348C530.001 42.4348 531.162 43.9399 533.108 45.8273C535.029 47.7325 537.728 49.9962 540.012 51.8895C548.018 58.0413 543.904 57.0081 538.059 54.2129C538.312 54.4338 534.886 52.6719 531.538 50.4501C528.158 48.288 525.134 45.3256 525.134 45.3256C524.064 44.1669 523.071 42.8947 522.234 41.515C521.605 40.5594 521.079 39.5381 520.651 38.463C519.321 35.3154 518.977 31.7259 519.665 28.4111L519.678 28.4051Z" fill="#fff"/>
<path d="M567.398 53.7172C567.378 53.6814 567.365 53.6635 567.456 53.556C567.949 52.8393 569.494 51.4476 572.121 51.0773C572.167 51.0714 572.355 51.0594 572.394 51.0773C572.42 51.1251 572.978 51.9792 573.789 53.2454C574.619 54.4997 575.774 56.1182 576.994 57.689C579.42 60.8426 582.197 63.7035 582.197 63.7035C582.197 63.7035 583.56 65.9253 584.306 67.7589C585.785 70.6915 583.994 70.7213 581.996 69.7777C582.042 70.0405 577.733 67.0302 577.733 67.0302C577.733 67.0302 574.807 64.0081 572.251 60.6813C570.96 59.0269 569.747 57.3187 568.864 55.9988C568.008 54.6669 567.424 53.7591 567.391 53.7113L567.398 53.7172Z" fill="#fff"/>
<path d="M570.532 67.6513C570.499 67.6692 570.486 67.6752 570.369 67.5976C569.636 67.1437 568.124 65.764 567.528 63.3869C567.515 63.3451 567.489 63.1778 567.508 63.142C567.683 63.0345 580.192 55.3417 580.192 55.3417C580.192 55.3417 582.567 54.5294 584.513 54.3025C587.673 53.7112 587.459 55.2521 586.33 56.7095C586.564 56.7035 583.294 59.7854 583.294 59.7854C583.294 59.7854 570.7 67.5498 570.525 67.6573L570.532 67.6513Z" fill="#fff"/>
<path d="M601.298 60.914C601.279 60.8782 601.266 60.8603 601.357 60.7528C601.85 60.036 603.394 58.6444 606.022 58.2741C606.067 58.2681 606.255 58.2562 606.294 58.2741C606.326 58.3219 606.878 59.176 607.689 60.4422C608.519 61.6964 609.674 63.315 610.894 64.8858C613.321 68.0394 616.098 70.9062 616.098 70.9062C616.098 70.9062 617.46 73.1281 618.206 74.9617C619.685 77.8942 617.895 77.9241 615.896 76.9804C615.942 77.2432 611.634 74.233 611.634 74.233C611.634 74.233 608.714 71.2108 606.151 67.8841C604.86 66.2297 603.647 64.5215 602.765 63.2015C601.908 61.8696 601.324 60.9618 601.292 60.914H601.298Z" fill="#fff"/>
<path d="M604.432 74.8546C604.4 74.8725 604.387 74.8785 604.27 74.8008C603.537 74.3469 602.025 72.9672 601.428 70.5841C601.415 70.5423 601.396 70.3751 601.409 70.3392C601.584 70.2317 614.093 62.539 614.093 62.539C614.093 62.539 616.467 61.7267 618.42 61.4998C621.58 60.9085 621.366 62.4494 620.231 63.9067C620.464 63.9008 617.194 66.9826 617.194 66.9826C617.194 66.9826 604.601 74.7471 604.426 74.8546H604.432Z" fill="#fff"/>
<path d="M547.123 82.3919C547.265 82.3919 547.311 82.3918 547.499 82.5173C548.79 83.2639 551.061 84.2016 548.057 86.4891C548.005 86.5309 547.739 86.6862 547.609 86.7041C544.449 86.716 540.699 87.7314 537.39 87.5104C534.977 87.3551 532.576 87.0923 530.221 86.7519L524.025 85.7306H524.012C523.96 85.8321 523.992 86.6862 524.226 86.8892C524.881 88.03 526.484 89.3619 528.125 90.2698C529.41 91.0044 530.844 91.5778 532.343 92.0138C532.343 92.0138 534.127 92.7365 536.813 93.28C539.48 93.8951 543.424 93.5607 546.435 93.6144C556.647 93.0948 552.495 96.1827 552.151 97.7953C552.508 97.7953 542.639 97.9506 538.403 97.9147C534.166 98.0043 529.793 96.8098 529.793 96.8098C528.197 96.2603 526.614 95.6332 525.128 94.7791C522.857 93.4412 520.722 91.954 519.12 89.3201C518.231 87.6478 517.997 86.2203 518.504 84.2374C519.094 82.147 521.196 80.5642 523.545 80.4507C524.129 80.403 524.661 80.4507 525.167 80.5284L526.062 80.6837L527.743 80.9763L531.103 81.5019C533.342 81.8245 535.567 82.0634 537.793 82.2067C540.836 82.4098 543.93 82.3859 547.129 82.3739L547.123 82.3919Z" fill="#fff"/>
<g clip-path="url(#clip0_0_1)">
<path d="M7.07223 280.808H35.6392C37.0695 280.808 38.2218 279.658 38.2218 278.23C38.2218 276.802 37.0695 275.652 35.6392 275.652H7.07223C6.17827 275.652 5.42337 274.899 5.42337 274.006V226.114C5.42337 224.686 4.25129 223.536 2.84082 223.536C1.43035 223.536 0.25827 224.686 0.25827 226.114V274.006C0.25827 277.754 3.3176 280.808 7.07223 280.808Z" fill="#fff"/>
<path d="M84.0918 278.23C84.0918 276.802 82.9197 275.652 81.5093 275.652H52.9423C52.0483 275.652 51.2934 274.899 51.2934 274.006V230.338C51.2934 229.445 52.0483 228.692 52.9423 228.692H80.4564C81.8867 228.692 83.0588 227.542 83.0588 226.114C83.0588 224.686 81.9066 223.536 80.4564 223.536H52.9423C49.1678 223.536 46.1085 226.59 46.1085 230.358V274.026C46.1085 277.774 49.1678 280.828 52.9423 280.828H81.5093C82.9396 280.828 84.0918 279.678 84.0918 278.25V278.23Z" fill="#fff"/>
<path d="M57.1737 246.778C55.7433 246.778 54.5911 247.928 54.5911 249.356C54.5911 250.784 55.7632 251.934 57.1737 251.934H74.4569C75.8872 251.934 77.0394 250.784 77.0394 249.356C77.0394 247.928 75.8872 246.778 74.4569 246.778H57.1737Z" fill="#fff"/>
<path d="M206.683 278.23C206.683 276.802 205.531 275.652 204.101 275.652H175.534C174.66 275.652 173.905 274.899 173.905 274.006V230.338C173.905 229.445 174.66 228.692 175.534 228.692H203.048C204.478 228.692 205.631 227.542 205.631 226.114C205.631 224.686 204.459 223.536 203.048 223.536H175.534C171.779 223.536 168.72 226.59 168.72 230.358V274.026C168.72 277.774 171.779 280.828 175.534 280.828H204.101C205.531 280.828 206.683 279.678 206.683 278.25V278.23Z" fill="#fff"/>
<path d="M179.746 246.778C178.315 246.778 177.163 247.928 177.163 249.356C177.163 250.784 178.335 251.934 179.746 251.934H197.029C198.459 251.934 199.611 250.784 199.611 249.356C199.611 247.928 198.439 246.778 197.029 246.778H179.746Z" fill="#fff"/>
<path d="M133.875 227.997C131.531 225.4 129.088 224.527 129.068 224.527C126.605 223.674 122.612 223 119.989 223H100.243C96.488 223 93.4287 226.054 93.4287 229.802V278.746C93.4287 280.174 94.6008 281.324 96.0113 281.324C97.4217 281.324 98.5938 280.174 98.5938 278.746V229.802C98.5938 228.91 99.3487 228.156 100.243 228.156H119.989C122.055 228.156 125.413 228.731 127.359 229.405C127.618 229.505 129.008 230.119 130.399 231.884C131.71 233.55 133.279 236.624 133.279 241.78C133.279 250.684 127.757 252.291 127.141 252.449C125.055 252.906 121.459 253.282 119.314 253.282H103.799C102.368 253.282 101.216 254.433 101.216 255.86C101.216 257.288 102.368 258.438 103.799 258.438H119.314C121.837 258.438 125.75 258.022 128.234 257.487C129.068 257.308 132.008 256.495 134.67 253.381C135.822 252.033 136.736 250.446 137.372 248.662C138.107 246.599 138.484 244.279 138.484 241.76C138.484 238.587 138.008 235.712 137.054 233.213C136.299 231.21 135.226 229.445 133.915 227.978L133.875 227.997Z" fill="#fff"/>
<path d="M153.125 281.344C154.556 281.344 155.708 280.194 155.708 278.766V226.114C155.708 224.686 154.556 223.536 153.125 223.536C151.695 223.536 150.543 224.706 150.543 226.114V278.766C150.543 280.194 151.695 281.344 153.125 281.344Z" fill="#fff"/>
<path d="M216.001 272.757C216.696 274.621 217.63 276.326 218.782 277.794C220.113 279.499 221.702 280.848 223.49 281.8C225.556 282.891 227.92 283.446 230.503 283.446C233.542 283.446 236.343 282.871 238.787 281.721C240.892 280.729 242.76 279.321 244.349 277.516C245.7 275.989 246.792 274.224 247.607 272.281C248.282 270.714 248.739 269.009 248.938 267.502V267.462L248.958 226.114C248.958 224.686 247.806 223.536 246.375 223.536C244.945 223.536 243.793 224.706 243.793 226.114V267.006C243.674 267.799 243.117 270.575 241.23 273.193C238.806 276.545 235.111 278.31 230.503 278.31C226.788 278.31 223.808 276.584 221.94 273.312C220.47 270.774 220.093 268.096 220.033 267.581C219.954 266.946 219.656 266.351 219.179 265.935C218.702 265.499 218.106 265.28 217.471 265.28C217.371 265.28 217.292 265.28 217.192 265.28C215.762 265.439 214.729 266.708 214.888 268.136C215.047 269.584 215.444 271.25 216.02 272.777L216.001 272.757Z" fill="#fff"/>
<path d="M119.652 347.302C119.354 347.203 119.036 347.124 118.718 347.124C117.665 347.124 116.692 347.798 116.314 348.77C112.401 358.983 105.646 363.346 93.7664 363.346H93.5082C86.8333 363.326 81.7278 361.442 78.291 357.753C73.702 352.795 71.8148 344.367 72.669 332.726C73.563 320.589 82.582 313.232 96.786 313.054H97.0046C101.772 313.054 106.103 315.057 109.54 318.824C112.122 321.641 113.354 324.536 113.513 324.933V324.972C113.91 325.964 114.844 326.598 115.917 326.598C116.235 326.598 116.572 326.539 116.87 326.42C118.201 325.904 118.857 324.397 118.34 323.068C118.181 322.652 116.632 318.904 113.275 315.235C111.308 313.093 109.103 311.388 106.719 310.178C103.779 308.671 100.521 307.897 97.0443 307.897C96.945 307.897 96.8258 307.897 96.7264 307.897C88.4027 307.997 81.3106 310.337 76.1654 314.64C73.6424 316.762 71.6161 319.34 70.1659 322.295C68.676 325.309 67.8019 328.7 67.5238 332.369C66.5503 345.696 68.815 355.155 74.5165 361.283C78.9664 366.063 85.3632 368.522 93.5082 368.541H93.6671C100.779 368.541 106.421 367.114 110.93 364.179C115.44 361.244 118.777 356.821 121.141 350.654C121.4 350.019 121.38 349.325 121.102 348.69C120.824 348.056 120.307 347.56 119.671 347.322L119.652 347.302Z" fill="#fff"/>
<path d="M160.277 367.094C161.707 367.094 162.879 365.944 162.879 364.516V312.399C162.879 310.972 161.727 309.821 160.277 309.821C158.827 309.821 157.694 310.972 157.694 312.399V364.516C157.694 365.944 158.847 367.094 160.277 367.094Z" fill="#fff"/>
<path d="M198.817 361.422L172.733 340.679C172.018 340.123 171.64 339.409 171.64 338.676C171.64 337.942 171.998 337.228 172.673 336.653L197.446 315.77C197.982 315.334 198.3 314.7 198.36 314.005C198.419 313.311 198.221 312.657 197.764 312.122C197.267 311.527 196.552 311.189 195.777 311.189C195.161 311.189 194.565 311.408 194.108 311.804L169.336 332.687C167.468 334.253 166.416 336.474 166.455 338.735C166.495 341.016 167.608 343.197 169.515 344.704L195.598 365.448C196.075 365.805 196.631 366.023 197.208 366.023C198.002 366.023 198.737 365.666 199.234 365.051C199.671 364.496 199.85 363.822 199.79 363.147C199.711 362.453 199.373 361.838 198.837 361.422H198.817Z" fill="#fff"/>
<path d="M209.246 365.15L233.264 316.266V316.247V316.207L233.641 315.434L233.999 316.207V316.247L256.725 365.071C257.143 365.983 258.076 366.558 259.07 366.558C259.447 366.558 259.805 366.479 260.142 366.321C261.434 365.726 262.01 364.179 261.394 362.89L238.667 314.065C237.535 311.626 235.707 310.198 233.641 310.178H233.582C231.555 310.178 229.708 311.566 228.516 313.966L204.498 362.85C203.863 364.119 204.399 365.686 205.69 366.301C206.048 366.479 206.425 366.558 206.823 366.558C207.816 366.558 208.71 366.003 209.147 365.111L209.246 365.15Z" fill="#fff"/>
<path d="M243.554 341.472C243.554 340.044 242.402 338.894 240.952 338.894H226.668C225.238 338.894 224.086 340.044 224.086 341.472C224.086 342.9 225.238 344.05 226.668 344.05H240.952C242.382 344.05 243.554 342.9 243.554 341.472Z" fill="#fff"/>
<path d="M298.046 311.269C297.748 310.654 297.212 310.178 296.556 309.96C296.278 309.861 296 309.821 295.722 309.821C294.609 309.821 293.636 310.535 293.278 311.566L278.021 356.365L277.644 357.476L277.247 356.385L260.778 311.527C260.401 310.515 259.427 309.841 258.354 309.841C258.037 309.841 257.739 309.901 257.46 310C256.805 310.238 256.288 310.714 255.99 311.348C255.712 311.963 255.672 312.657 255.911 313.312L273.87 362.176C274.346 363.485 275.042 364.437 275.916 364.972C276.611 365.408 277.267 365.507 277.684 365.507H277.743C278.101 365.507 278.796 365.428 279.531 364.972C280.405 364.397 281.101 363.445 281.538 362.116L298.165 313.292C298.384 312.637 298.344 311.943 298.046 311.328V311.269Z" fill="#fff"/>
<path d="M322.839 310C322.541 309.881 322.243 309.841 321.925 309.841C320.852 309.841 319.879 310.516 319.501 311.507L302.039 357.298L301.682 358.249L301.284 357.298L295.543 343.812C295.146 342.86 294.212 342.246 293.159 342.246C292.821 342.246 292.484 342.305 292.166 342.444C291.53 342.722 291.034 343.217 290.775 343.872C290.517 344.506 290.517 345.2 290.795 345.835L297.788 362.275C298.304 363.525 299.039 364.417 299.933 364.933C300.649 365.349 301.324 365.448 301.781 365.448H301.841C302.198 365.448 302.913 365.369 303.648 364.913C304.542 364.357 305.257 363.425 305.734 362.136L324.348 313.332C324.845 312.003 324.19 310.496 322.839 310Z" fill="#fff"/>
<path d="M42.9895 393.608C41.5592 393.608 40.407 394.759 40.407 396.186V440.985L39.6719 440.014L7.21128 397.297C6.11866 395.869 4.86711 395.116 3.55597 395.116C3.09906 395.116 2.74148 395.195 2.52295 395.274C2.18523 395.393 1.52966 395.671 0.993289 396.345C0.337718 397.158 0 398.289 0 399.716V447.966C0 449.394 1.15221 450.544 2.60242 450.544C4.05262 450.544 5.18497 449.394 5.18497 447.966V403.187L5.92 404.159L38.3608 446.855C39.4534 448.283 40.705 449.057 42.0161 449.057C42.3538 449.057 42.6717 449.017 42.9895 448.898H43.0293C43.367 448.779 44.0225 448.482 44.5589 447.827C45.2145 447.014 45.5522 445.884 45.5522 444.456V396.206C45.5522 394.778 44.4 393.628 42.9697 393.628L42.9895 393.608Z" fill="#fff"/>
<path d="M108.706 445.824H79.6419L80.0591 445.189L109.282 400.986C110.434 399.24 110.632 397.376 109.798 395.849C108.984 394.322 107.295 393.45 105.209 393.45H76.9799C75.5495 393.45 74.3973 394.62 74.3973 396.048C74.3973 397.475 75.5694 398.626 76.9799 398.626H104.633L104.216 399.26L74.9933 443.484C73.8411 445.229 73.6623 447.093 74.4768 448.62C75.2913 450.147 76.9799 451.02 79.0658 451.02H108.706C110.136 451.02 111.288 449.87 111.288 448.442C111.288 447.014 110.136 445.864 108.706 445.864V445.824Z" fill="#fff"/>
<path d="M35.9372 311.13C33.4738 310.278 29.4808 309.583 26.8585 309.583H7.09207C3.33744 309.583 0.278107 312.638 0.278107 316.386V365.329C0.278107 366.757 1.43032 367.907 2.86066 367.907C4.29099 367.907 5.44321 366.757 5.44321 365.329V316.386C5.44321 315.493 6.19811 314.74 7.09207 314.74H26.8386C28.9047 314.74 32.2819 315.315 34.2088 315.989L34.2684 316.009C34.6658 316.187 36.0961 316.901 37.447 318.746C39.215 321.145 40.109 324.378 40.109 328.344C40.109 332.052 39.1554 334.948 37.288 336.931C35.8577 338.438 34.3876 338.914 33.9506 339.013C31.8846 339.469 28.2888 339.846 26.1036 339.846H10.5884C9.15811 339.846 8.00589 341.016 8.00589 342.444C8.00589 343.872 9.15811 345.022 10.5884 345.022H26.1036C28.6663 345.022 32.5798 344.606 35.0233 344.09C35.8776 343.911 38.7978 343.078 41.4599 339.985C42.6121 338.616 43.5259 337.03 44.1616 335.265C44.8966 333.203 45.2741 330.902 45.2741 328.364C45.2741 325.191 44.7973 322.315 43.8437 319.816C43.0888 317.833 42.036 316.068 40.705 314.581C38.4204 312.023 36.116 311.19 35.8974 311.13H35.9372Z" fill="#fff"/>
<path d="M59.7562 364.04V311.388C59.7562 309.96 58.604 308.81 57.1737 308.81C55.7433 308.81 54.5911 309.96 54.5911 311.388V364.04C54.5911 365.468 55.7632 366.618 57.1737 366.618C58.5841 366.618 59.7562 365.468 59.7562 364.04Z" fill="#fff"/>
<path d="M59.2794 393.172C57.8491 393.172 56.6969 394.342 56.6969 395.77V448.422C56.6969 449.85 57.8491 451 59.2794 451C60.7098 451 61.862 449.85 61.862 448.422V395.77C61.862 394.342 60.7098 393.172 59.2794 393.172Z" fill="#fff"/>
<path d="M193.512 393.608C192.082 393.608 190.93 394.759 190.93 396.186V440.985L190.195 440.014L157.754 397.317C156.661 395.889 155.39 395.135 154.099 395.135C153.622 395.135 153.245 395.235 153.066 395.294C152.728 395.413 152.092 395.691 151.536 396.365C150.881 397.178 150.543 398.308 150.543 399.736V447.986C150.543 449.414 151.695 450.564 153.125 450.564C154.556 450.564 155.708 449.414 155.708 447.986V403.207L156.443 404.178L188.884 446.875C189.957 448.303 191.228 449.076 192.539 449.076C192.897 449.076 193.234 449.017 193.572 448.918C193.89 448.799 194.546 448.521 195.102 447.847C195.757 447.034 196.095 445.903 196.095 444.476V396.226C196.095 394.798 194.943 393.648 193.512 393.648V393.608Z" fill="#fff"/>
<path d="M209.802 393.172C208.372 393.172 207.22 394.342 207.22 395.77V448.422C207.22 449.85 208.372 451 209.802 451C211.233 451 212.405 449.85 212.405 448.422V395.77C212.405 394.342 211.233 393.172 209.802 393.172Z" fill="#fff"/>
<path d="M94.9385 302.384C95.1968 302.384 95.4749 302.345 95.753 302.246L112.679 296.693C113.334 296.475 113.871 296.019 114.188 295.404C114.506 294.789 114.546 294.095 114.347 293.441C113.99 292.37 112.997 291.656 111.884 291.656C111.586 291.656 111.328 291.695 111.07 291.775L94.1439 297.328C93.4883 297.546 92.9519 298.002 92.6341 298.617C92.3361 299.231 92.2765 299.925 92.495 300.6C92.8526 301.671 93.826 302.384 94.9385 302.384Z" fill="#fff"/>
<path d="M367.417 361.918H338.851C337.957 361.918 337.202 361.164 337.202 360.272V316.603C337.202 315.711 337.957 314.957 338.851 314.957H366.365C367.795 314.957 368.947 313.787 368.947 312.379C368.947 310.971 367.795 309.801 366.365 309.801H338.851C335.096 309.801 332.037 312.855 332.037 316.603V360.272C332.037 364.02 335.096 367.074 338.851 367.074H367.417C368.848 367.074 370 365.924 370 364.496C370 363.068 368.848 361.918 367.417 361.918Z" fill="#fff"/>
<path d="M343.082 333.043C341.652 333.043 340.499 334.213 340.499 335.622C340.499 337.03 341.671 338.2 343.082 338.2H360.365C361.795 338.2 362.948 337.03 362.948 335.622C362.948 334.213 361.795 333.043 360.365 333.043H343.082Z" fill="#fff"/>
<path d="M363.226 370.108C362.749 369.692 362.133 369.454 361.497 369.454C360.762 369.454 360.067 369.771 359.57 370.306L351.445 379.349C350.988 379.865 350.75 380.539 350.79 381.214C350.83 381.908 351.147 382.522 351.644 382.998C352.121 383.435 352.737 383.653 353.372 383.653C354.107 383.653 354.803 383.355 355.299 382.8L363.424 373.757C363.881 373.241 364.12 372.587 364.08 371.893C364.04 371.199 363.742 370.584 363.226 370.108Z" fill="#fff"/>
<path d="M262.765 445.031H234.178C233.304 445.031 232.549 444.277 232.549 443.385V399.716C232.549 398.824 233.304 398.07 234.178 398.07H261.692C263.122 398.07 264.274 396.92 264.274 395.492C264.274 394.064 263.122 392.914 261.692 392.914H234.178C230.423 392.914 227.364 395.968 227.364 399.716V443.385C227.364 447.133 230.423 450.207 234.178 450.207H262.765C264.195 450.207 265.347 449.037 265.347 447.628C265.347 446.22 264.195 445.05 262.765 445.05V445.031Z" fill="#fff"/>
<path d="M238.429 416.156C236.999 416.156 235.846 417.326 235.846 418.734C235.846 420.142 237.019 421.312 238.429 421.312H255.712C257.143 421.312 258.295 420.142 258.295 418.734C258.295 417.326 257.143 416.156 255.712 416.156H238.429Z" fill="#fff"/>
<path d="M96.4086 384.268C96.4086 382.285 94.7995 380.678 92.793 380.678C90.7866 380.678 89.1973 382.285 89.1973 384.268C89.1973 386.251 90.8263 387.857 92.793 387.857C94.7597 387.857 96.4086 386.231 96.4086 384.268Z" fill="#fff"/>
</g>
<defs>
<clipPath id="clip0_0_1">
<rect width="370" height="228" fill="#fff" transform="translate(0 223)"/>
</clipPath>
</defs>
</svg>
