<svg width="245" height="299" viewBox="0 0 245 299" fill="none" xmlns="http://www.w3.org/2000/svg">
<g clip-path="url(#clip0_154_112)">
<path d="M90.7617 162.437L90.2726 162.076L89.7836 161.456L90.4528 161.895L90.7617 162.437Z" fill="#231F20"/>
<path d="M83.9404 156.22C84.4295 157.2 85.0473 158.103 85.7165 158.98L82.7821 155.549L83.9404 156.22Z" fill="#231F20"/>
<path d="M90.7617 162.437L90.2726 162.076L89.7836 161.456L90.4528 161.895L90.7617 162.437Z" fill="#231F20"/>
<path d="M242.323 18.9857C240.856 17.4637 238.668 16.3545 235.991 15.7612C233.545 15.2711 229.35 15.0905 228.552 15.0905C221.962 14.9615 215.81 15.4 209.915 15.8902L207.47 16.0191L207.599 15.7096H197.792L197.354 15.4C195.037 13.6975 191.511 11.9176 186.878 10.1377C180.365 7.37752 171.588 4.69475 163.222 2.94063C155.963 1.34129 150.429 0.619001 150.351 0.619001C145.358 0.257859 141.574 0.128879 135.422 0.0772875L109.449 0.0256958C101.393 0.154675 92.3319 0.206267 82.9366 1.18651L81.0575 1.36708C80.0793 1.49606 79.0497 1.67663 78.123 1.8572L71.971 3.147C69.294 4.12724 65.7675 5.52022 63.9399 7.35172C62.4212 8.7447 62.2925 10.8858 62.1123 13.5685L62.0608 14.2908C61.8807 15.5032 62.7816 20.714 63.3479 21.5653L63.5795 21.8748L63.631 22.1844C64.7379 28.04 66.3853 36.2947 68.0069 44.4204L68.6762 47.5933L65.922 46.2003C63.2449 46.0713 60.6708 45.4006 58.174 44.6784C53.3605 43.337 49.5251 42.2277 45.7927 46.0197C41.7772 80.5862 44.4027 108.239 54.2099 133.107L54.8277 134.758L53.1803 135.119C49.3449 136.047 45.6125 136.95 41.9574 137.801C33.849 139.685 26.1783 141.464 18.5591 143.554C9.91018 145.927 3.80963 151.989 1.00389 161.147C-0.694993 166.641 -0.334623 171.336 2.03352 174.767C4.47889 178.198 8.7261 180.132 14.4663 180.39C20.5668 180.7 26.6416 180.623 32.562 180.571C35.0588 180.519 37.5557 180.519 39.9238 180.519H43.3988L41.0822 183.073C38.6368 185.627 35.8311 187.355 33.1025 189.006C30.1166 190.838 27.2594 192.54 25.1744 195.352C21.6479 200.124 22.0598 209.153 26.1011 214.699C30.0651 220.193 36.037 219.523 41.8801 217.872C46.3848 216.659 50.8894 215.318 55.4197 213.951C63.3479 211.629 71.5592 209.179 79.7962 207.244C89.4747 204.974 99.8997 203.271 111.663 202.111C121.239 201.13 129.45 205.154 135.37 213.77C137.636 217.124 140.132 220.374 142.501 223.547C145.795 227.881 149.142 232.395 152.128 237.116L153.157 238.715C157.353 245.37 161.677 252.284 163.582 259.79C164.972 265.465 166.208 271.218 167.418 276.893L169.039 295.853C172.205 295.904 175.191 295.801 178.048 295.621C180.52 238.87 140.699 203.065 140.416 202.833C131.998 196.616 122.989 190.141 112.822 183.176C108.446 180.184 103.812 177.553 99.1017 174.922C86.2314 167.828 78.6379 157.329 75.6519 142.806C75.1629 140.355 73.1036 137.44 70.7097 134.061C66.514 128.025 60.6451 119.641 58.9977 107.569C57.6592 98.05 57.6077 92.6071 58.6888 84.2492C59.2294 80.1477 58.2512 75.7108 57.2988 71.3513C57.0671 69.9583 56.7583 68.5911 56.5009 67.2497C55.8831 64.2058 55.1109 61.1361 54.1842 57.8343C53.7466 56.3123 53.3347 54.7903 52.8971 53.1394L54.9822 51.3079C68.1357 56.854 74.3649 65.9084 75.1629 80.5088C76.3212 102.564 87.3382 117.268 108.806 125.574C126.773 132.539 142.14 135.583 156.941 135.17C162.244 135.041 165.41 134.061 167.237 132.126C169.116 130.114 169.786 126.632 169.425 120.957C169.116 115.643 168.885 110.329 168.627 104.963C168.447 100.372 168.19 95.7542 167.958 91.1109C167.778 87.4995 168.396 84.5072 169.786 82.005C172.9 78.5741 175.886 76.4589 178.975 75.0401L181.112 76.2525C181.24 77.7229 181.42 79.1158 181.601 80.5346C181.961 83.5269 182.321 86.3387 182.321 89.202C182.27 99.572 185.539 108.368 192.129 115.411C199.31 122.995 201.086 132.023 197.431 142.342L196.582 144.792C194.085 151.809 191.588 159.031 188.293 165.867C184.458 173.916 184.818 181.371 189.271 188.026C204.33 210.365 212.927 239.927 220.521 266.007C221.627 269.799 227.882 295.44 228.938 299.129C230.457 298.948 232.593 298.768 234.781 298.587C236.557 298.458 238.797 298.278 240.212 298.097C239.363 295.053 232.773 268.354 231.126 262.963C225.592 244.39 217.895 218.929 218.152 211.784C218.333 205.851 214.806 200.176 211.151 194.191C209.375 191.379 207.625 188.516 206.209 185.524C202.914 178.559 202.425 172.935 204.742 167.209C210.945 151.705 213.751 135.454 213.159 118.893C212.721 108.085 212.618 97.3277 212.438 85.9776C212.387 82.5467 212.361 79.09 212.284 75.6076C212.232 73.3634 210.559 71.4803 208.345 71.1707C203.403 70.5 195.552 69.3392 196.607 69.0039C203.506 66.9402 212.721 58.0148 219.929 53.1394C226.132 48.9863 230.482 45.2717 230.534 45.2717L238.822 36.6042C239.311 36.1141 239.8 35.4434 240.289 34.8243L242.915 31.3419C245.849 27.5499 245.541 22.5455 242.246 19.1404L242.323 18.9857ZM81.804 185.111C91.9715 182.351 99.9512 186.401 109.347 192.437C96.6049 195.61 85.5106 198.19 74.6223 201.234C65.8447 203.684 57.3246 206.78 48.5985 209.54C45.9729 210.391 43.0642 212.171 40.6703 211.603C37.324 210.804 34.0292 213.616 31.172 206.547C29.782 199.841 34.1064 200.434 36.2172 198.061C37.6844 196.41 40.31 195.687 42.5494 195.068C55.6514 191.715 68.7534 188.645 81.804 185.111ZM74.6223 168.55C59.6412 169.84 43.9651 170.872 28.3663 172.523C19.0996 173.503 10.2963 176.237 10.2963 164.578C15.6504 149.977 31.069 153.279 42.7038 149.926C64.4547 143.709 66.3853 155.472 74.6223 168.55ZM187.959 79.5028C188.499 78.5741 189.426 77.9034 190.816 77.5423C194.033 76.7426 199.233 77.5939 201.73 79.3738L202.399 79.8123V109.916L200.134 108.575C192.695 104.241 184.355 86.4161 187.959 79.5028ZM78.1488 12.8204C79.3071 10.86 83.4514 8.61572 105.151 8.35776H105.331L132.565 11.2985L141.162 11.3501L147.803 11.6596C147.803 11.6596 157.61 11.608 167.109 12.5109C170.764 12.8204 174.96 13.3106 179.85 14.0329L189.606 15.4258L178.383 17.3089C176.375 17.6185 174.29 17.9796 172.283 18.2892C158.743 20.1207 145.641 21.0493 133.157 21.0493C129.501 21.0493 125.898 20.9977 122.371 20.8688C120.415 20.7398 117.506 20.6366 114.083 20.5592C99.5908 20.0691 87.3382 19.579 84.4038 18.6761C82.9366 18.186 78.9725 16.4061 78.7923 16.3545L78.3032 16.1223L77.9943 15.6322C77.5567 14.7035 77.5567 13.6717 78.123 12.8204H78.1488ZM161.008 102.848C160.519 106.95 160.648 111.025 160.776 115.798C160.828 118.068 160.905 120.389 160.905 122.891V124.723L159.078 124.413C155.731 123.794 152.385 123.253 149.09 122.711C132.204 119.899 116.245 117.268 101.496 109.529C97.3513 107.388 93.4645 102.874 91.7399 98.3596C91.1221 96.7602 90.633 95.0577 90.144 93.4068L87.8273 85.6422L91.9715 89.6148C97.0939 94.387 101.47 97.8695 102.757 98.8239L161.188 101.275L161.008 102.874V102.848ZM169.374 70.1131L168.267 70.9643C168.267 70.9643 168.215 71.0933 168.215 71.1449L167.726 72.0736C156.581 83.5527 143.582 89.4084 129.218 89.4084C91.7399 89.4084 79.1269 50.6888 74.9312 27.6015L74.4936 25.4604L76.6301 25.8216C78.4062 26.1311 80.0536 26.4407 81.4436 26.8018C85.4591 27.6531 89.7321 28.5043 94.5456 29.304C103.014 30.6454 111.921 31.5741 120.981 32.0642C137.739 32.8638 155.036 32.0642 173.878 29.433C179.49 28.6333 184.973 27.6531 190.687 26.3891L193.313 25.8474L192.463 28.4012C188.499 40.1899 181.24 56.983 169.374 70.1131ZM227.857 31.9352L224.15 35.7272C223.918 35.9594 217.638 43.0016 210.43 49.0379C208.062 51.1015 205.617 52.9588 203.429 54.4808L204.355 54.2486L196.067 59.511C195.217 60.0527 194.471 60.4912 193.699 60.904L188.757 63.6641L191.022 59.2014C196.015 49.3732 200.649 37.0944 203.583 28.4785L203.944 27.4983L205.334 27.4467L205.385 27.4983L209.967 27.1888C216.376 26.6986 222.451 26.2601 228.243 26.3375L232.825 26.5181L227.882 31.961L227.857 31.9352Z" fill="#231F20"/>
<path d="M83.9404 156.22L82.7821 155.549L85.7165 158.98C85.0473 158.129 84.4295 157.2 83.9404 156.22Z" fill="#231F20"/>
</g>
<defs>
<clipPath id="clip0_154_112">
<rect width="245" height="299" fill="white"/>
</clipPath>
</defs>
</svg>
