<svg width="349" height="337" viewBox="0 0 349 337" fill="none" xmlns="http://www.w3.org/2000/svg">
<g clip-path="url(#clip0_154_163)">
<path d="M376 276.388C355.502 270.887 337.806 261.032 324.827 243.739C321.236 238.955 317.237 234.482 313.453 229.817C308.065 223.168 306.748 215.872 309.646 207.74C315.081 192.431 322.6 178.176 331.005 164.326C333.592 160.045 336.178 155.763 338.548 151.338C341.733 145.43 341.182 141.22 337.064 137.513C332.155 133.111 324.971 131.987 320.254 135.121C318.123 136.556 316.351 138.517 314.363 140.168C311.897 142.177 309.358 144.114 306.844 146.076C306.628 145.908 306.389 145.741 306.173 145.573C306.748 143.229 307.347 140.885 307.898 138.541C309.358 132.466 311.035 126.438 312.256 120.338C313.884 112.206 308.999 106.489 300.69 106.346C291.135 106.178 283.952 110.053 279.426 118.592C274.661 127.586 269.871 136.556 265.01 145.693C264.412 145.382 263.813 145.191 263.334 144.856C245.662 132.226 225.715 125.314 204.571 121.415C201.314 120.817 198.057 120.267 194.777 119.812C191.161 119.334 189.03 120.96 188.575 124.572C188.335 126.414 188.455 128.328 188.383 130.193C188.311 131.868 188.239 133.518 188.144 135.097C176.697 132.657 165.563 130.289 154.164 127.873C153.661 123.52 153.23 118.664 152.512 113.832C151.818 109.072 150.884 104.336 147.435 100.533C146.382 99.3851 145.663 97.8782 145.065 96.4191C143.221 91.7788 139.222 89.4347 135.151 87.5211C124.328 82.4024 113.121 78.1447 101.459 75.3701C94.874 73.8153 88.0255 73.3848 81.2727 72.5715C76.7948 72.0214 72.269 71.6147 67.7672 71.2799C66.0191 71.1603 64.2231 71.3755 62.4751 71.5908C59.6016 71.9735 56.752 72.6911 53.8785 72.8825C44.8987 73.4804 37.5473 77.9773 30.6748 83.0482C25.9096 86.5404 24.9996 91.9701 26.2448 97.7825C26.6758 99.7918 26.5561 102.016 26.149 104.049C24.8799 110.077 23.3952 116.081 21.9106 122.061C20.9527 125.912 19.8752 129.715 18.7497 133.518C18.1032 135.719 17.1693 137.847 16.5467 140.072C13.7689 149.783 11.1588 159.518 8.30925 169.206C6.13016 176.573 3.2327 183.773 1.50858 191.259C-0.742339 201.066 -0.790231 211.089 4.45394 220.058C6.87249 224.196 11.0391 227.282 14.2 231.037C19.7794 237.711 27.945 238.979 35.5119 241.347C47.9399 245.269 60.4157 249.049 72.9634 252.541C79.7401 254.407 86.6605 256.081 93.6288 256.799C98.4659 257.277 103.566 256.344 108.404 255.316C113.504 254.239 118.557 252.637 123.394 250.675C132.445 246.992 138.552 240.342 141.784 231.037C142.79 228.143 143.963 228.143 146.909 229.028C152.105 230.583 157.421 231.898 162.761 232.951C169.298 234.243 175.931 235.199 183.067 236.395C182.085 240.079 180.696 244.193 179.954 248.403C179.14 253.091 178.709 257.899 178.589 262.659C178.565 263.759 180.265 265.601 181.487 265.936C197.77 270.385 214.005 274.953 230.432 278.804C239.604 280.957 249.134 280.766 258.497 279.402C264.531 278.517 269.728 279.929 274.23 283.756C277.63 286.65 280.767 289.855 283.928 293.012C287.4 296.457 291.279 298.968 296.02 300.643C301.36 302.556 306.437 305.355 311.418 308.153C328.036 317.434 344.559 326.882 361.106 336.283C361.489 336.498 361.8 336.809 362.159 337.072H362.686C363.764 333.986 364.841 330.901 365.943 327.791C364.841 327.193 364.003 326.715 363.141 326.236C350.306 318.989 337.327 311.957 324.66 304.422C308.4 294.759 292.955 283.947 280.096 269.835C275.834 265.146 270.183 264.046 264.1 264.764C256.557 265.673 249.038 266.725 241.495 267.634C232.156 268.758 224.542 265.84 219.345 257.731C214.652 250.46 208.019 246.035 199.757 243.739C196.405 242.806 193.148 241.538 189.892 240.294C187.832 239.505 187.473 238.165 189.054 236.682C190.035 235.749 191.376 235.151 192.646 234.625C193.867 234.123 195.375 234.171 196.477 233.501C200.404 231.181 204.116 231.922 208.186 233.262C216.4 235.965 224.733 238.381 233.09 240.629C237.257 241.753 239.963 240.222 241.783 236.3C242.645 234.458 243.291 232.473 243.794 230.511C247.626 215.729 247.434 200.779 245.015 185.83C242.19 168.369 232.132 157.031 215.298 151.625C214.101 151.242 212.928 150.836 211.754 150.381C202.799 146.817 197.171 140.383 195.16 130.935C194.944 129.954 195.399 128.806 195.543 127.753C196.573 127.897 197.77 127.777 198.632 128.232C207.636 132.944 216.352 137.967 226.793 139.474C240.729 141.507 252.295 148.3 261.179 159.494C263.119 161.958 265.633 164.278 268.363 165.761C279.019 171.526 285.987 180.017 289.148 191.738C290.824 197.933 292.788 204.056 295.015 210.06C298.056 218.24 300.546 226.851 304.952 234.29C317.284 255.148 334.981 270.241 357.586 279.283C362.758 281.364 368.218 282.727 373.629 284.473C374.563 281.938 375.282 279.976 376 277.991C376 277.465 376 276.915 376 276.388ZM20.6654 221.087C19.5878 220.13 18.8934 219.484 18.175 218.886C13.9605 215.394 12.3082 210.467 10.7757 205.515C10.2489 203.841 10.201 201.832 10.5602 200.086C11.4222 195.804 12.5237 191.57 13.7689 187.384C16.2593 179.013 18.9892 170.713 21.4556 162.317C23.6586 154.806 25.6461 147.248 27.8971 139.067C32.2313 140.622 36.35 142.153 40.5166 143.588C45.3776 145.262 50.2626 146.865 55.1476 148.492C61.9962 150.764 68.8687 152.319 76.1722 150.62C77.9921 150.19 80.1951 150.74 82.039 151.338C84.9843 152.295 87.7142 153.85 90.6595 154.854C96.0713 156.72 101.555 157.653 107.158 155.428C108.068 155.069 109.194 155.213 110.199 155.141C109.457 158.155 108.523 160.882 108.164 163.656C106.895 173.535 105.937 183.462 104.644 193.34C103.83 199.559 102.441 205.731 101.603 211.95C100.525 220.082 99.8787 228.263 98.8012 236.395C98.442 239.026 97.3644 241.562 96.4784 244.576C86.5887 243.332 76.9385 242.136 67.0727 240.916C67.4558 239.6 67.7911 238.692 68.0066 237.735C70.066 228.98 72.4366 220.274 74.0889 211.423C76.5074 198.531 78.4231 185.543 80.5543 172.602C81.3445 167.842 82.2784 163.106 82.8292 158.322C82.9729 156.983 82.3982 154.806 81.4164 154.208C78.1837 152.247 72.6521 154.687 71.5506 158.299C70.5688 161.528 69.6349 164.757 68.8926 168.034C67.6714 173.392 66.4741 178.75 65.5402 184.155C64.4387 190.566 63.6963 197.024 62.6188 203.434C61.5172 209.964 60.4157 216.494 58.9071 222.953C57.6619 228.263 55.842 233.453 54.1658 239.026C47.0539 236.634 39.7024 237.209 33.692 232.736C31.0579 230.774 30.7706 230.439 32.0397 227.497C34.5541 221.613 37.0444 215.729 39.1517 209.701C40.8758 204.774 41.9055 199.631 43.3901 194.632C46.8384 183.031 50.3584 171.454 53.8785 159.877C54.9081 156.505 55.7942 153.275 53.3517 150.022C51.6036 147.726 50.2866 147.056 48.347 149.066C45.665 151.84 42.8394 154.854 41.3787 158.299C38.4573 165.235 36.2542 172.507 34.0512 179.754C30.9382 189.944 28.2084 200.253 25.0954 210.443C24.0178 213.983 22.2698 217.308 20.6654 221.111V221.087ZM194.441 224.172C177.129 227.856 161.18 220.943 147.028 217.427C152.033 191.953 153.973 166.168 154.308 140.072C155.864 140.168 157.038 140.072 158.163 140.311C166.353 141.986 174.518 143.612 182.66 145.454C187.545 146.554 192.119 148.372 195.806 152.079C196.836 153.132 198.464 153.586 199.805 154.304C200.093 154.065 200.38 153.826 200.691 153.586C201.458 156.648 202.751 159.686 202.87 162.748C203.038 166.886 202.344 171.048 201.913 175.21C201.434 180.065 200.931 184.921 200.284 189.753C199.326 196.761 198.44 203.793 197.076 210.73C196.309 214.653 197.195 218.91 194.657 222.474C194.394 222.833 194.513 223.503 194.441 224.149V224.172ZM141.664 115.004V146.243C139.102 145.98 137.019 145.43 134.984 145.621C132.254 145.884 129.452 146.435 126.89 147.367C123.37 148.659 120.017 148.3 117.168 146.291C113.624 143.779 110.008 144.21 106.153 144.664C103.255 144.999 100.166 145.597 97.4123 144.952C93.2936 144.019 89.1749 142.512 85.5111 140.479C81.9192 138.493 78.471 138.254 74.6875 138.948C70.2096 139.761 65.7796 139.665 61.4694 138.206C51.412 134.762 41.3787 131.198 31.2974 127.682C33.237 120.889 35.2724 113.713 37.3078 106.633C42.2886 108.283 47.1257 110.627 52.2262 111.488C65.1331 113.641 78.1118 115.315 91.0906 116.822C99.7351 117.827 108.451 118.401 117.144 118.903C125.453 119.382 133.738 119.31 141.641 115.028L141.664 115.004ZM59.7692 81.7326C72.245 81.7326 84.5294 83.12 96.5263 85.9903C106.991 88.5018 117.24 91.9701 127.536 95.1753C130.601 96.1321 133.667 97.1128 135.486 100.342C137.234 103.404 136.851 105.676 133.475 106.776C131.392 107.446 129.069 108.068 126.938 107.924C115.468 107.087 103.973 106.106 92.5273 104.982C84.0744 104.145 75.6214 103.308 67.2643 101.921C59.7931 100.677 52.3938 98.8828 45.0903 96.9214C42.1449 96.1321 38.6728 94.96 39.6306 90.4632C39.7024 90.1522 39.5348 89.7456 39.3911 89.4347C38.6728 87.8321 39.2235 86.6361 40.6363 85.8228C41.9294 85.0813 43.2704 84.1246 44.6832 83.8615C49.6879 83.0004 54.7405 82.4263 59.7692 81.7565V81.7326ZM119.682 158.681C124.711 159.71 129.356 158.203 133.858 156.672C138.336 155.165 140.994 156.624 140.515 161.241C139.102 174.779 137.522 188.293 135.917 201.808C134.361 214.796 128.135 225.655 119.802 235.415C117.359 238.285 114.246 240.581 110.175 241.681C109.864 240.007 109.266 238.62 109.385 237.28C110.152 229.507 110.87 221.733 112.043 214.031C113.025 207.644 114.917 201.377 115.851 194.967C117.575 183.007 119.802 171.095 119.706 158.681H119.682ZM233.617 233.262C224.446 230.607 215.538 228.119 206.702 225.368C206.055 225.177 205.457 223.216 205.648 222.211C206.367 218.288 207.516 214.437 208.258 210.491C208.929 206.998 209.288 203.434 209.767 199.894C211.491 186.547 213.143 173.2 211.922 159.471C212.856 160.069 213.742 160.595 214.604 161.193C217.813 163.417 220.926 165.833 224.254 167.866C229.882 171.311 233.042 176.19 234.264 182.648C236.371 193.843 235.94 205.061 235.03 216.303C234.599 221.804 234.096 227.306 233.593 233.238L233.617 233.262ZM288.884 169.899C286.035 166.933 283.473 164.207 280.863 161.552C275.81 156.409 274.924 150.549 277.821 144.09C280.743 137.584 283.712 131.102 286.729 124.644C288.693 120.458 291.519 117.062 296.14 115.674C297.529 115.268 299.181 114.957 300.546 115.292C305.407 116.487 306.868 119.621 304.952 125.075C299.756 139.785 294.44 154.471 288.884 169.899ZM301.815 203.841C298.894 195.326 297.146 187.432 301.6 179.395C306.604 170.33 311.561 161.241 316.422 152.103C318.482 148.205 320.804 144.617 324.42 141.89C326.12 140.598 327.701 140.168 329.593 141.077C331.7 142.081 333.735 143.54 333.496 146.004C333.232 148.587 332.706 151.505 331.293 153.586C320.996 168.775 311.992 184.682 303.515 200.923C303.084 201.76 302.582 202.549 301.815 203.865V203.841ZM212.329 264.644C211.419 264.501 210.892 264.477 210.413 264.333C203.661 262.635 196.908 260.913 190.155 259.214C186.659 258.329 186.252 257.827 186.3 254.096C186.3 253.211 186.396 252.302 186.563 251.441C187.641 246.274 189.892 244.934 194.849 246.896C201.553 249.527 206.774 254.048 210.509 260.195C211.276 261.439 211.635 262.922 212.329 264.644Z" fill="black"/>
<path d="M376 277.991C375.282 279.952 374.563 281.938 373.629 284.473C368.218 282.751 362.758 281.364 357.585 279.283C334.98 270.241 317.284 255.124 304.952 234.29C300.546 226.851 298.056 218.264 295.015 210.06C292.788 204.056 290.8 197.909 289.148 191.738C285.963 179.993 279.019 171.526 268.363 165.761C265.633 164.278 263.119 161.958 261.179 159.494C252.319 148.276 240.753 141.507 226.792 139.474C216.352 137.943 207.636 132.92 198.632 128.232C197.746 127.777 196.573 127.897 195.543 127.753C195.399 128.806 194.944 129.954 195.16 130.935C197.171 140.383 202.799 146.817 211.754 150.381C212.904 150.836 214.101 151.242 215.298 151.625C232.132 157.031 242.19 168.369 245.015 185.83C247.434 200.779 247.625 215.705 243.794 230.511C243.291 232.496 242.645 234.458 241.783 236.3C239.963 240.246 237.257 241.753 233.09 240.629C224.733 238.381 216.4 235.965 208.186 233.262C204.116 231.922 200.38 231.181 196.477 233.501C195.375 234.171 193.867 234.099 192.645 234.625C191.376 235.151 190.035 235.773 189.054 236.682C187.473 238.165 187.808 239.505 189.892 240.294C193.148 241.538 196.405 242.806 199.757 243.738C208.019 246.035 214.676 250.46 219.345 257.731C224.542 265.816 232.156 268.758 241.495 267.634C249.038 266.725 256.557 265.673 264.1 264.764C270.159 264.046 275.834 265.146 280.096 269.834C292.931 283.971 308.376 294.758 324.66 304.422C337.327 311.956 350.306 318.989 363.141 326.236C364.003 326.715 364.841 327.193 365.943 327.791C364.841 330.901 363.764 333.986 362.686 337.072H376.12C376.12 317.41 376.12 297.724 376.12 278.063L376 277.991Z" fill="white"/>
<path d="M128.135 57.1194C127.321 54.9906 127.081 52.1442 125.549 50.9004C122.891 48.7716 120.831 45.3989 117.12 44.9206C112.45 44.3226 108.332 45.8534 104.955 49.2021C104.261 49.8958 103.303 50.3981 102.896 51.2113C102.249 52.4791 101.196 54.3448 101.675 55.2298C104.285 60.0854 107.134 65.0128 112.355 67.5244C119.922 71.1362 127.536 67.3808 128.159 57.1194H128.135ZM116.569 53.986C117 55.6125 118.652 57.9088 116.018 58.6024C113.36 59.2961 110.367 58.7699 107.326 58.7699C109.17 54.4883 112.546 53.8903 116.569 53.986Z" fill="black"/>
<path d="M86.9958 8.7785C87.0676 6.74536 86.5647 5.21452 84.4575 4.25774C83.4757 3.82719 83.0447 2.27244 82.1108 1.62661C77.9202 -1.26763 70.7125 -0.143421 67.4798 3.73152C65.6838 5.90818 65.5162 8.85026 67.2882 11.0748C70.7125 15.3324 75.1425 18.0114 80.5543 18.8246C81.6079 18.9921 83.3799 18.2745 83.8588 17.4373C85.3674 14.7823 86.4211 11.888 87.6663 9.06554C87.4507 8.96986 87.2352 8.87418 87.0197 8.7785H86.9958Z" fill="black"/>
<path d="M20.6654 221.087C22.2698 217.284 24.0178 213.959 25.0954 210.419C28.2084 200.229 30.9382 189.92 34.0512 179.73C36.2542 172.507 38.4573 165.235 41.3787 158.275C42.8394 154.806 45.665 151.792 48.347 149.042C50.2866 147.033 51.6276 147.702 53.3517 149.999C55.7942 153.228 54.9082 156.481 53.8785 159.853C50.3345 171.43 46.8384 183.007 43.3901 194.608C41.9055 199.607 40.8519 204.75 39.1517 209.677C37.0444 215.705 34.5541 221.613 32.0397 227.473C30.7706 230.415 31.0579 230.75 33.692 232.712C39.7024 237.209 47.0299 236.611 54.1658 239.002C55.8421 233.429 57.6619 228.239 58.9071 222.929C60.4157 216.494 61.5173 209.94 62.6188 203.41C63.6963 197 64.4387 190.542 65.5402 184.131C66.4741 178.726 67.6714 173.344 68.8926 168.01C69.6349 164.733 70.5688 161.504 71.5506 158.275C72.6521 154.663 78.1837 152.223 81.4164 154.184C82.3982 154.782 82.9729 156.959 82.8292 158.299C82.2784 163.082 81.3445 167.818 80.5543 172.578C78.4231 185.519 76.5074 198.507 74.0889 211.4C72.4366 220.25 70.066 228.956 68.0066 237.711C67.7911 238.668 67.4559 239.577 67.0727 240.892C76.9145 242.112 86.5887 243.332 96.4784 244.552C97.3644 241.538 98.4659 239.003 98.8012 236.371C99.8787 228.239 100.525 220.058 101.603 211.926C102.417 205.707 103.83 199.536 104.644 193.317C105.937 183.438 106.895 173.511 108.164 163.633C108.523 160.834 109.457 158.131 110.199 155.117C109.218 155.189 108.092 155.046 107.158 155.404C101.555 157.629 96.0713 156.696 90.6595 154.83C87.7381 153.826 84.9843 152.271 82.039 151.314C80.1712 150.716 77.9921 150.19 76.1722 150.597C68.8687 152.295 61.9962 150.74 55.1476 148.468C50.2626 146.841 45.3777 145.239 40.5166 143.564C36.35 142.129 32.2313 140.598 27.8971 139.043C25.6461 147.224 23.6586 154.782 21.4556 162.293C18.9892 170.665 16.2593 178.989 13.7689 187.361C12.5237 191.546 11.4222 195.78 10.5602 200.062C10.201 201.808 10.2489 203.817 10.7757 205.491C12.2843 210.419 13.9605 215.37 18.175 218.862C18.8934 219.46 19.5878 220.106 20.6654 221.063V221.087Z" fill="white"/>
<path d="M194.441 224.173C194.513 223.527 194.394 222.881 194.657 222.498C197.219 218.934 196.309 214.653 197.076 210.754C198.44 203.817 199.326 196.785 200.284 189.776C200.955 184.945 201.434 180.089 201.913 175.234C202.32 171.095 203.014 166.91 202.87 162.772C202.751 159.686 201.458 156.648 200.691 153.61C200.404 153.85 200.117 154.089 199.805 154.328C198.464 153.61 196.836 153.132 195.806 152.103C192.143 148.396 187.545 146.602 182.66 145.478C174.518 143.636 166.329 141.986 158.163 140.335C157.038 140.096 155.864 140.192 154.308 140.096C153.997 166.192 152.033 191.977 147.028 217.451C161.157 220.967 177.128 227.88 194.441 224.196V224.173Z" fill="white"/>
<path d="M141.664 115.004C133.738 119.286 125.453 119.358 117.168 118.879C108.475 118.377 99.759 117.803 91.1145 116.798C78.1118 115.267 65.1331 113.617 52.2501 111.464C47.1496 110.603 42.2886 108.283 37.3318 106.609C35.2964 113.713 33.261 120.865 31.3214 127.658C41.4026 131.174 51.436 134.738 61.4933 138.182C65.8036 139.665 70.2336 139.761 74.7115 138.924C78.495 138.23 81.9432 138.493 85.5351 140.455C89.2228 142.488 93.3415 143.995 97.4362 144.927C100.19 145.549 103.279 144.975 106.177 144.64C110.032 144.186 113.648 143.755 117.192 146.267C120.041 148.276 123.394 148.635 126.914 147.343C129.5 146.41 132.278 145.86 135.007 145.597C137.019 145.406 139.102 145.956 141.688 146.219V114.98L141.664 115.004Z" fill="white"/>
<path d="M59.7692 81.7327C54.7405 82.4263 49.6879 83.0004 44.6832 83.8376C43.2465 84.0768 41.9294 85.0335 40.6363 85.799C39.2235 86.6122 38.6728 87.8082 39.3912 89.4108C39.5348 89.7217 39.7025 90.1284 39.6306 90.4393C38.6728 94.9362 42.121 96.1082 45.0903 96.8975C52.4178 98.835 59.7931 100.653 67.2643 101.897C75.6214 103.284 84.0744 104.145 92.5273 104.958C103.973 106.083 115.468 107.063 126.938 107.9C129.093 108.068 131.392 107.446 133.475 106.752C136.851 105.652 137.234 103.404 135.486 100.318C133.667 97.0889 130.601 96.1082 127.536 95.1514C117.24 91.9462 106.991 88.4779 96.5263 85.9664C84.5294 83.0961 72.2211 81.7327 59.7692 81.7087V81.7327Z" fill="white"/>
<path d="M119.682 158.681C119.778 171.071 117.551 183.007 115.827 194.967C114.917 201.377 113.001 207.62 112.019 214.031C110.846 221.733 110.128 229.53 109.361 237.28C109.218 238.62 109.84 240.007 110.152 241.681C114.222 240.581 117.335 238.309 119.778 235.415C128.111 225.655 134.337 214.796 135.894 201.808C137.522 188.293 139.078 174.779 140.491 161.241C140.97 156.624 138.312 155.165 133.834 156.672C129.308 158.203 124.687 159.71 119.658 158.681H119.682Z" fill="white"/>
<path d="M233.617 233.262C234.12 227.33 234.623 221.828 235.054 216.327C235.94 205.085 236.395 193.867 234.288 182.672C233.066 176.214 229.905 171.334 224.278 167.89C220.95 165.857 217.837 163.441 214.628 161.217C213.766 160.619 212.856 160.068 211.946 159.494C213.167 173.224 211.515 186.571 209.791 199.918C209.336 203.458 208.953 207.022 208.282 210.514C207.54 214.437 206.367 218.288 205.672 222.235C205.481 223.24 206.079 225.177 206.726 225.392C215.562 228.119 224.446 230.631 233.641 233.286L233.617 233.262Z" fill="white"/>
<path d="M288.884 169.899C294.416 154.448 299.756 139.785 304.952 125.075C306.868 119.645 305.431 116.488 300.546 115.292C299.181 114.957 297.529 115.268 296.14 115.674C291.519 117.062 288.693 120.434 286.729 124.644C283.712 131.102 280.743 137.584 277.821 144.09C274.924 150.573 275.786 156.433 280.863 161.552C283.497 164.207 286.059 166.933 288.884 169.899Z" fill="white"/>
<path d="M301.815 203.841C302.582 202.525 303.084 201.736 303.515 200.899C311.992 184.658 320.996 168.751 331.293 153.562C332.706 151.481 333.232 148.563 333.496 145.98C333.735 143.516 331.7 142.057 329.593 141.053C327.701 140.144 326.12 140.574 324.42 141.866C320.828 144.593 318.506 148.181 316.422 152.079C311.561 161.217 306.628 170.33 301.6 179.371C297.146 187.408 298.87 195.302 301.815 203.817V203.841Z" fill="white"/>
<path d="M212.329 264.644C211.635 262.922 211.276 261.439 210.509 260.195C206.774 254.048 201.553 249.527 194.849 246.896C189.892 244.958 187.665 246.274 186.563 251.441C186.372 252.302 186.3 253.211 186.3 254.096C186.252 257.827 186.659 258.353 190.155 259.214C196.908 260.913 203.661 262.635 210.413 264.333C210.892 264.453 211.419 264.501 212.329 264.644Z" fill="white"/>
<path d="M116.569 53.9862C112.57 53.8905 109.194 54.4645 107.326 58.77C110.343 58.77 113.36 59.3202 116.018 58.6026C118.652 57.9089 117 55.6127 116.569 53.9862Z" fill="white"/>
</g>
<defs>
<clipPath id="clip0_154_163">
<rect width="376" height="337" fill="white"/>
</clipPath>
</defs>
</svg>
