<svg xmlns="http://www.w3.org/2000/svg" viewBox="0 0 6728.81 5544.37">
  <path fill="#fff"
    d="M3133.9 3611.89c58.46,-120.16 179.15,-203.02 291.74,-283.99 84.39,-63.46 180.24,-99.67 286.23,-88.43 3.57,0.1 6.7,1.1 10.16,1.59 4.22,1.01 14.69,2.09 22.37,4.79 15.77,2.28 37.06,17.1 55.54,25.46l14.38 7.36c5.49,3.38 5.71,-3.98 7.56,-3.88 7.12,-8.26 98.11,-75.81 37.7,-137.17 -0.53,-2.59 -2.69,-14.63 -3.13,-14.13 -2.16,-4.48 -3.25,-8.45 -2.7,-15.42 -0.21,-8.35 8.64,-22.67 15.44,-19.39 5.19,1.89 7.36,5.06 7.46,3.18 6.7,6.67 12.64,13.43 21.72,29.65 14.27,27.85 35.65,62.07 38.9,15.7 1.3,-35.5 -3.03,-81.85 -22.48,-124.42 -8.53,-15.82 -44.4,-47.24 -47.32,-48.25 -302.45,-106.03 -662.14,-12.92 -866.59,216.24 -7.24,7.96 -128.79,149.5 -133.23,152 -0.64,-20.3 -67.41,-103.85 -67.41,-103.85 6.69,1.3 38.35,-16.01 46.68,-28.35 38.02,-48.44 45.91,-116.28 27.23,-163.73l-1.64 -4.17 0 -0.21c7.35,-5.76 18.49,-18.99 24,-26.64 60.83,-79.68 45.6,-189.89 -36.95,-250.66 13.17,-35.82 11.02,-69.13 7.66,-95.79 -10.91,-73.41 -25.81,-158.27 -76.49,-224.1 27.66,-18.2 43.75,-46.06 51.21,-71.73 11.56,-43.06 6.04,-83.15 -14.9,-121.94 -21.5,-35.5 -56.41,-72.31 -120.16,-77.79 -10.48,-0.4 -20.86,0.4 -31.13,2.4 -86.87,22.17 -112.15,98.18 -97.78,162.22 -29.92,0 -59.21,3.48 -85.25,9.85 -85.68,19.2 -158.84,64.85 -224.21,114.39 6.38,-68.93 -4.98,-150.9 -27.13,-216.35 -8.74,-28.24 -21.72,-56.89 -38.24,-77.09 -16.1,-20.38 -32.86,-30.63 -32.86,-30.63 -29.61,-16.9 -46.9,-19.6 -69.14,-25.66 -21.19,-4.78 -42.59,-7.86 -65.17,-8.86 -30.68,-0.3 -64.72,-1.18 -105.77,20.8 -52.41,30.33 -97.79,67.23 -141.87,105.54 7.66,-72.61 -6.07,-173.49 -76.83,-215.95l-45.93 -27.65c-15.34,8.95 -32.09,28.75 -48.08,41.87 -36.84,32.22 -44.85,36.5 -62.35,48.75 -61.91,41.07 -143.06,76.69 -214.47,83.45l-19.89 0.9c-1.63,0 -5.51,0 -7.13,0 -24.43,-0.6 -48.09,-3.98 -74.46,-8.86 -29.06,-4.08 -102.97,-13.63 -143.92,-24.37 -74.66,-14.92 -126.74,-64.66 -124.26,-60.38 -31.34,-13.43 -48.73,9.65 -51.32,37.2 29.61,44.67 90.21,87.24 143.27,107.34 48.41,19.98 104.82,34.3 137.13,43.26 33.71,6.76 72.61,13.23 110.85,14.03 37.6,1.18 128.27,-20.11 126.64,-15.73 -1.09,2.58 82.77,63.67 177.96,62.67 -84.82,28.05 -271.86,54.91 -336.04,125.42 -19.55,25.07 -28.1,59.79 -14.05,89.23 5.19,16.51 14.7,27.35 24.32,36.91 0.87,0.88 15.44,17.31 15.65,17.5 -0.42,1.88 216.34,216.84 216.34,216.84l0.75 1.4c0,0 4.11,5.96 4.55,7.86 1.93,3.38 2.7,7.16 3.66,10.94 3.25,18.99 -4.31,40.47 -15.24,58.77l-5.18 8.16c-82.45,-16.6 -201.41,-109.01 -231.55,-55.21 -3.78,6.68 48.51,183.03 49.47,198.95l1.74 17.51c-5.83,14.22 -33.61,38.18 -51,47.85 -5.29,2.48 2.05,1.17 -11.45,0.68 -87.09,-18.49 -114.32,-77.88 -195.14,-116.77 -11.46,-8.95 -54.89,4.17 -51.33,11.83 9.29,18.3 55.21,108.72 65.48,128.92 16.21,27.64 14.8,41.57 13.18,57.89 -0.86,25.06 -1.73,61.47 -12.21,83.15 -5.83,9.36 -2.81,6.17 -6.47,8.16 -17.07,7.66 -32.31,15.03 -42.91,18.61 -11.99,3.57 -8.43,1.78 -9.07,2.38 0.53,0.2 -1.09,-0.6 -3.9,-2.89l-17.28 -15.62c-120.27,-113.9 -200.12,-250.96 -299.96,-387.52 -280.29,-371.72 -526.22,-784.2 -586.41,-1234.4 16.54,-34.02 33.83,-101.96 49.93,-126.83 11.46,-15.12 15.34,-17.4 51.98,-26.85 229.4,-56.5 479.85,-136.87 709.89,-176.85 682.58,-116.18 1409.78,-332.62 2074.19,-139.76 -102.54,156.56 -216.32,329.24 -309.15,490.38 -1.5,-5.47 -128.56,279.3 -118.74,274.83 -36.74,120.95 -39.87,199.63 58.57,26.66 63.54,-99.68 156.66,-238.44 156.66,-238.44 94.33,-164.31 205.85,-333.6 310.55,-493.15 7.57,-10.84 43.22,-38.3 49.38,-34.61 3.78,2.68 4.76,2.68 7.68,2.68l195.47 0.9c37.6,-0.7 72.49,3.68 122.85,-10.15 88.17,-14.62 210.59,-232.46 206.28,-265.08 -37.07,-20.2 -54.68,-25.56 -66.57,-34.52 -15.24,-10.54 -64.71,112 -104.91,149.21 -41.29,40.97 -63.66,44.95 -63.66,44.95 -15.12,7.37 -44.18,8.16 -81.78,7.56l-11.57 -0.39 -195.46 -1c-2.7,0.4 -55.76,-3.68 -55.76,-3.68 -125.34,-42.27 -350.31,-71.71 -508.49,-94.69 -575.72,-42.97 -1130.68,120.75 -1687.13,211.87 -207.9,35.4 -417.2,101.46 -618.62,152.68 -41.7,13.03 -122.09,26.35 -164.99,48.84 -61.49,28.54 -85.04,109.31 -100.16,154.97 -5.63,15.81 -9.29,25.76 -17.71,44.36 -19.79,21.68 -4.77,64.06 -4.56,73.21 73.91,458.94 319.52,884.27 604.34,1257.87 57.93,79.67 112.82,164.23 175.59,246.48 -87.42,67.65 -200.22,205.51 -86.99,306.17 31.67,20 26.49,25.36 75.53,57.59 40.64,24.86 82.24,14.22 104.05,-0.7 25.52,-15.5 30.05,-20.69 30.05,-20.69 9.51,-3.48 95.63,-122.24 89.8,-119.05 3.66,-6.07 6.91,-12.05 9.83,-17.71 27.01,4.08 55.22,-1 71.2,-7.26 39.66,-17.02 64.62,-22.08 93.15,-50.43 10.79,-11.84 17.6,-23.38 23.02,-34.42 14.36,-32.03 18.25,-58.59 20.52,-90.02l0.76 -18.1 35.22 7.06c12.74,1.49 25.19,2.38 43.77,0.3 16.31,-2.2 36.3,-10.34 46.35,-16.82 19.55,-11.52 35.65,-23.86 51.32,-38.18 25.29,-23.39 55.65,-60.78 54.25,-100.36 -0.12,-15.83 -1.42,-20.91 -2.49,-31.15l-5.62 -35 32.21 7.06 39.44 7.56c17.16,1.98 34.14,4.08 47.54,-4.28 14.14,-5.68 26.89,-16.22 36.94,-29.65 8.44,-9.84 16.76,-21.98 23.23,-32.92 10.5,-17.9 19.35,-37.21 24.97,-58.69 5.08,-17.1 5.72,-36.91 3.68,-56.69 69.79,-93.99 150.94,-185.51 238.9,-266.18 0,0 13.17,-12.93 33.17,-32.53 19.12,-17.7 49.05,-42.96 73.58,-55.2 38.79,-27.35 83.63,27.76 79.09,21.98 51.44,67.15 -6.36,122.26 5.63,136.08 -140.48,122.74 -225.3,211.27 -354.96,342.27 -187.03,205 -541.78,593.82 -725.13,794.95 -1.31,2.38 -6.6,4.88 -4.55,7.26 25.61,25.56 62.03,62.16 87.85,88.02 359.61,338.88 864.21,530.47 1373.88,563.99 16.64,0.28 91.85,3.66 107.09,2.98 39.98,-1 92.5,-2.19 132.47,-3.48 3.89,-1 11.14,1.58 12.32,-2.4l3.03 -12.62c1.08,-5.18 8.21,-40.49 11.03,-55.01 1.28,-8.16 2.79,-17.4 4.52,-27.46 11.25,-44.05 21.4,-274.12 19.89,-283.29 200.54,-78.37 306.65,-240.99 388.45,-415.06l0.32 -0.99zm-2198.76 -261.11c-46.03,68.54 -101.69,95.28 -99.52,90.92 0,0 -3.23,2.58 -9.08,7.16l-0.43 0c7.67,7.86 -19.56,-19.5 -49.16,-39.39 -2.71,-0.39 -10.16,-14.24 -7.25,-27.76 4.65,-32.32 54.89,-83.15 87.42,-110.5 21.06,24.07 43.45,47.63 67.53,70.21 2.17,1.8 10.93,8.97 10.27,9.36l0.22 0zm1772.49 -1020.15c32.95,-8.34 37.07,-45.05 38.68,-43.87 0,0 39.34,37.71 -7.87,59.49 -0.44,1.6 -29.4,-6.56 -33.51,-7.46 0,-0.5 0.11,-1.3 0,-1.69 0.98,-2.19 1.3,-3.67 2.81,-6.57l-0.11 0.1zm-1144.6 -139.44c25.71,-11.85 90.98,-55.61 101.79,-65.55 0,0 13.29,-13.83 13.5,-13.15 6.6,22.78 19.03,63.27 15.89,89.33 -10.06,25.07 -71.33,70.22 -132.7,37.99 -1.61,-0.88 -21.06,-24.16 -33.7,-31.92 11.89,-5.47 23.66,-10.84 35.34,-16.7l-0.12 0zm-130.85 351.71c-4.43,-4.58 -56.62,-56.21 -52.73,-53.11 -2.16,1.18 8.43,-5.98 20.11,-12.54 53.25,-26.97 109.76,-40.39 170.93,-58.89 -44.73,42.67 -91.42,85.15 -138.31,124.54zm605.52 -173.77c-53.26,-12.84 -100.06,9.44 -127.94,23.47 -163.37,96.99 -211.45,179.14 -322.41,305.96 -18.06,-18.2 -57.49,-57.98 -75.43,-75.79 164.79,-135.28 299.85,-301.09 480.62,-416.28 1.85,-2.08 19.88,-5.67 38.03,-4.46 23.12,0.88 50.57,6.56 70.14,14.12 0.64,1 4.64,-1.6 17.71,10.74 32.75,20.68 90.87,210.87 86.22,204.11 5.51,22.19 9.73,42.27 13.51,60.27 -26.47,20.1 -65.37,11.74 -87.2,-41.87 -14.04,-31.84 -43.1,-66.94 -93.35,-80.37l0.1 0.1zm1019.81 1143.18c-102.01,202.81 -250.48,449.1 -517.91,439.24 -2.14,0.2 -6.91,3.2 -7.87,3.58 -27.89,17.82 -28,98.08 -8.12,104.06 49.38,5.66 97.25,0.7 142.43,-10.14 -0.22,1.98 -0.44,3.48 -0.65,5.56 -11.24,79.97 -30.81,176.65 -53.39,247.48l-0.64 0 -0.54 -0.3 -0.44 0.2 -71.84 0.9c-487.21,-12.14 -982.11,-188.19 -1335.87,-499.34 -19.23,-15.42 -40.08,-38.08 -53.69,-51.22l0 -0.3c132.36,-145.12 502.65,-551.15 640.09,-701.75 147.28,-153.17 302.66,-305.27 464.1,-442.83 82.1,-66.45 165.09,-136.76 254.99,-160.44 46.15,-13.13 91.31,-15.31 124.49,-1.38 83.83,36.4 103.84,135.86 116.58,219.91 6.71,50.23 1.73,64.55 -26.25,80.77 -118.32,48.35 -393.85,-42.67 -437.09,-165.42 -26.24,-18 -33.27,14.03 -51.2,22.08 -18.26,6.88 -32.75,31.55 -31.76,34.72 75.62,190.09 387.03,287.67 581.85,200.34 10.91,9.84 21.4,22.18 27.11,35.7 4.12,10.44 5.52,15.42 4.99,20.88 -0.56,15.32 -9.51,38.51 -19.12,51.93 -2.38,2.99 -4.55,5.76 -6.38,7.46 -1.08,0.1 11.01,27.25 3.35,47.65 -5.95,30.53 -44.2,31.53 -50.46,40.18 11.45,12.33 19.76,31.93 19.11,32.33 0,0 8.54,15.42 8.11,40.79 12.21,69.13 -39.77,89.81 -43.77,93.3 -7.12,0.19 -3.44,20.38 -12.42,42.36 12,10.94 18.81,21.28 26.49,29.95 4.64,5.47 16.85,22.78 17.93,21.88 28.52,36.6 45.59,68.73 55.75,85.93 -6.27,6.48 -12.43,13.24 -18.8,19.7 0,0 -49.71,57.39 -106.43,102.36 -55.98,46.95 -121.78,70.01 -115.73,68.63 -53.69,23.08 -55.33,10.24 -68.72,19.89 20.3,33.02 -2.93,64.16 55.11,54.9 89.04,-3.48 269.8,-120.74 310.53,-161.22 53.28,-49.55 169.98,-186.51 219.25,-242.32 159.6,-177.15 433.29,-264.78 675.32,-199.63 -5.83,14.92 -10.16,30.94 -12.09,47.85 -2.59,47.84 -2.59,34.72 -4.11,38.5 -1.95,0.68 -3.66,-1.3 -3.66,-1.3 0.31,0.4 -0.34,0 -0.34,0l-0.31 0c3.56,0.7 -11.25,-2.78 -20.66,-3.38l-30.45 -2.6c-117.68,-5.36 -237.51,36.91 -326.76,102.85 -113.9,80.98 -231.67,162.53 -310.33,280.11l0.22 -0.4z" />
  <path fill="#fff"
    d="M6716.38 3931.07c-47.23,-287.56 -170.3,-558.12 -301.68,-818.52 -139.5,-258.42 -273.38,-518.82 -468.96,-747.2 -297.14,-319 -689.37,-545.38 -1087.1,-741.74 62.55,-120.16 105.78,-247.87 135.06,-378.08l20.53 -120.95c0,0 3.79,-78.58 2.7,-154.77 -3.46,-76.39 -9.41,-150.2 -11.89,-143.64 -21.5,-123.83 -52.08,-197.14 -65.36,-1.88 -6.6,57.39 -15.56,126.22 -23.88,180.14 -9.83,55.1 -16.76,93.39 -16.76,93.39 -4.53,35.91 -10.37,63.36 -17.17,105.74 -13.08,60.18 -26.26,120.75 -47.45,178.94 -77.14,235.94 -222.9,449.11 -413.62,621.58 -23.11,22.28 -48.73,42.37 -73.14,63.47 -17.09,12.92 -56.62,46.44 -71.76,54.89 -86.66,43.48 -230.69,-15.31 -310.53,-67.84 -2.29,-0.9 -8.11,-1 -9.51,-0.9 -75.43,4.08 -80.17,51.73 -64.74,82.18 54.46,46.24 127.51,72.11 198.19,93.69 71.84,17.4 158.18,31.03 244.41,-12.34 9.61,-5.86 20.85,-12.62 28.73,-18.4 12.65,-9.85 46.68,-36.69 59.66,-46.95 25.49,-22.08 52.19,-42.87 76.48,-66.03 118.86,-107.94 224.77,-230.48 305.69,-365.86 117.77,56.71 278.88,184.81 278.88,184.81 -73.91,178.85 -207.89,503.22 -286.33,677.99 -2.16,0.9 -88.71,325.45 -94.44,321.08l-105.02 -55.6c-416.45,-209.59 -850.27,-377.78 -1278.71,-557.03 -80.06,6.86 -76.39,68.23 -54.56,93.49 2.27,3.79 3.25,4.18 5.83,5.39 454.9,190.87 921.8,368.52 1352.82,596.41 28.64,16 86.34,48.15 114.98,64.15 5.82,5.96 7.01,-2.58 9.51,-7.06 106.2,-224.7 237.05,-547.47 333.23,-779.24 0,0 101.45,-288.85 94.98,-277.6 6.91,-21.49 12.85,-41.89 17.28,-59.69 325.67,194.27 640.53,416.08 829.94,734.47 246.37,402.34 491.96,825.89 577,1284.23 8.23,44.96 9.63,89.32 11.79,133.48 -15.67,122.54 -154.95,196.65 -260.3,272.75 -56.84,37.4 -131.94,72.51 -195.15,104.05 -158.18,78.47 -237.92,247.46 -420.31,250.94 -199.15,6.38 -410.28,21.78 -607.69,10.86 -23.23,-1.2 -51.44,-6.48 -43.54,-4.98 -7.78,-27.26 -23.77,-63.47 -26.27,-93.59 -0.65,-8.87 8.98,-50.45 10.71,-51.73 -2.07,-6.76 37.49,-33.73 77.25,-41.08 21.07,-4.59 38.58,-7.37 59,-5.97 104.38,3.58 211.88,-1.2 315.84,-9.06l39.97 -3.98c40.51,0 81.25,-23.27 102.12,-46.45 32.31,-32.12 56.39,-63.85 75.41,-106.14 37.5,-106.11 -13.61,-227.37 -77.14,-317.68 -31.78,-43.07 -72.95,-88.64 -136.48,-113.9 -235.87,-85.43 -428.96,148.3 -647.66,129.4 63.42,-21.58 145.66,-75.6 184.33,-124.52 21.4,-25.07 32.21,-44.77 32.21,-44.77 0,0 9.82,-25.56 13.28,-51.83 4,-26.34 0.44,-52.01 -1.08,-49.92 -2.38,-44.27 182.72,-109.31 279.21,-78.87 5.29,2.08 24.09,8.24 46.47,21.29 30.35,16.8 71.42,50.72 102.65,73.39 10.16,6.07 28.74,26.55 24.41,8.85 4,-74.09 12.65,-151.38 0.55,-227.57l-5.51 -34.22c-27.44,-164.33 -115.29,-327.05 -89.15,-489.78 8.54,-43.47 34.36,-53.91 68.18,-80.08l9.73 23.69 11.24 29.53c35.32,98.77 69.05,205.81 89.35,305.47 16.43,93.71 -1.5,212.67 -14.8,313.82l114.42 24.56c0.65,-1.78 1.63,-5.96 3.9,-10.63 61.05,-152.09 126.52,-375.2 207.35,-520.02 5.5,-11.15 49.05,-33.23 86.12,-42.67l10.57 -2.89c-29.16,162.43 -86,385.54 -94.76,549.17 -4.42,45.25 -11.66,118.76 -16.08,163.52 -0.77,14.32 -3.25,54.11 -4.55,74.59 3.78,15.12 7.68,30.95 11.46,46.65 1.73,1.2 5.29,0.9 7.99,1.4l17.29 1.88c23.98,1.8 45.6,6.28 70.66,0.7 18.37,-1.68 36.43,-10.14 53.81,-18.2 8.86,-3.28 16.76,-9.75 24.32,-15.22 5.29,-4.17 10.8,-8.15 14.92,-12.53 23.55,-18.6 69.68,-81.67 68.93,-87.73 29.39,-58.09 71.43,-74.59 73.58,-85.53 1.51,-6.78 -32.31,-42.08 -51.96,-30.94 -19.14,11.04 -43.02,37.5 -75.43,75.49 -24.1,26.16 -55.11,60.38 -86.55,74.9 -3.68,0.8 -6.82,0.6 -8.98,-0.3 -5.4,-1.8 -5.18,-5.98 -2.15,-8.66 2.15,-2.78 3.35,-3.68 3.35,-3.68 4,-40.28 9.83,-99.35 13.82,-139.73 8.54,-171.89 64.31,-393.31 95.41,-562.91 0.55,-3.28 3.13,-16.01 4.11,-26.25l3.79 -31.64c-0.77,-38.39 -13.19,-69.71 -48.73,-78.47 -33.51,-9.05 -93.03,6.26 -119.51,13.12 -25.5,7.36 -50.58,16.22 -75.86,28.66 -24.84,13.02 -51.85,27.35 -75.4,60.18 -13.63,21.98 -12.55,24.06 -18.59,34.8 -29.94,49.35 -60.73,127.62 -79.97,183.33 -30.68,-135.48 -63.95,-246.68 -118.21,-377.58 -8.21,-21.08 -21.39,-36.11 -33.38,-52.33 -4.54,-2.48 -25.4,-14.02 -29.51,-16.3 -0.21,-6.57 -3.99,-2.88 -5.92,-4.88 -35.34,-6.86 -72.52,15.02 -102.56,34.52l-17.28 12.03c-20.86,15.71 -38.8,29.24 -60.41,51.93 -25.71,31.92 -31.88,55.6 -39,82.85 -34.58,185.7 57.27,356.09 88.18,530.26l4.84 30.14 1.95 15.02 0 0.41 -0.22 0 -18.24 -6.87c-50.25,-19.8 -122.12,-20.6 -172.46,-7.16 -170.83,40.57 -321.67,116.86 -485.91,162.53 -11.03,3.08 -22.37,8.94 -29.61,13.42l-17.19 11.34 -20.3 14.22c-17.72,13.52 -25.28,32.93 -33.17,51.92l-1.52 30.35 1.08 18.98c4.43,48.95 16.42,94.8 38.69,140.27 -40.3,8.64 -73.38,24.76 -101.48,40.68l-14.68 8.74c-8.11,5.88 -16.64,12.65 -23.45,19.11 -12.33,13.82 -18.37,23.86 -24.63,34.21 -25.07,43.76 -43.43,88.43 -62.46,123.55 -12.42,-20.2 -19.99,-32.93 -19.23,-30.04 -29.61,-46.27 -42.25,-87.74 -66.57,-125.24 -36.09,-7.26 -107.3,23.88 -143.48,16.62l18.9 -41.78 23.34 -54.51c67.85,-150.11 156.67,-292.33 264.19,-421.35 3.35,-7.86 0.98,-15.42 0,-22.58 18.92,-21.68 31.56,-52.01 28.42,-80.87 -1.41,-38.09 -35.33,-73.79 -60.73,-86.63 -54.56,-29.24 -93.9,-31.33 -135.38,-43.17 -125.36,-27.84 -254.14,-42.87 -383.06,-43.77l-82.87 1.1 -58.45 2.89c0,0 -85.16,10.04 -166.19,28.44 -81.26,17.52 -157.87,42.78 -150.62,41.98 -126.98,48.84 -194.07,95.88 13.17,58.89 74.56,-9.96 243.88,-21.78 297.37,-20.2 18.37,-1.88 36.96,-2.18 55.43,-3.28l27.66 -1.1c133.45,-3.08 267.75,7.96 397.84,35.73 34.36,7.44 81.05,17.2 110.65,28.34 14.04,5.46 19.45,12.02 17.51,10.04 -0.87,1.5 2.04,-2.98 -2.05,3.48 -200.45,166.51 -514.87,191.67 -778.64,180.93 -84.71,-3.68 -169.09,-18.7 -221.93,-36.81 -154.2,-52.71 12.43,-185 96.27,-197.13 -9.29,-16.32 -77.37,-28.46 -99.95,-20.7 -6.8,1.6 -82.77,38.4 -86.34,41.39 -38.35,35.8 -52.94,82.05 -46.13,129.5 5.18,29.14 27.23,99.97 31.54,124.34 10.28,81.16 78.34,234.45 110,287.96 7.9,12.82 16.01,25.56 24.65,37.98 27.98,41.89 59.54,82.97 92.92,121.66l-0.22 0.2 -32.73 9.44c-43.76,14.22 -315.53,111.72 -315.53,111.72l3.25 24.66c-0.43,-3.08 -1.51,-11.34 2.39,18.61l2.91 22.18c0.96,4.96 0.44,10.24 2.82,15 9.92,1.2 37.92,3 42.78,8.66 12.74,7.86 30.36,14.63 39.01,23.38 7.33,6.57 11.33,11.14 16.32,17.21 97.02,130.7 -12.33,274.72 -72.09,405.82l-112.48 222.92c-104.15,174.37 -179.91,411.3 118.43,467.69 100.37,16.62 189.85,10.94 281.47,7.36 473.82,-33.73 934.99,-145.82 1377.47,-300.68l109.23 -40.89c16.85,-1.11 2.17,-15.53 1.51,-23.97 -6.69,-18.1 -23.76,-64.27 -30.57,-82.95 -7.13,-20.7 -17.4,-39.89 -26.05,-59.89 -20.52,-43.77 -50.56,-132.78 -50.56,-132.78 0,0 51.65,-38.81 83.86,-92.42 41.05,16.91 65.03,16.61 89.46,19.21 206.69,11.74 418.05,-4.08 624.11,-10.55 167.9,8.95 308.49,-148.22 416.54,-229.47 66.11,-50.33 172.89,-85.15 260.28,-145.22 125.79,-88.63 300.18,-188.49 310.24,-360.78 -2.07,-50.33 -4.22,-100.46 -12.86,-149l0.43 0zm-1932.74 -73.91c2.6,-1.48 157.43,-55.49 222.49,-77.78 29.06,13.53 20.41,50.04 20.41,50.04 -27.88,56.38 -157.75,118.45 -225.71,134.17 -2.28,-6.46 -4.55,-13.02 -6.38,-19.7 -5.29,-17.8 -7.99,-36.79 -9.94,-54.89l-0.87 -15.22 0 -16.52 0 -0.1zm-1204.57 126.92c0,0 -25.39,-33.61 -52.62,-77.88 -35.77,-54.7 -69.48,-127.91 -83.52,-157.45 71.75,34.91 154.18,35.3 228.09,39.18 223.03,9.76 450.38,5.58 663.45,-73.3 -58.02,87.04 -108.7,178.13 -151.17,272.45l-22.04 51.3c-6.37,16.33 -40.08,102.36 -45.37,116.68 -116.93,20.11 -234.37,37.41 -352.06,52.93 -17.07,-17.8 -56.6,-59.09 -73.04,-76.59 -34.67,-39.19 -67.84,-81.37 -96.38,-124.34l-15.23 -23.08 -0.11 0.1zm1333.26 1149.56l-27.88 10.44c-416.43,144.52 -856.75,250.86 -1300.19,286.56 -291.2,14.33 -521.03,21.68 -319.72,-307.75l114.52 -226.89c78.78,-151.58 199.59,-364.64 63.22,-524.79l-9.07 -10.24 -0.12 0 0.21 0 708.83 -100.17c75.53,-13.03 150.95,-27.04 226.16,-41.87 0,5.06 0,7.56 0,0 3.57,-0.59 15.68,-3.08 19.24,-3.78 2.91,11.65 6.36,24.17 10.79,38.49 32.31,116.98 121.89,265.08 121.89,265.08 115.4,169 253.39,335.81 344.37,510.48 10.04,17.9 18.58,36.21 26.58,54.5 7.56,16.01 18.81,41.57 21.39,50.34 -0.32,-0.8 -0.22,-0.3 -0.22,-0.3l0 -0.1zm42.8 -593.53c-6.28,24.88 -4.33,37.5 -4.43,50.34l2.05 37.99c1.18,14.62 3.35,44.76 3.35,44.76 0,0 -6.16,42.27 -28.85,78.47 -21.61,36.71 -56.09,63.18 -56.09,63.18 0,0 -0.32,0.49 -0.43,0.69 -76.83,-115.69 -164.23,-229.07 -243,-342.57 0,0 -75.21,-111.01 -72.83,-113.89 50.13,-69.93 62.67,-128.9 100.06,-181.93 0.65,-0.3 0.21,-0.3 0.21,-0.3 25.82,-16.11 59.98,-33.61 82.56,-36.31 4.09,-0.78 12.21,-1.08 12.21,-1.08l1.08 0.68c6.58,2.8 19.55,11.44 29.81,19.51l2.17 1.6c20.09,16.1 40.08,34.5 57.7,54.7 0,0 53.26,49.93 86.76,111 35.98,59.99 48.84,126.82 48.95,120.76 3.88,14.52 6.7,28.45 9.08,41.57 -12.64,13.44 -23.78,29.94 -30.36,50.83zm42.45 -288.35c-23.33,-48.85 -47.43,-81.67 -53.16,-89.33 55.22,-7.86 95.75,-22.29 141.88,-37.19 100.17,-35.03 192.43,-83.56 278.66,-104.86 86.44,-22.96 147.83,3.89 199.25,78.19 27.57,34.51 42.57,69.74 55.98,112.2 11.46,39.69 20.75,87.44 8.86,105.04 -10.16,23.48 -30.69,51.23 -50.89,70.73 -3.9,4.08 -11.47,9.94 -13.73,11.62l-54.34 5.78c-98.23,7.46 -201.84,12.04 -299.85,8.75 -60.19,-2.59 -115.83,10.74 -168.89,37.2 0,-1.78 0.21,-3.08 0.21,-4.86 2.92,-62.17 -16.85,-137.88 -43.98,-193.07l0 -0.2z" />
  <path fill="#fff"
    d="M4438.42 1505.84c-28.86,20.39 -83.85,28.35 -119.07,27.15 -38.79,-0.59 -72.61,-42.77 -104.39,-64.95 -11.34,-7.06 -28.73,-21.58 -57.81,-30.73 -7.56,60.38 7.35,89.02 8,89.42 160.68,148.21 354.75,97.98 413.52,-109.32 24.1,-61.37 -12.53,-157.26 -64.5,-168.5 -45.28,-17.8 -82.03,-8.35 -105.67,-1.59 -24.22,7.76 39.53,33.72 71.41,52.92 106.32,60.58 -41.49,205.7 -41.49,205.7l0 -0.1z" />
  <path fill="#fff"
    d="M1963.04 1514.79c7.35,1.4 88.39,-81.96 117.13,-121.45 -3.9,-18.9 -3.9,-25.96 -6.38,-45.96 -50.34,-27.15 -139.06,-59.88 -141.23,-62.36 -20.41,20.99 -20.74,52.22 -20.2,61.77 0,1.69 0.54,1.99 0.54,1.99 0.55,0.2 10.27,3.78 24.53,9.15 8.33,3.68 20.96,7.76 32.52,12.23 -3.46,-0.6 -5.94,-0.99 -5.94,-0.99 0,0 -145.97,18.9 -149.22,19.4 -15.56,-43.18 -51.86,-91.61 -123.29,-89.13 -29.83,3.58 -88.94,25.47 -108.05,61.17 -1.73,1.9 -18.15,50.64 -19.99,77.29 -29.39,5.57 -102.97,19.6 -154.41,29.44 -56.08,-36.6 -73.58,-53.01 -114.65,-68.83 -0.43,-0.2 -1.5,1.99 -1.83,2.49 -4.86,24.57 -12.64,29.94 -10.26,39.69 0.32,1.69 56.41,42.27 56.94,43.07 -14.8,5.57 -63.31,-6.77 -69.14,-11.04 -34.48,-29.45 -81.38,-43.08 -81.38,-43.08 -0.53,0.11 -2.04,1.7 -2.38,2.09 -18.8,25.97 -20.08,49.64 -19.87,60.88 -0.98,-1.09 40.41,13.73 59.64,32.72 -4.76,8.56 -36.42,38.6 -36.42,38.6 0,0 16.87,63.76 44.19,45.36 17.84,-10.05 86.12,-69.13 94.89,-68.44 -1.42,12.14 -8.33,40.79 -7.15,40.09 14.71,15.31 17.94,19.49 39.02,35.41 16.95,-12.83 36.96,-71.82 36.96,-71.82 0,0 1.28,-3.28 3.34,-8.25 45.17,-8.56 123.39,-23.38 163.81,-31.04 6.8,121.05 177.85,197.35 249.38,70.32 22.15,-43.17 20.2,-84.24 14.7,-121.84 12.96,-1.69 89.47,-12.04 128.04,-17.11 -0.75,2.19 -29.28,28.05 -28.84,27.85 -4.33,15.72 28.19,50.13 35.22,50.63l-0.22 -0.3zm-287.32 50.93c-43.21,-23.28 -45.81,-92.31 -39.76,-140.35 12.76,13.33 27.56,22.87 38.03,31.13 32.86,19.8 28.42,58.39 29.62,54.91 0.96,28.05 -14.38,48.64 -18.27,58.09 -3.23,-1.3 -6.27,-1.79 -9.62,-3.78zm74.13 -20.2c-13.18,23.09 -14.49,32.93 -35.77,28.65 1.42,-0.5 31.56,-86.43 7.25,-126.62 -10.26,-27.65 -61.81,-62.17 -52.85,-74.3 -1.08,-1.89 23.23,-19.99 30.7,-19.99 7.87,-1.2 22.8,16.41 32.74,28.54 28.31,39.99 37.6,127.02 17.93,163.72z" />
  <path fill="#fff"
    d="M3908.86 1604.42c-175.82,-66.05 -109.47,-261.71 -208.44,-233.16 -2.92,0.9 -2.81,1.5 -2.81,2.29 0,1.09 1.08,21.88 2.71,52.32 -2.82,84.94 65.9,223.51 150.93,258.92 -1.18,2.48 125.03,43.07 94.66,33.32 34.36,11.04 70.66,-73.32 -37.05,-113.69z" />
  <path fill="#fff"
    d="M4281.19 303.47c115.2,20.39 239.14,6.27 353.67,-17.31 47.42,63.86 129.88,104.94 213.18,104.14 44.2,0.6 87.09,-7.26 126.21,-19.79 0,0 0.22,0 0.22,-0.1 6.04,9.95 13.07,19.5 20.96,28.55 147.59,157.16 394.6,85.24 535.73,-33.22 0,0 64.83,-54.61 116.04,-116.98 52.41,-61.67 91.08,-128.81 86,-123.83 31.45,-56.5 45.72,-107.33 40.52,-120.96 -6.48,-14.52 -27.97,10.15 -93.13,85.34 -46.24,54.32 -168.35,158.16 -213.18,184.52 -20.97,16.61 -42.47,31.93 -64.31,45.85 -84.27,58.29 -222.79,92.21 -305.35,21.79 -6.47,-5.08 -11.02,-11.84 -15.77,-18.31 37.49,-21.88 63.42,-35.9 99.63,-65.35 61.58,-45.15 54.02,-150.3 -40.3,-168.2 -62.58,-14.82 -126.33,18.9 -154.31,56.6 -28.31,36.4 -41.38,77.68 -41.72,118.67 -59.41,20.58 -121.33,24.86 -166.28,0 -8.74,-4.38 -16.32,-10.45 -23.98,-16.32 48.17,-22.97 88.6,-61.37 88.69,-123.53 0.12,-41.79 -26.24,-80.67 -66.54,-96.09 -39.78,-16.41 -89.25,-6.97 -125.34,19.59 -29.18,19.59 -50.68,54.51 -57.06,83.65 -4.33,17.02 -4.55,34.12 -3.24,51.03 -94.55,20.99 -192.88,25.87 -289.37,15.91 -2.6,0.21 -8,2.79 -9.18,3.48 -65.38,38.9 -38.25,82.37 -11.45,100.97l-0.34 -0.1zm442.48 -169.3l0.22 0c0,-0.79 1.3,1.1 -8.43,9.46 -0.31,0.29 -0.97,0.49 -1.3,0.79 2.39,-3.68 5.2,-6.67 9.41,-10.25l0.1 0z" />
  <path fill="#fff"
    d="M3367.07 514.34c73.6,26.26 148.04,42.38 231.24,43.07 109.23,-0.1 199.9,-7.46 194.39,-6.26l11.66 -1 -106.21 -85.54c-19.13,-14.43 -25.83,-26.16 -39.43,-39.39 -9.3,-8.95 -16.11,-19.2 -22.27,-29.94 -22.58,-38.1 -34.36,-82.36 -33.49,-125.83 0,-6.07 0.53,-16.21 1.08,-18.8l0.32 0 17.83 9.35c10.36,5.77 21.5,10.35 32.3,15.42 87.63,38.29 185.21,56.2 282.35,50.43 3.03,-0.6 8.74,-4.08 9.94,-4.97 61.15,-53.52 11.12,-87.53 -10.49,-101.07 -77.57,-1.78 -159.58,-8.25 -231.23,-42.27 -8.54,-4.07 -17.4,-7.66 -25.71,-12.23l-12.64 -6.56 -25.52 -16.22c-26.24,-15.92 -56.07,-39.99 -81.78,-58.79 -8.76,-6.36 -19.56,-17.8 -20.32,-3.98 -20.32,51.73 -45.17,98.68 -51.43,154.68 -8.75,74.4 7.25,147.01 45.48,212.46l6.07 9.75c-3.25,-0.7 20.63,5.27 -7.35,9.06 -76.5,1.48 -151.38,-11.45 -145.22,-8.66 -63.12,-7.36 -115.73,-17.81 -130.53,-11.94 -14.06,4.38 7.46,31.63 110.96,69.33l0 -0.1z" />
  <path fill="#fff"
    d="M3242.17 473.06c0.53,-2.38 0.75,-3.28 3.78,-5.97 19.12,-21.58 57.49,-34.02 88.17,15.62 0.54,0.9 2.49,4.77 2.37,6.47 -8.2,40.58 -4.43,81.36 11.68,119.96 5.08,13.22 11.46,26.05 19.67,38.49 12.52,20.69 28.51,40.38 46.25,59.08 0,0 19.33,25.07 51.74,56.5 31.99,31.73 76.94,69.43 114.98,100.96 133.33,102.45 64.82,85.25 -32.53,38.69 4.22,3.68 -52.84,-25.66 -108.59,-62.66 -56.3,-36.01 -106.66,-85.34 -106.66,-85.34 -17.82,-19.3 -34.35,-40.49 -48.29,-63.47 -10.48,-15.91 -19.24,-32.92 -26.37,-50.83 -22.15,-52.42 -27.88,-112.19 -16.42,-167.4l0.22 -0.1z" />
  <path fill="#fff"
    d="M4036.89 894.61c-0.33,-0.6 -0.54,-0.9 0.97,-2.68 8.21,-11.94 33.94,-35.12 77.69,-41.28 0.77,-0.1 3.9,-0.31 4.55,0 0.43,0.79 9.72,15.01 23.23,36.1 13.82,20.89 33.06,47.85 53.38,74 40.4,52.53 86.65,100.17 86.65,100.17 0,0 22.69,37 35.12,67.54 24.63,48.84 -5.19,49.33 -38.47,33.62 0.77,4.38 -71,-45.76 -71,-45.76 0,0 -48.73,-50.33 -91.29,-105.73 -21.5,-27.55 -41.71,-56 -56.41,-77.98 -14.26,-22.19 -23.98,-37.3 -24.53,-38.1l0.11 0.1z" />
  <path fill="#fff"
    d="M4089.09 1126.67c-0.55,0.3 -0.77,0.4 -2.72,-0.89 -12.2,-7.56 -37.39,-30.55 -47.31,-70.13 -0.22,-0.7 -0.65,-3.48 -0.34,-4.08 2.92,-1.79 211.25,-129.91 211.25,-129.91 0,0 39.55,-13.53 71.96,-17.3 52.63,-9.85 49.06,15.81 30.26,40.08 3.89,-0.09 -50.56,51.23 -50.56,51.23 0,0 -209.74,129.31 -212.66,131.1l0.12 -0.1z" />
  <path fill="#fff"
    d="M4601.46 1014.46c-0.31,-0.59 -0.53,-0.89 0.99,-2.68 8.21,-11.94 33.92,-35.11 77.69,-41.28 0.75,-0.1 3.88,-0.3 4.53,0 0.53,0.8 9.73,15.02 23.23,36.11 13.83,20.88 33.06,47.84 53.38,74 40.42,52.52 86.66,100.27 86.66,100.27 0,0 22.69,37 35.11,67.54 24.63,48.83 -5.18,49.33 -38.47,33.61 0.77,4.38 -70.98,-45.75 -70.98,-45.75 0,0 -48.63,-50.34 -91.32,-105.73 -21.49,-27.56 -41.7,-56 -56.38,-77.99 -14.28,-22.18 -24,-37.3 -24.54,-38.1l0.1 0z" />
  <path fill="#fff"
    d="M4653.66 1246.63c-0.53,0.3 -0.75,0.4 -2.7,-0.9 -12.21,-7.56 -37.39,-30.53 -47.33,-70.22 -0.21,-0.69 -0.54,-3.48 -0.31,-4.08 2.91,-1.79 211.24,-129.91 211.24,-129.91 0,0 39.53,-13.52 72.05,-17.3 52.63,-9.85 49.07,15.81 30.17,40.08 3.87,-0.1 -50.58,51.23 -50.58,51.23 0,0 -209.73,129.31 -212.64,131.1l0.1 0z" />
  <path fill="#fff"
    d="M3699.24 1372.16c2.36,0 3.13,0 6.26,2.09 21.5,12.43 59.32,28.05 9.29,66.14 -0.86,0.7 -5.29,3.28 -7.46,3.58 -52.63,0.2 -115.08,17.11 -170.19,13.43 -40.18,-2.58 -80.17,-6.96 -119.39,-12.63l-103.19 -17.01 -0.22 0c-0.86,1.69 -0.33,15.91 3.57,19.3 10.91,18.99 37.61,41.17 64.94,56.29 21.39,12.24 45.28,21.79 70.24,29.05 0,0 29.71,12.04 74.45,21.09 44.41,10.24 110.09,4.67 160.24,5.57 170.07,-8.66 100.92,42.77 95.19,69.63 5.95,0 -158.41,2.58 -228.96,1.99 -70.56,1.49 -143.39,-18.41 -143.39,-18.41 -26.58,-9.15 -52.94,-19.59 -77.69,-33.82 -37.82,-22.28 -73.38,-47.04 -100.05,-90.91 -14.81,-27.85 -18.71,-51.63 -10.26,-84.65 9.82,-34.81 44.83,-61.17 83.95,-63.06 9.73,-0.79 18.58,0 27.01,1.29l14.91 2.59 27.99 4.87 55.96 8.75c37.29,5.38 74.34,9.36 111.41,11.74 50.68,3.38 102.21,2.99 155.49,2.79l-0.1 0.3z" />
</svg>