<svg xmlns="http://www.w3.org/2000/svg" viewBox="0 0 110.11 110.06">
  <path fill="#fff"
    d="M110.08 32.91c0,-1.55 -0.07,-3.14 -0.28,-4.66 -2.26,-16.42 -15.78,-28.21 -32.34,-28.24 -14.97,0 -29.9,-0.04 -44.87,0.04 -2.44,0 -4.91,0.21 -7.27,0.78 -15,3.39 -25.59,16.98 -25.31,32.34 0.14,7.31 0.04,14.58 0.04,21.89l0 22.21c0,1.13 -0.04,2.29 0.07,3.42 1.8,16.91 15.6,29.37 32.62,29.37 14.93,0.04 29.79,0 44.73,0 1.09,0 2.19,0.04 3.28,-0.11 17.05,-1.91 29.34,-15.64 29.34,-32.83 0.04,-14.69 0.04,-29.44 0,-44.2zm-9.99 44.52c-0.04,11.05 -7.24,19.84 -17.93,22.13 -1.62,0.35 -3.32,0.49 -4.98,0.49 -14.76,0.04 -29.51,0.07 -44.23,0.04 -11.26,-0.04 -20.12,-7.17 -22.42,-18 -0.32,-1.62 -0.49,-3.32 -0.49,-4.98 -0.04,-14.76 -0.07,-29.48 0,-44.23 0.04,-11.23 7.2,-20.12 18.04,-22.38 1.7,-0.39 3.5,-0.46 5.26,-0.49 7.24,-0.07 14.47,-0.04 21.75,-0.04 7.41,0 14.79,-0.04 22.2,0 11.16,0.07 19.98,7.13 22.31,17.93 0.35,1.55 0.49,3.18 0.49,4.8 0.04,14.93 0.07,29.83 0,44.73z" />
  <path fill="#fff"
    d="M55.11 25.04c-16.52,0 -30.01,13.42 -30.08,29.94 -0.04,16.52 13.38,30.04 29.87,30.11 16.56,0.04 30.08,-13.38 30.15,-29.83 0.11,-16.66 -13.34,-30.22 -29.94,-30.22zm0 50.02c-10.98,0.04 -19.98,-8.9 -20.09,-19.91 -0.07,-11.01 9,-20.16 20.05,-20.12 11.01,0.04 19.98,9 19.98,19.98 0.04,11.01 -8.93,19.98 -19.95,20.05z" />
  <path fill="#fff"
    d="M89.15 25.5c0,2.58 -2.01,4.55 -4.59,4.52 -2.54,-0.04 -4.52,-2.05 -4.48,-4.63 0.04,-2.47 2.01,-4.45 4.52,-4.45 2.54,0 4.55,2.01 4.55,4.55z" />
</svg>