<svg viewBox="0 0 159 75" xmlns="http://www.w3.org/2000/svg">
  <path
    d="M128.31 41.81H122.07V30.57L119.16 32.93V27.89L122.07 25.49V9.39001H128.31V20.44L131.18 18.03V23.07L128.31 25.47V41.79V41.81Z"
    fill="#fff" />
  <path
    d="M115.89 30.09C115.89 32.3 115.35 34.36 114.26 36.28C113.17 38.2 111.68 39.7 109.78 40.78C107.88 41.86 105.79 42.4 103.51 42.4C100.11 42.4 97.24 41.21 94.89 38.82C92.54 36.43 91.36 33.54 91.36 30.13C91.36 26.46 92.7 23.42 95.38 21C97.72 18.88 100.42 17.82 103.48 17.82C105.69 17.82 107.76 18.37 109.7 19.46C111.64 20.56 113.16 22.05 114.24 23.95C115.33 25.85 115.87 27.89 115.87 30.09H115.89ZM109.94 30.11C109.94 28.17 109.36 26.56 108.21 25.28C107.05 24 105.51 23.36 103.58 23.36C101.65 23.36 100.15 24.02 98.96 25.33C97.82 26.6 97.25 28.19 97.25 30.11C97.25 32.03 97.81 33.66 98.94 34.93C100.11 36.26 101.65 36.92 103.57 36.92C105.49 36.92 107.03 36.26 108.22 34.93C109.38 33.64 109.95 32.04 109.95 30.11H109.94Z"
    fill="#fff" />
  <path
    d="M158.79 41.8H152.82V39.29C150.62 41.37 148.19 42.42 145.51 42.42C142.22 42.42 139.48 41.15 137.3 38.61C135.22 36.18 134.18 33.29 134.18 29.96C134.18 26.63 135.17 23.63 137.15 21.24C139.26 18.69 141.99 17.41 145.34 17.41C148.21 17.41 150.7 18.49 152.83 20.65V18.03H158.8V41.81L158.79 41.8ZM153.11 29.86C153.11 27.87 152.51 26.22 151.32 24.9C150.13 23.59 148.55 22.93 146.57 22.93C144.59 22.93 143.07 23.61 141.86 24.98C140.71 26.29 140.14 27.92 140.14 29.88C140.14 31.84 140.72 33.47 141.88 34.81C143.1 36.22 144.67 36.92 146.59 36.92C148.51 36.92 150.16 36.23 151.38 34.85C152.52 33.53 153.1 31.86 153.1 29.86H153.11Z"
    fill="#fff" />
  <path
    d="M105.86 62.13L103.87 64.03C102.52 62.6 101 61.88 99.31 61.88C97.88 61.88 96.67 62.37 95.7 63.34C94.73 64.31 94.24 65.52 94.24 66.95C94.24 69.01 95.07 70.5 96.73 71.43C97.52 71.87 98.4 72.09 99.36 72.09C100.27 72.09 101.1 71.9 101.84 71.52C102.46 71.19 103.14 70.67 103.87 69.94L105.8 71.95C104.77 72.95 103.79 73.67 102.87 74.1C101.84 74.58 100.66 74.81 99.32 74.81C97 74.81 95.1 74.08 93.62 72.62C92.14 71.16 91.4 69.27 91.4 66.94C91.4 63.9 92.7 61.64 95.31 60.18C96.56 59.48 97.91 59.13 99.36 59.13C101.98 59.13 104.15 60.13 105.86 62.13Z"
    fill="#fff" />
  <path
    d="M126.87 74.43H123.93L122.76 71.35H116.66L115.44 74.43H112.49L118.24 59.5H121.12L126.86 74.43H126.87ZM121.69 68.6L119.71 63.45L117.72 68.6H121.69Z"
    fill="#fff" />
  <path
    d="M141.86 67.71H137.27V74.43H134.45V59.5H141.86V62.26H137.27V64.99H141.86V67.71Z"
    fill="#fff" />
  <path
    d="M158.79 74.43H150.64V59.5H158.79V62.27H153.47V64.99H158.79V67.71H153.47V71.65H158.79V74.43Z"
    fill="#fff" />
  <path d="M37.19 0H29.9V42.39H37.19V0Z" fill="#fff" />
  <path d="M23.28 9.39001H17.01V42.39H23.28V9.39001Z" fill="#fff" />
  <path d="M10.54 0H2.95001V42.39H10.54V0Z" fill="#fff" />
  <path
    d="M33.02 66.45C33.87 66.16 35.28 65.95 36.05 65.84C36.68 65.75 37.23 65.66 37.6 65.57C41.02 64.75 43.56 62.47 44.08 59.76C44.49 57.6 44.01 55.77 42.66 54.31C41.22 52.77 39.14 52.63 37.47 52.64C37.47 52.63 37.47 52.62 37.47 52.62H32.86C32.86 61.49 27.18 68.71 20.2 68.71C13.22 68.71 7.54 61.49 7.54 52.62H2.94C2.94 60.59 6.72 67.5 12.24 70.96H0V74.8H42.59V70.96H28.13C29.98 69.81 31.64 68.28 33.02 66.45ZM37.26 55.72C38.44 55.71 39.79 55.75 40.42 56.42C40.9 56.94 41.36 57.67 41.07 59.19C40.78 60.7 39.1 62.06 36.89 62.59C36.58 62.66 36.12 62.73 35.6 62.8C35.47 62.82 35.33 62.84 35.19 62.86C36.22 60.69 36.93 58.28 37.26 55.71V55.72Z"
    fill="#fff" />
  <path
    d="M66.72 30.69C66.79 26.89 65.64 23.78 63.26 21.34C60.95 18.99 57.96 17.82 54.27 17.82C50.58 17.82 47.85 19.01 45.58 21.38C43.31 23.75 42.17 26.71 42.17 30.25C42.17 33.79 43.34 36.76 45.69 39.02C48.03 41.29 51 42.42 54.6 42.42C58.2 42.42 61.26 41.31 63.54 39.13C63.58 39.09 63.63 39.06 63.67 39.02C63.72 38.97 63.77 38.91 63.82 38.86C64.01 38.66 64.21 38.46 64.39 38.25C64.55 38.07 64.69 37.88 64.83 37.69C64.94 37.55 65.05 37.43 65.15 37.28L65.25 37.14C65.62 36.62 66.01 35.85 66.32 35.05H60.02C59.86 35.24 59.77 35.33 59.59 35.5C58.15 36.66 56.48 37.23 54.57 37.23C52.79 37.23 51.31 36.76 50.1 35.81C48.9 34.86 48.15 33.53 47.87 31.82H66.7L66.72 30.7V30.69ZM48.13 27.17C48.79 25.74 49.5 24.74 50.27 24.17C51.5 23.26 52.92 22.81 54.55 22.81C55.99 22.81 57.29 23.2 58.45 23.98C59.61 24.76 60.39 25.82 60.78 27.17H48.12H48.13Z"
    fill="#fff" />
  <path
    d="M88.22 33.78C87.95 31.98 87.16 30.53 85.82 29.44C84.83 28.63 83.32 27.89 81.27 27.22L78.99 26.47C77.5 25.98 76.8 25.42 76.62 24.84C76.25 23.58 77 22.42 78.39 22.27C80.63 22.03 82.23 22.91 82.77 24.7H87.32C87.32 24.7 87.28 24.25 87.26 23.99C87.23 23.7 87.07 22.82 86.78 22.18C86.61 21.79 86.23 21.18 85.85 20.74C84.71 19.21 83.28 18.53 82.17 18.15C80.86 17.7 79.28 17.64 77.66 17.88C75.62 18.18 73.97 19.03 72.71 20.42C71.35 21.91 70.82 23.65 71.11 25.64C71.53 28.49 73.75 30.58 77.76 31.9L79.86 32.59C81.67 33.18 82.64 33.93 82.77 34.84C82.86 35.42 82.65 36.08 82.15 36.55C81.7 36.98 81.36 37.26 80.48 37.5C79.65 37.73 78.22 37.69 77.32 37.31C76.41 36.93 75.93 36.53 75.58 35.83L75.27 35.07H70.05C70.06 35.43 70.15 35.76 70.2 35.98C70.41 36.91 70.73 37.52 71.14 38.19C71.69 39.1 72.56 39.76 72.56 39.76C74.9 41.9 77.69 42.73 80.93 42.25C83.25 41.91 85.1 41.01 86.46 39.56C87.95 37.98 88.53 36.06 88.2 33.8L88.22 33.78Z"
    fill="#fff" />
</svg>